<svg width="25" height="24" viewBox="0 0 25 24" fill="none" xmlns="http://www.w3.org/2000/svg">
<path d="M17.623 12.627C17.598 10.094 19.689 8.879 19.782 8.819C18.607 7.099 16.777 6.864 16.125 6.837C14.568 6.679 13.086 7.754 12.295 7.754C11.507 7.754 10.287 6.86 8.99501 6.884C7.29901 6.909 5.73401 7.87 4.86001 9.39C3.09601 12.45 4.40801 16.985 6.12701 19.467C6.96701 20.682 7.96901 22.047 9.28401 21.997C10.55 21.947 11.029 21.178 12.56 21.178C14.091 21.178 14.522 21.998 15.862 21.973C17.225 21.947 18.088 20.734 18.922 19.516C19.887 18.106 20.284 16.741 20.308 16.671C20.278 16.658 17.65 15.651 17.624 12.626L17.623 12.627ZM15.105 5.194C15.803 4.347 16.274 3.172 16.145 2C15.14 2.04 13.921 2.67 13.2 3.515C12.553 4.265 11.986 5.46 12.138 6.609C13.26 6.697 14.406 6.039 15.105 5.194Z" fill="#458FF6"/>
</svg>
