<svg width="25" height="24" viewBox="0 0 25 24" fill="none" xmlns="http://www.w3.org/2000/svg">
<path d="M6.87568 10.068C6.66293 10.6899 6.55479 11.3427 6.55568 12C6.55568 12.734 6.68768 13.437 6.93168 14.086C7.23579 14.8972 7.71347 15.6321 8.33131 16.2393C8.94915 16.8466 9.69222 17.3115 10.5085 17.6015C11.3248 17.8916 12.1947 17.9998 13.0571 17.9185C13.9196 17.8372 14.7539 17.5684 15.5017 17.131H15.5027C16.6807 16.4404 17.5859 15.3661 18.0667 14.088H12.7197V10.132H22.3247C22.5731 11.4405 22.5581 12.7854 22.2807 14.088C21.7999 16.3399 20.5565 18.3568 18.7607 19.798C16.9869 21.2264 14.7771 22.0035 12.4997 22C10.7826 22.001 9.0943 21.5597 7.59731 20.7187C6.10032 19.8778 4.84513 18.6655 3.95269 17.1986C3.06024 15.7317 2.56061 14.0597 2.50193 12.3437C2.44326 10.6276 2.82751 8.92542 3.61768 7.401C4.46065 5.77291 5.73506 4.40796 7.30155 3.4554C8.86805 2.50284 10.6663 1.99936 12.4997 2C14.9257 2 17.1507 2.864 18.8827 4.302L15.6427 6.954C14.8837 6.48164 14.028 6.18643 13.1392 6.09034C12.2504 5.99424 11.3514 6.09972 10.509 6.39894C9.66658 6.69816 8.90245 7.18342 8.27342 7.81864C7.64439 8.45386 7.16663 9.2227 6.87568 10.068Z" fill="#458FF6"/>
</svg>
