<svg width="25" height="30" viewBox="0 0 25 30" fill="none" xmlns="http://www.w3.org/2000/svg">
<path d="M14.025 4.6499V0.399902H0.625V29.5999H14.025V25.3499C11.28 25.3499 8.6474 24.2594 6.70644 22.3184C4.76544 20.3774 3.675 17.7449 3.675 14.9999C3.675 12.2549 4.76544 9.62231 6.70644 7.68135C8.6474 5.74035 11.28 4.6499 14.025 4.6499Z" fill="white"/>
<path d="M14.0254 4.6499V25.3499C16.7704 25.3499 19.403 24.2594 21.344 22.3184C23.285 20.3774 24.3754 17.7449 24.3754 14.9999C24.3754 12.2549 23.285 9.62231 21.344 7.68135C19.403 5.74035 16.7704 4.6499 14.0254 4.6499Z" fill="white"/>
</svg>
