<svg width="32" height="32" viewBox="0 0 32 32" fill="none" xmlns="http://www.w3.org/2000/svg">
<path fill-rule="evenodd" clip-rule="evenodd" d="M0.799805 16.3482L0.801349 16.1879L0.804533 16.0275L0.809365 15.8671L0.815837 15.7067L0.823965 15.5463L0.833733 15.3859L0.845157 15.2256L0.858221 15.0653L0.872941 14.905L0.889309 14.7448L0.907325 14.5848L0.926981 14.4248L0.948293 14.265L0.971253 14.1053L0.995853 13.9458L1.0221 13.7865L1.05 13.6273L1.07952 13.4684L1.1107 13.3097L1.14352 13.1512L1.17797 12.993L1.21405 12.835L1.25178 12.6774L1.29112 12.5201L1.33211 12.3631L1.37471 12.2064L1.41894 12.0501L1.46479 11.8942L1.51225 11.7386L1.56132 11.5835L1.61201 11.4288L1.66431 11.2745L1.7182 11.1206L1.77369 10.9673L1.83078 10.8144L1.88945 10.662L1.94972 10.5102L2.01156 10.3588L2.07497 10.2081L2.13996 10.0578L2.20651 9.90816L2.27462 9.75912L2.34428 9.61072L2.4155 9.46288L2.48826 9.31568L2.56256 9.1692L2.63838 9.02336L2.71573 8.87816L2.7946 8.73376L2.87497 8.59L2.95686 8.44696L3.04024 8.30472L3.12511 8.1632L3.21146 8.02248L3.29929 7.88256L3.38859 7.74344L3.47935 7.6052L3.57156 7.46768L3.66522 7.33112L3.76032 7.19536L3.85684 7.06048L3.95477 6.92656L4.05412 6.79344L4.15488 6.66136L4.25703 6.53016L4.36056 6.39987L4.46546 6.27059L4.57173 6.14229L4.67936 6.01498L4.78833 5.88866L4.89864 5.76338L5.01028 5.63913L5.12323 5.51592L5.23749 5.39378L5.35304 5.2727L5.46988 5.15272L5.588 5.03383L5.70737 4.91606L5.828 4.79941L5.94988 4.6839L6.07298 4.56954L6.1973 4.45634L6.32283 4.34433L6.44956 4.2335L6.57747 4.12386L6.70655 4.01544L6.83679 3.90825L6.96818 3.80229L7.10071 3.69758L7.23436 3.59412L7.36908 3.49194L7.505 3.39104L7.64196 3.29144L7.77996 3.19314L7.919 3.09616L8.05916 3.0005L8.20028 2.90618L8.34244 2.81321L8.48564 2.72159L8.62988 2.63135L8.775 2.54249L8.92116 2.45501L9.0682 2.36894L9.2162 2.28427L9.36516 2.20102L9.51501 2.11921L9.66572 2.03882L9.81732 1.9599L9.9698 1.88242L10.1232 1.80641L10.2773 1.73187L10.4324 1.65882L10.5881 1.58726L10.7448 1.5172L10.9021 1.44865L11.0603 1.38162L11.2192 1.31611L11.3788 1.25214L11.5391 1.1897L11.7001 1.12882L11.8618 1.06948L12.0242 1.01172L12.1872 0.95552L12.3509 0.900896L12.5152 0.847864L12.68 0.796416L12.8456 0.746568L13.0116 0.698328L13.1782 0.651696L13.3454 0.606672L13.5131 0.563272L13.6812 0.521504L13.8499 0.481376L14.0191 0.442872L14.1887 0.406024L14.3587 0.370816L14.5292 0.337264L14.7 0.305376L14.8713 0.275144L15.043 0.246584L15.215 0.219696L15.3873 0.19448L15.56 0.170952L15.7329 0.149104L15.9062 0.128944L16.0797 0.110464L16.2535 0.093696L16.4275 0.078616L16.6017 0.0652321L16.7761 0.0535601L17.714 0L17.7676 4.51894L17.7982 4.51858L17.9277 4.5184L18.0572 4.51949L18.1868 4.52185L18.3164 4.52549L18.446 4.5304L18.5757 4.53658L18.7054 4.54404L18.8351 4.55278L18.9647 4.56279L19.0944 4.57409L19.2239 4.58666L19.3534 4.60052L19.4828 4.61565L19.6121 4.63206L19.7413 4.64974L19.8704 4.6687L19.9994 4.68895L20.1283 4.71047L20.2569 4.73326L20.3855 4.75734L20.5138 4.78268L20.6419 4.8093L20.7699 4.83719L20.8976 4.86635L21.025 4.89678L21.1523 4.92847L21.2792 4.96144L21.4059 4.99566L21.5323 5.03115L21.6584 5.0679L21.7842 5.1059L21.9096 5.14515L22.0348 5.18566L22.1596 5.22742L22.284 5.27042L22.408 5.31467L22.5316 5.36015L22.6548 5.40688L22.7776 5.45483L22.9 5.50402L23.022 5.55444L23.1434 5.60607L23.2644 5.65893L23.385 5.713L23.505 5.76828L23.6245 5.82476L23.7436 5.88245L23.862 5.94134L23.98 6.00142L24.0973 6.06268L24.2141 6.12513L24.3304 6.18876L24.446 6.25356L24.561 6.31953L24.6754 6.38666L24.7892 6.45496L24.9023 6.5244L25.0148 6.59496L25.1265 6.66672L25.2376 6.73952L25.348 6.81352L25.4578 6.88864L25.5668 6.9648L25.6751 7.04216L25.7826 7.12056L25.8893 7.20008L25.9954 7.28072L26.1006 7.3624L26.2051 7.4452L26.3087 7.52896L26.4116 7.61384L26.5136 7.69984L26.6148 7.7868L26.7152 7.8748L26.8147 7.96384L26.9132 8.05392L27.011 8.14504L27.1079 8.23712L27.2039 8.33016L27.2989 8.42424L27.3931 8.51928L27.4863 8.61536L27.5786 8.71232L27.6699 8.81024L27.7603 8.90912L27.8496 9.00896L27.938 9.10968L28.0255 9.21136L28.1119 9.31392L28.1973 9.41736L28.2817 9.52176L28.3651 9.62696L28.4474 9.73304L28.5287 9.84L28.6089 9.94784L28.688 10.0565L28.7661 10.166L28.8431 10.2763L28.919 10.3874L28.9938 10.4993L29.0675 10.612L29.14 10.7255L29.2114 10.8398L29.2817 10.9547L29.3508 11.0705L29.4188 11.187L29.4856 11.3042L29.5513 11.4221L29.6158 11.5407L29.6791 11.66L29.7412 11.78L29.802 11.9006L29.8617 12.0219L29.9202 12.1439L29.9775 12.2665L30.0335 12.3897L30.0883 12.5135L30.1418 12.6379L30.194 12.763L30.2451 12.8885L30.2948 13.0146L30.3433 13.1413L30.3905 13.2686L30.4364 13.3962L30.4811 13.5246L30.5244 13.6533L30.5665 13.7826L30.6072 13.9122L30.6467 14.0424L30.6848 14.173L30.7216 14.3041L30.757 14.4356L30.7912 14.5675L30.8239 14.6998L30.8554 14.8325L30.8855 14.9655L30.9142 15.099L30.9416 15.2326L30.9676 15.3668L30.9923 15.5012L31.0156 15.6359L31.0376 15.7709L31.0581 15.9062L31.0773 16.0418L31.0951 16.1775L31.1115 16.3136L31.1265 16.4498L31.1401 16.5863L31.1524 16.723L31.1632 16.8598L31.1727 16.9969L31.1807 17.1341L31.1873 17.2714L31.1926 17.4089L31.1964 17.5464L31.1988 17.6841L31.1998 17.8218L31.1994 17.9597L31.1976 18.0976L31.1943 18.2356L31.1896 18.3735L31.1836 18.5115L31.1761 18.6495L31.1672 18.7875L31.1568 18.9255L31.1451 19.0634L31.1319 19.2014L31.1173 19.3392L31.1012 19.4769L31.0838 19.6146L31.065 19.7521L31.0447 19.8895L31.023 20.0268L30.9999 20.1639L30.9753 20.3009L30.9494 20.4377L30.922 20.5743L30.8932 20.7107L30.863 20.8469L30.8314 20.9829L30.7984 21.1186L30.764 21.254L30.7281 21.3891L30.6909 21.524L30.6523 21.6586L30.6123 21.7928L30.5708 21.9268L30.528 22.0603L30.4838 22.1936L30.4382 22.3264L30.3912 22.4589L30.3428 22.591L30.2931 22.7226L30.242 22.8538L30.1895 22.9846L30.1356 23.1149L30.0804 23.2447L30.0239 23.3742L29.966 23.503L29.9067 23.6314L29.846 23.7592L29.7841 23.8865L29.7208 24.0133L29.6562 24.1394L29.5902 24.2651L29.523 24.3901L29.4544 24.5146L29.3845 24.6383L29.3133 24.7615L29.2408 24.8841L29.1671 25.0059L29.092 25.1272L29.0156 25.2477L28.938 25.3675L28.8592 25.4866L28.7791 25.605L28.6977 25.7227L28.6151 25.8397L28.5312 25.9558L28.4461 26.0713L28.3598 26.1859L28.2723 26.2998L28.1836 26.4127L28.0936 26.525L28.0025 26.6363L27.9102 26.7468L27.8167 26.8565L27.722 26.9653L27.6262 27.0732L27.5292 27.1802L27.4312 27.2864L27.332 27.3916L27.2316 27.4959L27.1301 27.5992L27.0275 27.7016L26.9238 27.803L26.8191 27.9035L26.7132 28.003L26.6064 28.1015L26.4984 28.199L26.3893 28.2954L26.2793 28.3909L26.1682 28.4854L26.0561 28.5787L25.943 28.671L25.8289 28.7622L25.7138 28.8524L25.5977 28.9414L25.4807 29.0294L25.3627 29.1162L25.2438 29.202L25.1239 29.2866L25.0031 29.3701L24.8814 29.4524L24.7588 29.5335L24.6353 29.6135L24.511 29.6924L24.3858 29.77L24.2597 29.8465L24.1328 29.9217L24.005 29.9958L23.8765 30.0686L23.7471 30.1401L23.617 30.2105L23.486 30.2795L23.3544 30.3474L23.2219 30.414L23.0887 30.4793L22.9548 30.5433L22.8201 30.6061L22.6848 30.6675L22.5488 30.7277L22.412 30.7865L22.2747 30.844L22.1367 30.9002L21.998 30.9551L21.8588 31.0086L21.7188 31.0609L21.5784 31.1117L21.4372 31.1612L21.2956 31.2093L21.1535 31.2561L21.0107 31.3014L20.8674 31.3454L20.7236 31.3881L20.5794 31.4293L20.4346 31.4691L20.2894 31.5076L20.1436 31.5446L19.9976 31.5802L19.851 31.6144L19.704 31.6471L19.5566 31.6785L19.4088 31.7084L19.2607 31.7369L19.1122 31.7639L18.9634 31.7894L18.8142 31.8136L18.6648 31.8363L18.5149 31.8575L18.3649 31.8773L18.2146 31.8956L18.064 31.9124L17.9132 31.9278L17.7621 31.9417L17.6109 31.9541L17.4595 31.965L17.3079 31.9745L17.156 31.9825L17.0041 31.989L16.8521 31.9939L16.6999 31.9974L16.5476 31.9994L16.3952 32L16.2428 31.999L16.0904 31.9966L15.9378 31.9926L15.7852 31.9871L15.6327 31.9802L15.4801 31.9718L15.3276 31.9618L15.1751 31.9503L15.0227 31.9374L14.8703 31.9229L14.718 31.907L14.5658 31.8895L14.4137 31.8706L14.2617 31.8501L14.11 31.8281L13.9583 31.8046L13.8068 31.7797L13.6556 31.7533L13.5044 31.7253L13.3536 31.6958L13.203 31.665L13.0527 31.6325L12.9025 31.5986L12.7528 31.5632L12.6032 31.5263L12.454 31.4879L12.3052 31.4481L12.1567 31.4068L12.0085 31.364L11.8607 31.3198L11.7133 31.274L11.5664 31.2268L11.4198 31.1782L11.2736 31.128L11.128 31.0764L10.9828 31.0234L10.838 30.969L10.6938 30.913L10.5501 30.8557L10.4069 30.7969L10.2643 30.7366L10.1222 30.675L9.98069 30.612L9.83972 30.5475L9.6994 30.4816L9.55972 30.4143L9.42068 30.3456L9.2822 30.2755L9.14445 30.2041L9.0074 30.1312L8.87092 30.057L8.73524 29.9814L8.60028 29.9045L8.46604 29.8262L8.33252 29.7465L8.1998 29.6655L8.0678 29.5831L7.9366 29.4995L7.80628 29.4145L7.67668 29.3282L7.54796 29.2406L7.42013 29.1517L7.29308 29.0615L7.16693 28.97L7.04167 28.8773L6.9173 28.7832L6.79385 28.6879L6.67133 28.5914L6.54973 28.4936L6.4291 28.3946L6.30943 28.2944L6.19073 28.193L6.07303 28.0903L5.95633 27.9864L5.84065 27.8814L5.72601 27.7752L5.61239 27.6678L5.49984 27.5593L5.38835 27.4495L5.27793 27.3387L5.16861 27.2268L5.0604 27.1137L4.95329 26.9995L4.84732 26.8842L4.74248 26.7678L4.6388 26.6504L4.53627 26.5319L4.43492 26.4123L4.33475 26.2918L4.23578 26.1701L4.13801 26.0474L4.04147 25.9238L3.94615 25.7991L3.85207 25.6734L3.75924 25.5468L3.66767 25.4192L3.57736 25.2906L3.48835 25.1612L3.40062 25.0308L3.3142 24.8994L3.22908 24.7673L3.14528 24.6342L3.06282 24.5002L2.9817 24.3654L2.90192 24.2296L2.82352 24.0931L2.74647 23.9558L2.6708 23.8176L2.59652 23.6786L2.52362 23.5388L2.45214 23.3983L2.38206 23.257L2.31341 23.115L2.24619 22.9722L2.1804 22.8288L2.11605 22.6846L2.05316 22.5398L1.99172 22.3942L1.93176 22.248L1.87327 22.1011L1.81626 21.9536L1.76075 21.8055L1.70672 21.6568L1.6542 21.5075L1.60319 21.3577L1.55369 21.2072L1.50572 21.0562L1.45928 20.9047L1.41437 20.7527L1.371 20.6002L1.32918 20.4471L1.28891 20.2937L1.2502 20.1398L1.21304 19.9854L1.17747 19.8306L1.14346 19.6753L1.11103 19.5197L1.08018 19.3637L1.05092 19.2074L1.02324 19.0506L0.997173 18.8936L0.972693 18.7362L0.949821 18.5786L0.928557 18.4206L0.908909 18.2623L0.890869 18.1038L0.874445 17.9451L0.859645 17.7862L0.846469 17.627L0.834917 17.4677L0.824997 17.3082L0.816709 17.1485L0.810053 16.9886L0.805029 16.8287L0.801645 16.6686L0.799909 16.5085L0.799805 16.3482ZM16.3023 4.61359L16.2658 1.53343L16.2312 1.53678L16.0721 1.5537L15.9135 1.57217L15.7549 1.5922L15.597 1.61372L15.4392 1.63681L15.2816 1.66144L15.1245 1.68758L14.9676 1.71529L14.8114 1.74443L14.655 1.77521L14.4997 1.80737L14.3442 1.84115L14.1895 1.87637L14.0349 1.91315L13.8811 1.95134L13.7276 1.99107L13.5746 2.03228L13.422 2.07498L13.2702 2.1191L13.1186 2.16475L12.9678 2.21182L12.8174 2.26038L12.6678 2.31028L12.5184 2.36176L12.3699 2.41462L12.222 2.46887L12.0746 2.52461L11.928 2.5817L11.7821 2.64018L11.6367 2.70015L11.492 2.76149L11.348 2.82422L11.2048 2.88828L11.0623 2.95373L10.9206 3.0205L10.7794 3.08874L10.6392 3.15822L10.4998 3.22906L10.3612 3.30124L10.2233 3.37475L10.0864 3.44952L9.95012 3.52567L9.81468 3.60314L9.68044 3.68172L9.54661 3.76183L9.41405 3.84301L9.28236 3.92545L9.15132 4.00924L9.02133 4.09426L8.89228 4.18051L8.76444 4.26778L8.63708 4.3566L8.511 4.44637L8.38588 4.53738L8.26164 4.62963L8.13852 4.72298L8.01652 4.81746L7.89524 4.91326L7.77533 5.00997L7.65628 5.10795L7.53836 5.207L7.42148 5.3072L7.3058 5.40836L7.19099 5.5108L7.07749 5.61415L6.96495 5.7187L6.85372 5.82412L6.7435 5.93069L6.63451 6.03822L6.52663 6.14681L6.4198 6.25652L6.31436 6.36698L6.21012 6.4784L6.1068 6.59112L6.00491 6.70456L5.90427 6.8188L5.80466 6.93424L5.7065 7.0504L5.60943 7.1676L5.51366 7.2856L5.41915 7.40456L5.32587 7.52432L5.23396 7.64488L5.14326 7.76632L5.0538 7.88872L4.96579 8.01168L4.87895 8.13568L4.79349 8.26032L4.70936 8.38576L4.62648 8.512L4.54501 8.63896L4.46488 8.76656L4.38608 8.89496L4.3087 9.024L4.23259 9.15384L4.15784 9.2844L4.08457 9.41544L4.01261 9.5472L3.94203 9.67968L3.87288 9.81272L3.80508 9.9464L3.73875 10.0806L3.6738 10.2154L3.61028 10.3507L3.54814 10.4867L3.48748 10.6231L3.42819 10.7602L3.37035 10.8977L3.31399 11.0356L3.25904 11.1741L3.20552 11.313L3.15348 11.4524L3.10288 11.5922L3.05378 11.7324L3.00609 11.8731L2.95988 12.0142L2.91516 12.1556L2.87191 12.2973L2.8301 12.4395L2.7898 12.5819L2.75098 12.7247L2.71363 12.8678L2.67776 13.0112L2.6434 13.1548L2.61052 13.2987L2.57912 13.4429L2.54923 13.5873L2.52083 13.7318L2.49392 13.8766L2.46851 14.0216L2.4446 14.1668L2.42219 14.3121L2.40128 14.4575L2.38187 14.6031L2.36396 14.7488L2.34755 14.8946L2.33264 15.0405L2.31924 15.1864L2.30734 15.3323L2.29694 15.4784L2.28804 15.6245L2.28064 15.7705L2.27475 15.9166L2.27035 16.0626L2.26745 16.2086L2.26604 16.3545L2.26614 16.5004L2.26772 16.6462L2.2708 16.7919L2.27537 16.9375L2.28143 17.083L2.28898 17.2283L2.298 17.3734L2.30852 17.5185L2.32051 17.6633L2.33398 17.8079L2.34892 17.9524L2.36533 18.0966L2.38321 18.2406L2.40256 18.3842L2.42336 18.5277L2.44564 18.6709L2.46935 18.8137L2.49452 18.9562L2.52114 19.0985L2.5492 19.2403L2.57869 19.3819L2.60962 19.523L2.64198 19.6638L2.67576 19.8042L2.71096 19.9442L2.74759 20.0838L2.7856 20.2229L2.82504 20.3616L2.86588 20.4998L2.9081 20.6376L2.95172 20.7749L2.9967 20.9116L3.04307 21.0478L3.09081 21.1835L3.13992 21.3187L3.19036 21.4533L3.2422 21.5874L3.29534 21.7208L3.34983 21.8537L3.40566 21.9859L3.4628 22.1175L3.52128 22.2486L3.58105 22.379L3.64213 22.5086L3.7045 22.6377L3.76816 22.766L3.8331 22.8937L3.89932 23.0206L3.96679 23.1469L4.03552 23.2724L4.1055 23.3971L4.17672 23.5211L4.24916 23.6444L4.32284 23.7668L4.3977 23.8885L4.47381 24.0094L4.55108 24.1294L4.62956 24.2486L4.70922 24.367L4.79003 24.4846L4.872 24.6013L4.95514 24.7171L5.0394 24.8321L5.12481 24.9462L5.21131 25.0593L5.29896 25.1715L5.38767 25.2828L5.47749 25.3932L5.56842 25.5027L5.66036 25.6112L5.75341 25.7187L5.84748 25.8253L5.94262 25.9309L6.03876 26.0354L6.13591 26.139L6.23408 26.2416L6.33324 26.3432L6.43342 26.4438L6.53454 26.5432L6.63665 26.6417L6.73968 26.739L6.84365 26.8354L6.94859 26.9307L7.05442 27.0249L7.1611 27.1179L7.26876 27.2099L7.37732 27.3008L7.4866 27.3906L7.59692 27.4793L7.70796 27.5667L7.81988 27.6531L7.93261 27.7384L8.0462 27.8225L8.16052 27.9054L8.27564 27.9871L8.39148 28.0677L8.5082 28.1471L8.62556 28.2253L8.7438 28.3023L8.86261 28.3782L8.9822 28.4527L9.10252 28.5262L9.2234 28.5983L9.34508 28.6693L9.46733 28.739L9.59029 28.8074L9.71381 28.8746L9.83805 28.9406L9.96276 29.0054L10.0881 29.0689L10.2141 29.131L10.3407 29.192L10.4677 29.2517L10.5953 29.3101L10.7234 29.3671L10.8521 29.423L10.9812 29.4774L11.1109 29.5307L11.241 29.5826L11.3716 29.6332L11.5026 29.6826L11.634 29.7306L11.7658 29.7772L11.8981 29.8226L12.0308 29.8666L12.1638 29.9094L12.2971 29.9507L12.4309 29.9908L12.5649 30.0295L12.6993 30.0669L12.834 30.103L12.969 30.1377L13.1043 30.171L13.2397 30.203L13.3756 30.2338L13.5116 30.263L13.6477 30.291L13.7842 30.3177L13.9208 30.343L14.0576 30.3669L14.1946 30.3894L14.3317 30.4106L14.469 30.4305L14.6064 30.449L14.7439 30.4662L14.8815 30.4819L15.0192 30.4963L15.1569 30.5094L15.2948 30.5211L15.4326 30.5315L15.5704 30.5405L15.7084 30.5482L15.8462 30.5544L15.984 30.5594L16.1219 30.563L16.2597 30.5651L16.3974 30.566L16.5351 30.5655L16.6727 30.5637L16.8101 30.5606L16.9475 30.556L17.0848 30.5502L17.2219 30.543L17.3588 30.5344L17.4956 30.5246L17.6322 30.5134L17.7686 30.5008L17.9048 30.4869L18.0408 30.4717L18.1764 30.4552L18.312 30.4374L18.4472 30.4182L18.5821 30.3977L18.7168 30.3759L18.8512 30.3528L18.9852 30.3284L19.1189 30.3027L19.2523 30.2758L19.3853 30.2474L19.518 30.2179L19.6502 30.187L19.7821 30.1549L19.9136 30.1215L20.0446 30.0868L20.1752 30.0509L20.3054 30.0137L20.4351 29.9752L20.5644 29.9355L20.6931 29.8946L20.8214 29.8524L20.9492 29.809L21.0763 29.7644L21.2031 29.7185L21.3292 29.6714L21.4548 29.6231L21.5799 29.5737L21.7043 29.523L21.8281 29.4711L21.9514 29.4181L22.074 29.3638L22.196 29.3085L22.3174 29.2519L22.4381 29.1942L22.5581 29.1354L22.6776 29.0753L22.7962 29.0142L22.9142 28.9519L23.0316 28.8885L23.148 28.824L23.2639 28.7584L23.3789 28.6918L23.4934 28.6239L23.6068 28.5551L23.7198 28.4851L23.8317 28.4142L23.9429 28.3421L24.0534 28.269L24.1631 28.1947L24.2717 28.1197L24.3796 28.0434L24.4868 27.9662L24.593 27.8881L24.6984 27.8088L24.8028 27.7287L24.9066 27.6474L25.0092 27.5654L25.111 27.4823L25.212 27.3982L25.312 27.3132L25.411 27.2274L25.5092 27.1405L25.6063 27.0528L25.7025 26.9642L25.7978 26.8746L25.892 26.7843L25.9853 26.693L26.0776 26.6008L26.1689 26.5078L26.2592 26.414L26.3484 26.3194L26.4366 26.2241L26.524 26.1276L26.61 26.0306L26.6952 25.9327L26.7792 25.8342L26.8623 25.7347L26.9442 25.6346L27.025 25.5338L27.1048 25.4321L27.1835 25.3298L27.2612 25.2267L27.3376 25.123L27.413 25.0186L27.4874 24.9134L27.5604 24.8078L27.6324 24.7013L27.7032 24.5943L27.773 24.4866L27.8417 24.3782L27.9091 24.2694L27.9753 24.1599L28.0405 24.0496L28.1044 23.9391L28.1672 23.8278L28.2288 23.716L28.2892 23.6038L28.3484 23.4909L28.4065 23.3774L28.4632 23.2639L28.5189 23.1494L28.5734 23.0346L28.6266 22.9194L28.6786 22.8037L28.7294 22.6875L28.7789 22.571L28.8273 22.4539L28.8744 22.3365L28.9203 22.219L28.9649 22.1006L29.0083 21.9822L29.0505 21.8632L29.0915 21.744L29.1312 21.6244L29.1695 21.5048L29.2068 21.3843L29.2426 21.264L29.2772 21.1433L29.3107 21.0224L29.3428 20.901L29.3736 20.7797L29.4033 20.6579L29.4316 20.5359L29.4588 20.4138L29.4846 20.2914L29.5091 20.1691L29.5324 20.0462L29.5544 19.9237L29.5751 19.8006L29.5945 19.6775L29.6127 19.5544L29.6296 19.431L29.6452 19.3078L29.6596 19.1841L29.6727 19.0608L29.6845 18.9371L29.695 18.8137L29.7043 18.6898L29.7123 18.5665L29.719 18.4427L29.7244 18.3189L29.7286 18.1954L29.7316 18.0721L29.7332 17.9483L29.7336 17.8248L29.7327 17.7014L29.7305 17.5782L29.7271 17.4549L29.7224 17.3321L29.7164 17.2088L29.7092 17.0861L29.7008 16.9634L29.6911 16.841L29.6801 16.7185L29.668 16.5965L29.6545 16.4744L29.6398 16.3527L29.6239 16.2311L29.6068 16.1099L29.5883 15.9886L29.5687 15.8679L29.5479 15.7476L29.5258 15.6272L29.5024 15.5072L29.478 15.3877L29.4522 15.2681L29.4254 15.1494L29.3972 15.0305L29.368 14.9124L29.3373 14.7942L29.3056 14.6768L29.2728 14.5596L29.2387 14.4426L29.2035 14.3264L29.1671 14.2106L29.1294 14.0948L29.0908 13.9799L29.0508 13.8651L29.0098 13.751L28.9676 13.6372L28.9243 13.5242L28.8797 13.4113L28.8341 13.299L28.7875 13.1875L28.7397 13.0765L28.6906 12.9656L28.6408 12.8558L28.5895 12.746L28.5373 12.6373L28.484 12.529L28.4296 12.421L28.3742 12.314L28.3176 12.2074L28.26 12.1014L28.2016 11.9963L28.1418 11.8915L28.0812 11.7876L28.0193 11.6842L27.9568 11.5818L27.8928 11.4796L27.8282 11.3784L27.7624 11.2777L27.6956 11.1778L27.628 11.0789L27.5592 10.9803L27.4896 10.8826L27.419 10.7857L27.3474 10.6896L27.2749 10.5941L27.2015 10.4995L27.1272 10.4056L27.0519 10.3126L26.9757 10.2203L26.8986 10.1288L26.8206 10.0382L26.7418 9.94832L26.6622 9.85936L26.5816 9.7712L26.5 9.68376L26.418 9.59752L26.3347 9.51176L26.2509 9.4272L26.1662 9.34328L26.0808 9.2604L25.9942 9.17816L25.9073 9.0972L25.8193 9.01688L25.7306 8.93752L25.6414 8.8592L25.5513 8.78176L25.4602 8.70504L25.3686 8.62944L25.2764 8.5548L25.1833 8.48112L25.0896 8.40832L24.9953 8.33672L24.9 8.26568L24.8044 8.196L24.708 8.1272L24.6109 8.05928L24.5134 7.99248L24.4148 7.92648L24.3163 7.86184L24.2166 7.79792L24.1166 7.73512L24.0158 7.67328L23.9146 7.61248L23.8128 7.5528L23.7107 7.49424L23.6076 7.4364L23.5044 7.37992L23.4004 7.32432L23.296 7.26984L23.1912 7.21648L23.0858 7.16408L22.98 7.11272L22.8737 7.06256L22.7669 7.01336L22.6599 6.96536L22.5523 6.91832L22.4408 6.87096L22.336 6.82768L22.227 6.78384L22.1181 6.74136L22.0084 6.69968L21.8986 6.65936L21.7884 6.62L21.6779 6.58184L21.5669 6.54464L21.4559 6.50872L21.3444 6.47384L21.2326 6.44008L21.1208 6.40752L21.0084 6.37597L20.8957 6.3455L20.7832 6.31628L20.6704 6.28817L20.5568 6.26109L20.4437 6.23526L20.33 6.21046L20.2164 6.18686L20.1023 6.16433L19.9884 6.14298L19.8741 6.12274L19.76 6.10368L19.6452 6.08568L19.5308 6.06887L19.4162 6.05318L19.3014 6.03861L19.1866 6.02518L19.0718 6.01291L18.9569 6.00176L18.842 5.99174L18.7269 5.98286L18.6118 5.9751L18.497 5.96849L18.3821 5.96301L18.2668 5.95865L18.1522 5.95543L18.0373 5.95334L17.9225 5.95238L17.8076 5.95254L17.7845 5.9528L17.8208 9.01056L17.886 9.01024L17.9699 9.01072L18.0538 9.012L18.1378 9.01416L18.2219 9.01712L18.306 9.02096L18.39 9.0256L18.4742 9.03104L18.5584 9.03736L18.6425 9.04448L18.7267 9.05248L18.8108 9.06128L18.8949 9.07096L18.979 9.08144L19.063 9.09272L19.147 9.10496L19.2309 9.11792L19.3148 9.13176L19.3986 9.14648L19.4823 9.162L19.5659 9.1784L19.6494 9.1956L19.7328 9.2136L19.8161 9.23248L19.8992 9.25224L19.9823 9.2728L20.0651 9.29416L20.1478 9.3164L20.2304 9.33944L20.3128 9.36336L20.395 9.38808L20.477 9.4136L20.5588 9.44L20.6404 9.4672L20.7218 9.49528L20.8029 9.52416L20.8839 9.55384L20.9645 9.58432L21.045 9.61568L21.1252 9.64784L21.2051 9.6808L21.2847 9.71464L21.364 9.7492L21.4431 9.78464L21.5218 9.8208L21.6002 9.85784L21.6784 9.89568L21.7561 9.93432L21.8336 9.97376L21.9107 10.014L21.9874 10.055L22.0638 10.0968L22.1398 10.1394L22.2154 10.1827L22.2907 10.2269L22.3656 10.2718L22.44 10.3175L22.514 10.364L22.5876 10.4113L22.6608 10.4593L22.7335 10.508L22.8058 10.5575L22.8776 10.6078L22.949 10.6588L23.0199 10.7106L23.0903 10.7631L23.1603 10.8163L23.2296 10.8703L23.2986 10.925L23.367 10.9804L23.4349 11.0366L23.5023 11.0934L23.5692 11.151L23.6355 11.2092L23.7012 11.2682L23.7664 11.3278L23.831 11.3882L23.8951 11.4492L23.9585 11.5109L24.0214 11.5733L24.0837 11.6363L24.1454 11.7001L24.2065 11.7644L24.2669 11.8294L24.3268 11.8951L24.386 11.9614L24.4445 12.0283L24.5024 12.0959L24.5597 12.1641L24.6164 12.2329L24.6723 12.3023L24.7276 12.3723L24.7821 12.443L24.836 12.5142L24.8892 12.586L24.9417 12.6583L24.9936 12.7313L25.0446 12.8048L25.095 12.8789L25.1446 12.9535L25.1935 13.0286L25.2416 13.1044L25.2891 13.1806L25.3358 13.2574L25.3817 13.3346L25.4268 13.4125L25.4712 13.4907L25.5148 13.5695L25.5576 13.6488L25.5997 13.7286L25.641 13.8088L25.6814 13.8895L25.7211 13.9707L25.76 14.0523L25.798 14.1343L25.8352 14.2169L25.8716 14.2998L25.9072 14.3831L25.9419 14.4669L25.9758 14.551L26.0088 14.6356L26.041 14.7205L26.0724 14.8058L26.1028 14.8915L26.1325 14.9776L26.1613 15.064L26.1892 15.1508L26.2162 15.2378L26.2424 15.3253L26.2676 15.413L26.292 15.5011L26.3155 15.5895L26.3381 15.6782L26.3598 15.7671L26.3806 15.8563L26.4005 15.9458L26.4195 16.0356L26.4376 16.1256L26.4547 16.2158L26.4709 16.3064L26.4863 16.3971L26.5007 16.488L26.5141 16.5792L26.5267 16.6705L26.5383 16.762L26.549 16.8538L26.5587 16.9457L26.5675 17.0377L26.5754 17.1299L26.5823 17.2222L26.5883 17.3147L26.5932 17.4073L26.5973 17.5L26.6004 17.5929L26.6026 17.6858L26.6038 17.7788L26.604 17.8719L26.6033 17.965L26.6016 18.0582L26.599 18.1515L26.5954 18.2449L26.5908 18.3382L26.5853 18.4315L26.5788 18.525L26.5714 18.6183L26.5629 18.7117L26.5536 18.805L26.5432 18.8983L26.5319 18.9917L26.5196 19.0849L26.5063 19.1781L26.492 19.2712L26.4768 19.3642L26.4607 19.4572L26.4435 19.5501L26.4254 19.6429L26.4063 19.7355L26.3862 19.8281L26.3652 19.9205L26.3432 20.0127L26.3203 20.1048L26.2964 20.1968L26.2715 20.2886L26.2456 20.3802L26.2188 20.4715L26.1911 20.5627L26.1624 20.6538L26.1326 20.7446L26.102 20.835L26.0704 20.9254L26.0379 21.0154L26.0044 21.1052L25.9699 21.1947L25.9345 21.284L25.8982 21.373L25.8609 21.4617L25.8227 21.55L25.7836 21.6381L25.7435 21.7258L25.7024 21.8132L25.6605 21.9002L25.6176 21.987L25.5738 22.0733L25.5291 22.1593L25.4835 22.2448L25.4369 22.33L25.3895 22.4148L25.3412 22.4992L25.2919 22.5831L25.2417 22.6667L25.1907 22.7498L25.1388 22.8325L25.0859 22.9146L25.0322 22.9964L24.9776 23.0776L24.9221 23.1584L24.8658 23.2387L24.8086 23.3185L24.7505 23.3978L24.6916 23.4766L24.6319 23.5548L24.5712 23.6325L24.5098 23.7096L24.4475 23.7862L24.3844 23.8622L24.3204 23.9378L24.2556 24.0126L24.19 24.087L24.1236 24.1606L24.0564 24.2338L23.9884 24.3062L23.9197 24.3782L23.8501 24.4494L23.7798 24.52L23.7086 24.5899L23.6368 24.6593L23.564 24.7279L23.4907 24.7958L23.4165 24.8632L23.3416 24.9298L23.266 24.9957L23.1896 25.061L23.1125 25.1254L23.0347 25.1893L22.9562 25.2523L22.8769 25.3146L22.797 25.3762L22.7164 25.4371L22.6352 25.4972L22.5532 25.5566L22.4706 25.6152L22.3873 25.673L22.3034 25.73L22.2188 25.7862L22.1336 25.8417L22.0477 25.8963L21.9613 25.9502L21.8742 26.0031L21.7866 26.0554L21.6983 26.1067L21.6095 26.1572L21.52 26.2069L21.43 26.2558L21.3395 26.3038L21.2484 26.3509L21.1567 26.3971L21.0645 26.4425L20.9718 26.487L20.8785 26.5306L20.7848 26.5734L20.6905 26.6152L20.5958 26.6562L20.5005 26.6962L20.4048 26.7353L20.3087 26.7735L20.212 26.8108L20.115 26.8472L20.0175 26.8826L19.9196 26.9171L19.8212 26.9506L19.7224 26.9833L19.6232 27.0149L19.5237 27.0456L19.4238 27.0754L19.3235 27.1041L19.2228 27.1319L19.1218 27.1587L19.0204 27.1846L18.9188 27.2094L18.8168 27.2334L18.7144 27.2562L18.6118 27.2782L18.5088 27.299L18.4056 27.319L18.3022 27.3379L18.1984 27.3558L18.0944 27.3727L17.9903 27.3886L17.8858 27.4034L17.7811 27.4173L17.6762 27.4302L17.5712 27.4419L17.4659 27.4527L17.3604 27.4625L17.2548 27.4712L17.1491 27.4789L17.0432 27.4855L16.9371 27.4911L16.8309 27.4957L16.7246 27.4992L16.6182 27.5017L16.5117 27.5031L16.4051 27.5035L16.2984 27.5029L16.1918 27.5011L16.085 27.4984L15.9782 27.4946L15.8714 27.4897L15.7645 27.4838L15.6577 27.4768L15.5508 27.4688L15.444 27.4597L15.3372 27.4495L15.2304 27.4383L15.1237 27.4261L15.0171 27.4128L14.9104 27.3984L14.804 27.383L14.6976 27.3665L14.5912 27.349L14.485 27.3303L14.3789 27.3107L14.273 27.29L14.1672 27.2682L14.0616 27.2454L13.9561 27.2215L13.8508 27.1966L13.7457 27.1706L13.6408 27.1435L13.5361 27.1154L13.4316 27.0863L13.3275 27.0562L13.2235 27.025L13.1197 26.9927L13.0163 26.9594L12.9132 26.925L12.8102 26.8897L12.7076 26.8533L12.6054 26.8158L12.5034 26.7774L12.4018 26.7378L12.3005 26.6974L12.1996 26.6558L12.099 26.6132L11.9988 26.5697L11.8991 26.525L11.7996 26.4794L11.7007 26.4329L11.6021 26.3853L11.504 26.3366L11.4062 26.287L11.309 26.2365L11.2122 26.1849L11.1159 26.1323L11.02 26.0788L10.9247 26.0242L10.8298 25.9688L10.7355 25.9123L10.6416 25.8549L10.5484 25.7966L10.4556 25.7372L10.3635 25.677L10.2719 25.6157L10.1808 25.5535L10.0904 25.4905L10.0005 25.4265L9.91125 25.3615L9.8226 25.2957L9.73452 25.2289L9.64717 25.1612L9.56044 25.0926L9.47436 25.0231L9.38892 24.9528L9.30412 24.8815L9.22005 24.8094L9.13668 24.7364L9.05397 24.6626L8.97196 24.5878L8.89077 24.5123L8.8102 24.4359L8.73037 24.3586L8.65132 24.2806L8.57309 24.2017L8.49556 24.1219L8.41876 24.0414L8.34277 23.9601L8.26764 23.878L8.19324 23.795L8.11965 23.7114L8.04692 23.6269L7.97492 23.5417L7.90388 23.4557L7.83356 23.3689L7.7642 23.2814L7.69564 23.1932L7.62796 23.1042L7.56116 23.0146L7.49516 22.9242L7.43012 22.8331L7.36604 22.7414L7.30276 22.6489L7.24045 22.5558L7.17905 22.462L7.11858 22.3675L7.05904 22.2724L7.00044 22.1766L6.9428 22.0802L6.88611 21.9833L6.83038 21.8856L6.77562 21.7874L6.72184 21.6886L6.66905 21.5892L6.61724 21.4892L6.56644 21.3886L6.51664 21.2875L6.46784 21.1858L6.42007 21.0837L6.37332 20.9809L6.32759 20.8777L6.2829 20.7739L6.23925 20.6696L6.19664 20.5649L6.1551 20.4597L6.1146 20.3539L6.07517 20.2478L6.03681 20.1412L5.99952 20.0341L5.96331 19.9266L5.92818 19.8187L5.89414 19.7104L5.8612 19.6018L5.82935 19.4926L5.7986 19.3832L5.76896 19.2734L5.74045 19.1631L5.71304 19.0526L5.68674 18.9418L5.66158 18.8306L5.63754 18.719L5.61464 18.6073L5.59287 18.4952L5.57224 18.3828L5.55275 18.2702L5.53441 18.1573L5.51722 18.0442L5.50118 17.9308L5.4863 17.8172L5.47258 17.7034L5.46002 17.5894L5.44862 17.4752L5.43839 17.3608L5.42933 17.2462L5.42144 17.1316L5.41472 17.0167L5.40919 16.9018L5.40483 16.7867L5.40165 16.6715L5.39965 16.5562L5.39884 16.4408L5.39921 16.3254L5.40076 16.2098L5.40352 16.0943L5.40744 15.9787L5.41257 15.863L5.41889 15.7474L5.4264 15.6318L5.4351 15.5162L5.44499 15.4005L5.45608 15.285L5.46836 15.1694L5.48184 15.0539L5.49651 14.9385L5.51237 14.8231L5.52943 14.7078L5.54769 14.5927L5.56712 14.4777L5.58776 14.3628L5.6096 14.248L5.63262 14.1334L5.65683 14.019L5.68224 13.9046L5.70883 13.7906L5.7366 13.6766L5.76556 13.563L5.79572 13.4495L5.82704 13.3362L5.85956 13.2233L5.89325 13.1106L5.92812 12.9981L5.96416 12.8858L6.00138 12.774L6.03976 12.6624L6.07932 12.5511L6.12004 12.4402L6.16192 12.3295L6.20496 12.2193L6.24916 12.1094L6.29452 11.9998L6.34102 11.8907L6.38867 11.7819L6.43747 11.6736L6.4874 11.5657L6.53847 11.4582L6.59067 11.3511L6.644 11.2446L6.69846 11.1384L6.75404 11.0328L6.81072 10.9276L6.86853 10.823L6.92744 10.7188L6.98745 10.6151L7.04856 10.5121L7.11077 10.4095L7.17406 10.3075L7.23844 10.2061L7.30388 10.1052L7.37044 10.005L7.43796 9.90528L7.50668 9.80624L7.57636 9.70776L7.64708 9.60992L7.71892 9.5128L7.79172 9.41624L7.86564 9.3204L7.94053 9.2252L8.01644 9.13072L8.09333 9.03696L8.17125 8.94384L8.2502 8.85144L8.33012 8.75976L8.411 8.66888L8.49292 8.57872L8.57573 8.48928L8.65956 8.40064L8.74437 8.31272L8.83004 8.22568L8.91669 8.13936L9.00428 8.05384L9.09284 7.9692L9.18228 7.88528L9.2726 7.80232L9.36388 7.72008L9.45605 7.6388L9.549 7.55832L9.64292 7.47872L9.73773 7.4L9.83332 7.32216L9.9298 7.2452L10.0272 7.1692L10.1253 7.09408L10.2243 7.01992L10.3241 6.94664L10.4247 6.87432L10.526 6.80296L10.6283 6.73256L10.7312 6.66312L10.8349 6.59472L10.9395 6.5272L11.0447 6.46072L11.1507 6.39523L11.2574 6.33074L11.3648 6.26727L11.4729 6.20482L11.5818 6.1434L11.6913 6.08301L11.8015 6.02367L11.9124 5.96538L12.0239 5.90815L12.136 5.85198L12.2488 5.79689L12.3623 5.74287L12.4764 5.68994L12.591 5.6381L12.7063 5.58736L12.8221 5.53773L12.9385 5.48921L13.0555 5.4418L13.1729 5.39552L13.291 5.35037L13.4096 5.30635L13.5287 5.26348L13.6483 5.22175L13.7684 5.18118L13.8889 5.14176L14.0099 5.10351L14.1314 5.06642L14.2533 5.03051L14.3757 4.99578L14.4984 4.96223L14.6216 4.92987L14.7452 4.8987L14.8692 4.86874L14.9936 4.83998L15.1183 4.81241L15.2433 4.78606L15.3687 4.76092L15.4944 4.73701L15.6204 4.71431L15.7468 4.69284L15.8734 4.6726L16.0003 4.65359L16.1274 4.63582L16.2548 4.61929L16.3023 4.61359ZM16.356 9.14888L16.3194 6.05751L16.215 6.0721L16.1028 6.08893L15.9904 6.10687L15.8788 6.12584L15.7671 6.14597L15.6559 6.16713L15.5449 6.18938L15.4344 6.21266L15.324 6.23706L15.214 6.26253L15.1042 6.28905L14.9949 6.31662L14.8857 6.34529L14.7808 6.37392L14.6691 6.40568L14.5612 6.43744L14.4537 6.47024L14.3468 6.504L14.2402 6.53888L14.134 6.5748L14.0282 6.61168L13.923 6.64952L13.8182 6.68848L13.7139 6.72832L13.61 6.76928L13.5068 6.81112L13.4037 6.85408L13.3014 6.89792L13.1996 6.94272L13.0984 6.98848L12.9976 7.03528L12.8972 7.08304L12.7978 7.1316L12.6985 7.18128L12.6003 7.23176L12.5022 7.28336L12.4051 7.3356L12.3081 7.38912L12.2121 7.4432L12.1168 7.49832L12.0219 7.5544L11.9277 7.61128L11.834 7.6692L11.7413 7.72776L11.649 7.78736L11.5576 7.84776L11.4668 7.90896L11.3766 7.97112L11.287 8.03416L11.1984 8.09776L11.1104 8.16248L11.023 8.22792L10.9364 8.29416L10.8507 8.36112L10.7655 8.42904L10.6812 8.4976L10.5977 8.56696L10.5148 8.63728L10.433 8.70808L10.3517 8.77984L10.2712 8.85232L10.1916 8.92544L10.1129 8.99928L10.0348 9.074L9.95772 9.1492L9.8814 9.2252L9.8058 9.302L9.73116 9.37936L9.65732 9.45752L9.58436 9.53624L9.51229 9.6156L9.441 9.69568L9.37052 9.77648L9.30124 9.85768L9.2326 9.93968L9.16484 10.0223L9.09804 10.1054L9.0322 10.1891L8.96708 10.2736L8.903 10.3585L8.8398 10.444L8.77757 10.5301L8.71621 10.6167L8.65588 10.7038L8.59644 10.7914L8.53788 10.8797L8.48029 10.9684L8.42372 11.0575L8.36812 11.1472L8.31341 11.2375L8.25964 11.3281L8.20692 11.4192L8.15509 11.5108L8.10436 11.6026L8.05452 11.6951L8.00557 11.7881L7.95781 11.8812L7.91092 11.975L7.86509 12.069L7.82021 12.1634L7.77636 12.2582L7.73348 12.3534L7.69165 12.4489L7.65076 12.5447L7.611 12.6409L7.5722 12.7374L7.53436 12.8342L7.49756 12.9314L7.46188 13.0287L7.42708 13.1265L7.39348 13.2243L7.36076 13.3226L7.32916 13.421L7.29852 13.5198L7.269 13.6186L7.24045 13.7178L7.21301 13.817L7.18653 13.9166L7.16112 14.0163L7.13676 14.1162L7.11345 14.2163L7.09117 14.3165L7.06993 14.4169L7.04977 14.5174L7.03062 14.6179L7.01252 14.7187L6.99549 14.8195L6.97948 14.9205L6.96455 15.0214L6.95064 15.1225L6.93779 15.2236L6.92598 15.3248L6.91522 15.426L6.90551 15.5273L6.89684 15.6286L6.88923 15.7298L6.88265 15.8311L6.87712 15.9324L6.87263 16.0336L6.86919 16.1348L6.86678 16.2359L6.86542 16.337L6.86509 16.4382L6.86581 16.5391L6.86756 16.64L6.87034 16.7408L6.87415 16.8414L6.879 16.9421L6.88487 17.0426L6.89177 17.1428L6.89969 17.243L6.90864 17.343L6.91861 17.4429L6.92959 17.5426L6.94158 17.6421L6.9546 17.7414L6.96861 17.8405L6.98364 17.9394L6.99967 18.038L7.0167 18.1365L7.03473 18.2347L7.05375 18.3326L7.07376 18.4303L7.09476 18.5277L7.11675 18.6249L7.13969 18.7216L7.16364 18.8182L7.18856 18.9144L7.21444 19.0103L7.24124 19.1058L7.26908 19.2011L7.29781 19.296L7.32757 19.3906L7.3582 19.4848L7.3898 19.5786L7.42236 19.6719L7.4558 19.765L7.4902 19.8576L7.52556 19.9498L7.56181 20.0416L7.59893 20.133L7.637 20.2239L7.67596 20.3144L7.71588 20.4044L7.7566 20.494L7.79829 20.583L7.84084 20.6717L7.8842 20.7598L7.92852 20.8474L7.97365 20.9346L8.01965 21.0213L8.06652 21.1074L8.1142 21.193L8.16277 21.278L8.21212 21.3625L8.26236 21.4464L8.31341 21.5298L8.36525 21.6126L8.41788 21.6949L8.47141 21.7766L8.52556 21.8576L8.58068 21.9382L8.63645 22.018L8.69308 22.0973L8.75044 22.1759L8.8086 22.2539L8.86749 22.3313L8.92717 22.4081L8.98748 22.4842L9.0486 22.5596L9.11045 22.6344L9.17301 22.7086L9.23629 22.7819L9.30028 22.8548L9.36492 22.9268L9.43029 22.9982L9.49628 23.0689L9.56301 23.1389L9.63037 23.2082L9.69844 23.2767L9.76709 23.3446L9.83644 23.4117L9.90644 23.4781L9.97692 23.5437L10.0482 23.6086L10.12 23.6727L10.1924 23.7361L10.2654 23.7987L10.339 23.8606L10.4132 23.9217L10.4879 23.9819L10.5632 24.0414L10.639 24.1002L10.7154 24.1582L10.7924 24.2153L10.8697 24.2716L10.9476 24.3271L11.0261 24.3818L11.1051 24.4358L11.1846 24.4889L11.2645 24.5411L11.3449 24.5926L11.4258 24.6432L11.5071 24.693L11.5888 24.7419L11.6711 24.79L11.7536 24.8372L11.8368 24.8836L11.9201 24.9291L12.004 24.9738L12.0883 25.0177L12.1728 25.0606L12.2579 25.1027L12.3433 25.1439L12.429 25.1843L12.515 25.2238L12.6015 25.2624L12.6881 25.3001L12.7752 25.3369L12.8625 25.3729L12.9502 25.4079L13.038 25.4421L13.1263 25.4754L13.2148 25.5078L13.3035 25.5393L13.3924 25.5698L13.4817 25.5996L13.5712 25.6283L13.6608 25.6562L13.7508 25.6832L13.8408 25.7093L13.9311 25.7345L14.0216 25.7587L14.1122 25.7822L14.203 25.8046L14.294 25.8261L14.3851 25.8467L14.4764 25.8665L14.5677 25.8853L14.6592 25.9031L14.7508 25.9201L14.8424 25.9362L14.9343 25.9514L15.0261 25.9655L15.118 25.9789L15.21 25.9913L15.302 26.0028L15.3941 26.0134L15.4862 26.023L15.5784 26.0318L15.6705 26.0396L15.7627 26.0465L15.8548 26.0526L15.9469 26.0576L16.039 26.0618L16.1312 26.0651L16.2232 26.0675L16.3151 26.069L16.407 26.0695L16.4988 26.0692L16.5906 26.0679L16.6823 26.0658L16.7738 26.0628L16.8653 26.0589L16.9566 26.054L17.0478 26.0483L17.1388 26.0417L17.2298 26.0342L17.3205 26.0258L17.4112 26.0165L17.5016 26.0063L17.5919 25.9953L17.682 25.9834L17.7718 25.9706L17.8615 25.957L17.9509 25.9424L18.04 25.927L18.1291 25.9107L18.2178 25.8936L18.3063 25.8757L18.3946 25.8568L18.4824 25.8371L18.5701 25.8166L18.6575 25.7952L18.7446 25.773L18.8314 25.75L18.9179 25.7261L19.004 25.7014L19.0899 25.6758L19.1753 25.6495L19.2604 25.6223L19.3453 25.5943L19.4297 25.5655L19.5138 25.5359L19.5975 25.5055L19.6808 25.4743L19.7636 25.4423L19.8461 25.4095L19.9283 25.3759L20.01 25.3416L20.0912 25.3065L20.172 25.2706L20.2524 25.234L20.3324 25.1966L20.4119 25.1584L20.4908 25.1196L20.5695 25.0798L20.6475 25.0395L20.7252 24.9983L20.8021 24.9566L20.8788 24.914L20.9549 24.8707L21.0304 24.8267L21.1056 24.782L21.1801 24.7366L21.254 24.6906L21.3276 24.6438L21.4004 24.5964L21.4728 24.5482L21.5448 24.4994L21.616 24.4499L21.6865 24.3999L21.7568 24.349L21.8262 24.2978L21.8952 24.2457L21.9636 24.193L22.0311 24.1398L22.0984 24.0858L22.1649 24.0312L22.2306 23.9762L22.296 23.9202L22.3606 23.864L22.4245 23.8072L22.488 23.7495L22.5506 23.6916L22.6127 23.633L22.6741 23.5738L22.7348 23.5141L22.7948 23.4538L22.8543 23.393L22.913 23.3316L22.9709 23.2698L23.0283 23.2074L23.085 23.1445L23.1408 23.0812L23.1962 23.0172L23.2507 22.9529L23.3044 22.8881L23.3576 22.8226L23.41 22.757L23.4616 22.6907L23.5126 22.6241L23.5628 22.5569L23.6123 22.4894L23.6609 22.4215L23.709 22.353L23.7562 22.2842L23.8027 22.215L23.8485 22.1454L23.8933 22.0755L23.9376 22.0051L23.9811 21.9343L24.0238 21.8633L24.0656 21.7918L24.1069 21.7199L24.1472 21.648L24.1868 21.5754L24.2256 21.5026L24.2636 21.4296L24.3009 21.356L24.3372 21.2826L24.373 21.2083L24.4077 21.1343L24.442 21.0595L24.4751 20.9849L24.5076 20.9096L24.5393 20.8344L24.5701 20.7589L24.6002 20.683L24.6295 20.607L24.6578 20.5309L24.6856 20.4543L24.7123 20.3777L24.7383 20.3009L24.7635 20.2238L24.7879 20.1466L24.8115 20.0692L24.8342 19.9918L24.8561 19.914L24.8772 19.8362L24.8975 19.7582L24.9169 19.6802L24.9356 19.6021L24.9534 19.5236L24.9704 19.4452L24.9866 19.3667L25.0019 19.2882L25.0164 19.2096L25.0301 19.1306L25.043 19.052L25.0551 18.9731L25.0663 18.8942L25.0767 18.8154L25.0863 18.7364L25.0951 18.6572L25.103 18.5786L25.1102 18.4993L25.1165 18.4203L25.122 18.3415L25.1267 18.2625L25.1305 18.1836L25.1336 18.1048L25.1358 18.0258L25.1372 17.9472L25.1378 17.8683L25.1376 17.7897L25.1366 17.711L25.1348 17.6327L25.1321 17.5542L25.1287 17.4759L25.1244 17.3979L25.1194 17.3197L25.1136 17.2417L25.107 17.1641L25.0996 17.0862L25.0913 17.0089L25.0823 16.9314L25.0725 16.8542L25.062 16.7772L25.0506 16.7002L25.0384 16.6236L25.0256 16.5472L25.0119 16.471L24.9974 16.395L24.9821 16.3189L24.9661 16.2434L24.9494 16.1681L24.9319 16.0929L24.9136 16.0178L24.8946 15.9434L24.8748 15.8688L24.8543 15.7948L24.833 15.7209L24.811 15.6474L24.7883 15.5741L24.7648 15.501L24.7406 15.4285L24.7157 15.3562L24.69 15.2839L24.6637 15.2123L24.6366 15.1409L24.6088 15.0699L24.5804 14.9991L24.5512 14.9286L24.5213 14.8588L24.4907 14.789L24.4595 14.7198L24.4276 14.651L24.3949 14.5824L24.3616 14.5142L24.3277 14.4466L24.293 14.3791L24.2578 14.3123L24.2219 14.2459L24.1852 14.1796L24.1481 14.1141L24.1102 14.0488L24.0717 13.9841L24.0325 13.9196L23.9929 13.8558L23.9524 13.7922L23.9116 13.7294L23.87 13.6669L23.8278 13.6049L23.7849 13.5432L23.7416 13.4822L23.6977 13.4217L23.6531 13.3614L23.608 13.3019L23.5623 13.2428L23.5162 13.1843L23.4693 13.1262L23.422 13.0686L23.374 13.0116L23.3256 12.955L23.2768 12.8992L23.2272 12.8437L23.1772 12.7889L23.1267 12.7345L23.0758 12.6809L23.0241 12.6275L22.9722 12.575L22.9196 12.5227L22.8666 12.4713L22.8132 12.4204L22.7593 12.37L22.7048 12.3202L22.65 12.271L22.5947 12.2225L22.5388 12.1743L22.4828 12.1271L22.4261 12.0802L22.3691 12.034L22.3116 11.9885L22.2537 11.9434L22.1955 11.899L22.137 11.8554L22.0778 11.8122L22.0182 11.7696L21.9586 11.7279L21.8982 11.6866L21.8379 11.6462L21.777 11.6062L21.7157 11.5668L21.654 11.5281L21.5923 11.4902L21.5299 11.4527L21.4674 11.4161L21.4044 11.3799L21.3414 11.3446L21.2779 11.3099L21.214 11.2758L21.15 11.2423L21.0857 11.2097L21.0211 11.1775L20.9561 11.1461L20.8911 11.1154L20.8259 11.0854L20.76 11.0558L20.6944 11.0272L20.6283 10.9992L20.5619 10.9718L20.4954 10.9451L20.4288 10.9192L20.362 10.8939L20.2947 10.8692L20.2276 10.8454L20.16 10.8221L20.0924 10.7995L20.0248 10.7777L19.9568 10.7566L19.8889 10.7361L19.8204 10.7162L19.7522 10.6972L19.6838 10.6788L19.6152 10.6611L19.5466 10.6441L19.4776 10.6278L19.4088 10.6122L19.34 10.5973L19.2709 10.583L19.2016 10.5694L19.1328 10.5567L19.0634 10.5446L18.9942 10.5331L18.9247 10.5223L18.8556 10.5123L18.7859 10.5029L18.7167 10.4943L18.6472 10.4863L18.5778 10.479L18.5084 10.4725L18.4389 10.4666L18.3697 10.4614L18.3001 10.4569L18.2308 10.453L18.1617 10.4499L18.0921 10.4474L18.0231 10.4457L17.954 10.4446L17.8849 10.4442L17.8377 10.4444L17.8735 13.4647L17.8948 13.4648L17.9345 13.4654L17.9743 13.4663L18.0141 13.4676L18.054 13.4694L18.0939 13.4716L18.1338 13.4742L18.1738 13.4772L18.2138 13.4806L18.2539 13.4845L18.294 13.4887L18.334 13.4934L18.3742 13.4985L18.4143 13.504L18.4544 13.5099L18.4946 13.5163L18.5348 13.5231L18.5748 13.5303L18.615 13.538L18.6551 13.546L18.6952 13.5546L18.7352 13.5634L18.7753 13.5728L18.8152 13.5826L18.8552 13.5927L18.8952 13.6034L18.935 13.6144L18.9748 13.6258L19.0146 13.6378L19.0543 13.6501L19.0939 13.6629L19.1335 13.6761L19.1729 13.6897L19.2124 13.7037L19.2516 13.7182L19.2908 13.733L19.33 13.7483L19.369 13.7641L19.4079 13.7802L19.4467 13.7968L19.4854 13.8138L19.524 13.8313L19.5624 13.8491L19.6008 13.8674L19.6389 13.8861L19.677 13.9052L19.7148 13.9248L19.7526 13.9447L19.7902 13.9651L19.8276 13.9859L19.8649 14.0071L19.902 14.0287L19.9389 14.0507L19.9757 14.0732L20.0123 14.0961L20.0487 14.1194L20.0848 14.143L20.1208 14.167L20.1567 14.1916L20.1923 14.2165L20.2276 14.2418L20.2628 14.2674L20.2978 14.2935L20.3325 14.32L20.367 14.3469L20.4013 14.3742L20.4353 14.4018L20.4691 14.4298L20.5027 14.4583L20.536 14.4871L20.569 14.5163L20.6018 14.5459L20.6343 14.5759L20.6665 14.6062L20.6984 14.637L20.7302 14.6681L20.7616 14.6995L20.7927 14.7314L20.8236 14.7635L20.854 14.7961L20.8843 14.829L20.9142 14.8623L20.9439 14.8959L20.9732 14.9299L21.0021 14.9642L21.0308 14.9989L21.0592 15.0339L21.0872 15.0693L21.1148 15.105L21.1422 15.141L21.1692 15.1774L21.1959 15.2141L21.2221 15.251L21.2481 15.2884L21.2737 15.3261L21.2989 15.3641L21.3238 15.4023L21.3484 15.441L21.3724 15.4798L21.3962 15.519L21.4196 15.5586L21.4425 15.5983L21.4652 15.6384L21.4873 15.6788L21.5092 15.7194L21.5306 15.7604L21.5516 15.8016L21.5722 15.843L21.5924 15.8848L21.6121 15.9269L21.6315 15.9691L21.6504 16.0117L21.669 16.0545L21.6871 16.0975L21.7048 16.1408L21.722 16.1843L21.7388 16.2281L21.7552 16.2721L21.7711 16.3163L21.7865 16.3608L21.8016 16.4054L21.8161 16.4503L21.8302 16.4954L21.8439 16.5407L21.8571 16.5862L21.8698 16.632L21.8821 16.6778L21.894 16.7239L21.9052 16.7702L21.9161 16.8167L21.9265 16.8633L21.9364 16.9102L21.9459 16.9571L21.9548 17.0042L21.9632 17.0515L21.9712 17.099L21.9788 17.1465L21.9857 17.1942L21.9922 17.2421L21.9982 17.2901L22.0037 17.3382L22.0088 17.3865L22.0132 17.4348L22.0172 17.4833L22.0208 17.5319L22.0237 17.5806L22.0262 17.6294L22.0281 17.6782L22.0296 17.7272L22.0305 17.7762L22.031 17.8254L22.0308 17.8745L22.0303 17.9238L22.0292 17.9731L22.0275 18.0225L22.0253 18.0719L22.0226 18.1214L22.0194 18.1709L22.0156 18.2204L22.0113 18.27L22.0065 18.3196L22.0012 18.3692L21.9953 18.4188L21.9889 18.4685L21.982 18.5182L21.9746 18.5678L21.9666 18.6174L21.958 18.667L21.949 18.7166L21.9394 18.7662L21.9293 18.8157L21.9186 18.8652L21.9074 18.9146L21.8957 18.9641L21.8834 19.0134L21.8706 19.0628L21.8573 19.112L21.8434 19.1612L21.829 19.2102L21.814 19.2593L21.7986 19.3082L21.7826 19.357L21.766 19.4058L21.749 19.4545L21.7313 19.503L21.7132 19.5514L21.6945 19.5997L21.6753 19.6479L21.6556 19.6959L21.6353 19.7438L21.6145 19.7916L21.5932 19.8393L21.5713 19.8867L21.5489 19.934L21.526 19.9812L21.5026 20.0282L21.4786 20.075L21.4541 20.1216L21.4291 20.168L21.4036 20.2142L21.3776 20.2603L21.351 20.3062L21.3239 20.3518L21.2964 20.3972L21.2682 20.4425L21.2396 20.4874L21.2105 20.5322L21.1808 20.5767L21.1508 20.621L21.1201 20.665L21.089 20.7088L21.0573 20.7523L21.0252 20.7956L20.9926 20.8386L20.9595 20.8813L20.9259 20.9238L20.8918 20.9659L20.8572 21.0078L20.8222 21.0494L20.7867 21.0906L20.7506 21.1316L20.7141 21.1722L20.6772 21.2126L20.6397 21.2526L20.6019 21.2923L20.5635 21.3318L20.5247 21.3708L20.4854 21.4094L20.4457 21.4478L20.4055 21.4858L20.3648 21.5234L20.3238 21.5607L20.2823 21.5977L20.2404 21.6342L20.198 21.6704L20.1552 21.7062L20.1119 21.7416L20.0682 21.7766L20.0241 21.8112L19.9796 21.8454L19.9348 21.8793L19.8894 21.9127L19.8437 21.9457L19.7976 21.9782L19.7511 22.0105L19.7041 22.0422L19.6568 22.0735L19.6092 22.1043L19.5611 22.1348L19.5126 22.1648L19.4638 22.1943L19.4146 22.2234L19.3651 22.252L19.3152 22.2802L19.2648 22.3078L19.2143 22.3351L19.1633 22.3618L19.112 22.3882L19.0604 22.4139L19.0084 22.4393L18.9561 22.4641L18.9035 22.4884L18.8506 22.5122L18.7973 22.5355L18.7438 22.5584L18.69 22.5807L18.6358 22.6025L18.5813 22.6238L18.5266 22.6446L18.4716 22.6648L18.4163 22.6846L18.3608 22.7038L18.3049 22.7224L18.2488 22.7406L18.1925 22.7581L18.136 22.7751L18.0791 22.7917L18.022 22.8076L17.9648 22.823L17.9072 22.8378L17.8495 22.8522L17.7915 22.8658L17.7333 22.879L17.6749 22.8916L17.6164 22.9037L17.5576 22.9151L17.4986 22.926L17.4395 22.9363L17.3801 22.9461L17.3207 22.9552L17.261 22.9638L17.2012 22.9718L17.1412 22.9792L17.0812 22.986L17.0209 22.9922L16.9605 22.9978L16.9 23.0028L16.8394 23.0073L16.7786 23.011L16.7178 23.0143L16.6568 23.017L16.5958 23.019L16.5346 23.0203L16.4734 23.0211L16.4121 23.0214L16.3508 23.021L16.2893 23.0199L16.2278 23.0182L16.1663 23.016L16.1047 23.0131L16.043 23.0096L15.9813 23.0055L15.9196 23.0008L15.858 22.9954L15.7962 22.9894L15.7345 22.9829L15.6728 22.9756L15.6111 22.9678L15.5493 22.9593L15.4876 22.9502L15.426 22.9405L15.3644 22.9302L15.3028 22.9192L15.2412 22.9076L15.1797 22.8954L15.1183 22.8826L15.0569 22.8691L14.9956 22.855L14.9344 22.8402L14.8732 22.825L14.8122 22.809L14.7513 22.7923L14.6904 22.7751L14.6298 22.7573L14.5692 22.7388L14.5087 22.7197L14.4484 22.7L14.3881 22.6797L14.3281 22.6587L14.2682 22.6371L14.2084 22.6149L14.1489 22.5921L14.0895 22.5686L14.0303 22.5446L13.9712 22.5199L13.9124 22.4946L13.8538 22.4687L13.7953 22.4422L13.7372 22.4151L13.6791 22.3874L13.6213 22.359L13.5638 22.3301L13.5065 22.3006L13.4495 22.2704L13.3927 22.2397L13.3361 22.2083L13.2799 22.1764L13.2238 22.1438L13.1681 22.1107L13.1127 22.077L13.0576 22.0427L13.0027 22.0078L12.9481 21.9724L12.8939 21.9363L12.84 21.8997L12.7864 21.8625L12.7332 21.8247L12.6802 21.7864L12.6276 21.7474L12.5754 21.708L12.5236 21.668L12.472 21.6274L12.4209 21.5862L12.3701 21.5446L12.3197 21.5023L12.2697 21.4595L12.2201 21.4162L12.1709 21.3723L12.1221 21.3279L12.0737 21.283L12.0257 21.2375L11.9782 21.1915L11.931 21.145L11.8844 21.098L11.8381 21.0505L11.7923 21.0024L11.7469 20.9539L11.702 20.9048L11.6576 20.8553L11.6136 20.8053L11.5702 20.7547L11.5272 20.7038L11.4846 20.6522L11.4426 20.6002L11.4011 20.5478L11.36 20.495L11.3195 20.4416L11.2795 20.3878L11.24 20.3335L11.2011 20.2788L11.1626 20.2236L11.1247 20.168L11.0873 20.112L11.0505 20.0555L11.0143 19.9986L10.9785 19.9414L10.9434 19.8837L10.9088 19.8255L10.8748 19.767L10.8413 19.7081L10.8084 19.6488L10.7761 19.5891L10.7444 19.529L10.7133 19.4686L10.6828 19.4078L10.6528 19.3466L10.6236 19.285L10.5948 19.2232L10.5668 19.161L10.5393 19.0984L10.5124 19.0354L10.4862 18.9722L10.4606 18.9086L10.4356 18.8448L10.4113 18.7806L10.3877 18.7161L10.3647 18.6513L10.3423 18.5862L10.3205 18.5209L10.2995 18.4552L10.2791 18.3893L10.2593 18.3231L10.2402 18.2566L10.2218 18.1899L10.2041 18.123L10.187 18.0558L10.1707 17.9883L10.155 17.9207L10.14 17.8528L10.1256 17.7847L10.112 17.7164L10.0991 17.6479L10.0868 17.5792L10.0753 17.5103L10.0645 17.4413L10.0544 17.372L10.0449 17.3026L10.0363 17.233L10.0283 17.1634L10.021 17.0934L10.0144 17.0234L10.0086 16.9533L10.0035 16.883L9.99908 16.8126L9.99541 16.7422L9.99244 16.6716L9.9902 16.6009L9.98876 16.5301L9.98804 16.4593L9.98796 16.3883L9.98868 16.3173L9.9902 16.2462L9.99236 16.1751L9.99533 16.1039L9.999 16.0327L10.0034 15.9615L10.0085 15.8902L10.0144 15.819L10.0211 15.7477L10.0284 15.6764L10.0366 15.6051L10.0455 15.5338L10.0551 15.4626L10.0655 15.3914L10.0766 15.3202L10.0885 15.2491L10.1011 15.178L10.1144 15.107L10.1286 15.036L10.1435 14.9651L10.1591 14.8943L10.1754 14.8236L10.1925 14.753L10.2104 14.6825L10.229 14.6121L10.2484 14.5418L10.2684 14.4717L10.2892 14.4016L10.3108 14.3318L10.3332 14.262L10.3562 14.1924L10.38 14.123L10.4046 14.0538L10.4299 13.9847L10.4559 13.9158L10.4827 13.8472L10.5102 13.7787L10.5384 13.7104L10.5674 13.6424L10.5971 13.5746L10.6276 13.507L10.6587 13.4396L10.6906 13.3725L10.7232 13.3057L10.7565 13.239L10.7905 13.1727L10.8253 13.1067L10.8608 13.041L10.897 12.9755L10.9339 12.9103L10.9715 12.8454L11.0098 12.781L11.0488 12.7167L11.0885 12.6528L11.129 12.5893L11.1701 12.526L11.2119 12.4631L11.2544 12.4006L11.2976 12.3385L11.3414 12.2767L11.386 12.2154L11.4312 12.1543L11.477 12.0937L11.5236 12.0335L11.5708 11.9737L11.6187 11.9143L11.6672 11.8553L11.7164 11.7968L11.7662 11.7386L11.8167 11.681L11.8678 11.6238L11.9196 11.567L11.972 11.5107L12.025 11.4549L12.0787 11.3995L12.1329 11.3446L12.1878 11.2902L12.2433 11.2363L12.2994 11.183L12.3561 11.1301L12.4134 11.0777L12.4712 11.0258L12.5297 10.9745L12.5888 10.9238L12.6484 10.8734L12.7087 10.8238L12.7694 10.7746L12.8308 10.726L12.8926 10.678L12.9551 10.6306L13.018 10.5837L13.0816 10.5374L13.1456 10.4917L13.2102 10.4466L13.2753 10.402L13.341 10.3581L13.4071 10.3148L13.4737 10.2722L13.5409 10.2301L13.6085 10.1886L13.6767 10.1478L13.7452 10.1077L13.8144 10.0682L13.8839 10.0293L13.9539 9.99104L14.0244 9.95352L14.0952 9.91664L14.1666 9.8804L14.2384 9.84488L14.3106 9.81L14.3832 9.77584L14.4563 9.74232L14.5297 9.70952L14.6036 9.67744L14.6779 9.646L14.7525 9.61528L14.8275 9.58536L14.9029 9.55608L14.9787 9.52752L15.0548 9.49968L15.1312 9.47264L15.2081 9.44624L15.2852 9.42064L15.3628 9.39576L15.4405 9.3716L15.5187 9.34824L15.5971 9.3256L15.6758 9.30376L15.7548 9.28264L15.8341 9.26224L15.9137 9.24264L15.9936 9.22384L16.0737 9.20584L16.154 9.18856L16.2347 9.17208L16.3155 9.1564L16.356 9.14888ZM17.3496 14.9571L16.4275 15.1774L16.3733 10.6098L16.3299 10.6196L16.2644 10.635L16.1991 10.6511L16.1342 10.6678L16.0694 10.685L16.005 10.703L15.9406 10.7216L15.8768 10.7406L15.8129 10.7605L15.7498 10.7807L15.6865 10.8018L15.6236 10.8234L15.5611 10.8455L15.4988 10.8682L15.437 10.8915L15.3753 10.9155L15.314 10.94L15.253 10.965L15.1921 10.9908L15.132 11.0169L15.072 11.0438L15.0124 11.071L14.953 11.099L14.8941 11.1274L14.8354 11.1565L14.7773 11.186L14.7195 11.2161L14.662 11.2467L14.605 11.2778L14.5483 11.3095L14.492 11.3418L14.4363 11.3744L14.3805 11.4078L14.3255 11.4414L14.2709 11.4757L14.2167 11.5104L14.1628 11.5457L14.1094 11.5814L14.0564 11.6177L14.0039 11.6543L13.9519 11.6914L13.9001 11.7291L13.8489 11.7673L13.7982 11.8058L13.7479 11.8449L13.6981 11.8842L13.6488 11.9242L13.5999 11.9646L13.5514 12.0054L13.5036 12.0466L13.4561 12.0882L13.4092 12.1302L13.3627 12.1727L13.3167 12.2157L13.2712 12.259L13.2263 12.3026L13.1817 12.3467L13.1378 12.3911L13.0944 12.436L13.0515 12.4811L13.0089 12.5269L12.9671 12.5727L12.9257 12.619L12.8848 12.6658L12.8446 12.7126L12.8048 12.7601L12.7656 12.8076L12.7268 12.8558L12.6888 12.904L12.6511 12.9527L12.614 13.0018L12.5776 13.051L12.5416 13.1005L12.5062 13.1503L12.4713 13.2006L12.437 13.251L12.4033 13.3018L12.3702 13.3526L12.3376 13.4038L12.3056 13.4554L12.2742 13.5071L12.2432 13.5593L12.213 13.6114L12.1832 13.6639L12.154 13.7166L12.1256 13.7695L12.0976 13.8226L12.0702 13.876L12.0433 13.9297L12.0172 13.9833L11.9915 14.0374L11.9664 14.0914L11.942 14.1458L11.9181 14.2002L11.8948 14.255L11.8722 14.3097L11.8501 14.3647L11.8287 14.4198L11.8077 14.4751L11.7875 14.5304L11.7678 14.586L11.7487 14.6417L11.7302 14.6974L11.7123 14.7533L11.695 14.8094L11.6783 14.8654L11.6623 14.9215L11.6468 14.9778L11.6318 15.0342L11.6176 15.0906L11.6039 15.1471L11.5908 15.2037L11.5783 15.2603L11.5664 15.317L11.5552 15.3737L11.5444 15.4304L11.5344 15.4873L11.5249 15.544L11.516 15.6008L11.5077 15.6578L11.5 15.7145L11.493 15.7714L11.4865 15.8282L11.4806 15.885L11.4753 15.942L11.4706 15.9987L11.4665 16.0555L11.463 16.1123L11.46 16.169L11.4577 16.2256L11.456 16.2822L11.4548 16.3388L11.4542 16.3953L11.4543 16.4517L11.4548 16.508L11.456 16.5643L11.4578 16.6205L11.4601 16.6766L11.463 16.7326L11.4665 16.7884L11.4706 16.8442L11.4752 16.8998L11.4804 16.9554L11.4862 17.0109L11.4925 17.066L11.4994 17.1213L11.5068 17.1762L11.5149 17.2311L11.5235 17.2858L11.5326 17.3403L11.5423 17.3948L11.5525 17.449L11.5633 17.503L11.5746 17.5568L11.5865 17.6106L11.5989 17.664L11.6119 17.7174L11.6253 17.7703L11.6394 17.8234L11.6539 17.8759L11.6689 17.9285L11.6845 17.9806L11.7006 18.0327L11.7172 18.0845L11.7344 18.1359L11.752 18.1874L11.7702 18.2384L11.7888 18.2891L11.808 18.3398L11.8276 18.3901L11.8478 18.4401L11.8684 18.4898L11.8895 18.5393L11.9112 18.5886L11.9332 18.6375L11.9558 18.6862L11.9788 18.7345L12.0023 18.7825L12.0264 18.8304L12.0507 18.8778L12.0756 18.9249L12.1009 18.9718L12.1268 19.0182L12.153 19.0645L12.1796 19.1104L12.2068 19.1558L12.2344 19.2011L12.2623 19.246L12.2907 19.2905L12.3196 19.3347L12.3488 19.3786L12.3784 19.4222L12.4084 19.4651L12.4389 19.508L12.4698 19.5504L12.501 19.5924L12.5328 19.6342L12.5648 19.6754L12.5972 19.7163L12.63 19.7569L12.6632 19.7971L12.6966 19.8368L12.7306 19.8762L12.7648 19.9153L12.7994 19.9538L12.8345 19.9921L12.8697 20.0298L12.9054 20.0673L12.9414 20.1042L12.9776 20.1408L13.0144 20.177L13.0513 20.2127L13.0886 20.2481L13.1262 20.283L13.1641 20.3174L13.2024 20.3515L13.2408 20.3851L13.2796 20.4183L13.3187 20.4511L13.358 20.4834L13.3977 20.5154L13.4377 20.5468L13.4778 20.5778L13.5183 20.6083L13.559 20.6385L13.6 20.6682L13.6412 20.6974L13.6826 20.7262L13.7243 20.7545L13.7662 20.7823L13.8083 20.8097L13.8506 20.8366L13.8933 20.8632L13.936 20.8891L13.979 20.9147L14.0223 20.9398L14.0656 20.9644L14.1091 20.9886L14.153 21.0123L14.1969 21.0355L14.241 21.0582L14.2852 21.0805L14.3298 21.1023L14.3743 21.1236L14.4192 21.1445L14.464 21.1649L14.509 21.1847L14.5543 21.2042L14.5996 21.2231L14.645 21.2416L14.6906 21.2596L14.7363 21.277L14.7822 21.2941L14.828 21.3106L14.8741 21.3267L14.9201 21.3422L14.9663 21.3574L15.0126 21.372L15.059 21.3862L15.1054 21.3998L15.1519 21.413L15.1985 21.4256L15.2452 21.4378L15.2918 21.4495L15.3385 21.4608L15.3852 21.4715L15.432 21.4818L15.4789 21.4916L15.5258 21.5009L15.5727 21.5098L15.6196 21.5181L15.6665 21.526L15.7135 21.5334L15.7604 21.5403L15.8072 21.5467L15.8542 21.5526L15.9011 21.5582L15.948 21.5632L15.9949 21.5677L16.0418 21.5718L16.0886 21.5754L16.1353 21.5785L16.1821 21.5811L16.2288 21.5833L16.2753 21.585L16.322 21.5862L16.3684 21.587L16.4148 21.5874L16.4612 21.5872L16.5075 21.5866L16.5538 21.5855L16.6 21.584L16.6459 21.5821L16.6918 21.5796L16.7378 21.5767L16.7834 21.5734L16.8291 21.5696L16.8745 21.5654L16.92 21.5607L16.9652 21.5555L17.0103 21.55L17.0554 21.544L17.1002 21.5375L17.1448 21.5306L17.1896 21.5234L17.234 21.5156L17.2782 21.5074L17.3224 21.4988L17.3664 21.4898L17.41 21.4803L17.4536 21.4705L17.4971 21.4602L17.5404 21.4494L17.5834 21.4384L17.6263 21.4269L17.6689 21.415L17.7116 21.4026L17.7538 21.3898L17.7957 21.3767L17.8378 21.3631L17.8794 21.3492L17.9208 21.335L17.962 21.3202L18.003 21.3051L18.0439 21.2896L18.0844 21.2738L18.1247 21.2575L18.1648 21.241L18.2046 21.2239L18.2443 21.2066L18.2835 21.1889L18.3227 21.1708L18.3615 21.1524L18.4 21.1336L18.4384 21.1145L18.4763 21.095L18.5141 21.0752L18.5516 21.055L18.5888 21.0345L18.6257 21.0137L18.6624 20.9925L18.6988 20.971L18.7348 20.9491L18.7706 20.927L18.8061 20.9045L18.8413 20.8818L18.8763 20.8586L18.9108 20.8353L18.9452 20.8115L18.9792 20.7875L19.0128 20.7633L19.0461 20.7386L19.0792 20.7138L19.1119 20.6886L19.1443 20.6631L19.1764 20.6374L19.2081 20.6114L19.2396 20.5852L19.2706 20.5586L19.3013 20.5318L19.3318 20.5048L19.3619 20.4774L19.3916 20.4499L19.4209 20.4222L19.45 20.3941L19.4788 20.3658L19.5072 20.3373L19.5352 20.3086L19.5628 20.2795L19.59 20.2504L19.6171 20.2209L19.6436 20.1914L19.6699 20.1614L19.6957 20.1314L19.7212 20.1012L19.7464 20.0706L19.7711 20.0401L19.7956 20.0092L19.8196 19.9782L19.8432 19.947L19.8666 19.9156L19.8895 19.8842L19.912 19.8523L19.9343 19.8204L19.956 19.7885L19.9775 19.7562L19.9986 19.7238L20.0192 19.6914L20.0395 19.6587L20.0594 19.6259L20.0789 19.593L20.0981 19.5599L20.1168 19.5267L20.1352 19.4934L20.1532 19.4599L20.1708 19.4265L20.188 19.3928L20.2049 19.359L20.2214 19.3252L20.2375 19.2911L20.2532 19.2571L20.2684 19.223L20.2833 19.1888L20.2979 19.1544L20.312 19.1201L20.3258 19.0854L20.3391 19.0511L20.3521 19.0162L20.3646 18.9819L20.3768 18.947L20.3887 18.9122L20.4 18.8774L20.4111 18.8426L20.4217 18.8078L20.432 18.7726L20.4418 18.7378L20.4514 18.7026L20.4604 18.6678L20.4692 18.6326L20.4775 18.5974L20.4854 18.5625L20.4929 18.5276L20.5001 18.4922L20.5069 18.4573L20.5133 18.422L20.5193 18.3871L20.525 18.3521L20.5303 18.317L20.5352 18.2818L20.5396 18.2468L20.5438 18.2119L20.5476 18.1771L20.5509 18.142L20.554 18.1072L20.5566 18.0723L20.5588 18.0375L20.5608 18.0028L20.5623 17.9682L20.5634 17.9337L20.5642 17.899L20.5647 17.8643L20.5648 17.83L20.5644 17.7957L20.5638 17.7614L20.5628 17.7273L20.5614 17.693L20.5596 17.6593L20.5576 17.6249L20.5552 17.5914L20.5524 17.5577L20.5492 17.5238L20.5457 17.4902L20.542 17.457L20.5377 17.4234L20.5332 17.3904L20.5284 17.3572L20.5232 17.3245L20.5176 17.2914L20.5118 17.2586L20.5056 17.2262L20.4992 17.1938L20.4923 17.1613L20.4851 17.1292L20.4776 17.0971L20.4698 17.0653L20.4617 17.0337L20.4532 17.0018L20.4445 16.9706L20.4354 16.9391L20.426 16.9082L20.4164 16.8772L20.4064 16.8465L20.396 16.8158L20.3854 16.7853L20.3746 16.7552L20.3634 16.7252L20.3519 16.6951L20.3401 16.6655L20.328 16.6358L20.3158 16.6067L20.3031 16.5774L20.2903 16.5485L20.2771 16.5198L20.2636 16.4912L20.25 16.4629L20.236 16.4347L20.2217 16.4067L20.2072 16.379L20.1924 16.3515L20.1775 16.3242L20.1622 16.2971L20.1466 16.2702L20.1309 16.2436L20.1149 16.2172L20.0986 16.1909L20.0821 16.165L20.0654 16.1393L20.0484 16.1138L20.0312 16.0884L20.0139 16.0634L19.9962 16.0386L19.9784 16.014L19.9603 15.9897L19.942 15.9656L19.9236 15.9418L19.9048 15.9181L19.8859 15.8948L19.8668 15.8717L19.8475 15.8488L19.828 15.8262L19.8084 15.8038L19.7884 15.7818L19.7684 15.7599L19.7481 15.7382L19.7277 15.717L19.7071 15.6959L19.6863 15.675L19.6654 15.6546L19.6443 15.6343L19.6231 15.6143L19.6015 15.5945L19.58 15.575L19.5583 15.5558L19.5364 15.5369L19.5144 15.5182L19.4922 15.4998L19.4699 15.4817L19.4475 15.4638L19.4249 15.4462L19.4022 15.4289L19.3794 15.4119L19.3564 15.3951L19.3333 15.3786L19.3102 15.3625L19.2869 15.3465L19.2636 15.3309L19.24 15.3155L19.2164 15.3004L19.1928 15.2856L19.1688 15.271L19.145 15.2568L19.1211 15.2429L19.097 15.2292L19.0728 15.2158L19.0486 15.2026L19.0244 15.1898L19 15.1772L18.9756 15.165L18.951 15.1529L18.9265 15.1412L18.9019 15.1298L18.8772 15.1186L18.8525 15.1078L18.8276 15.0971L18.803 15.0869L18.778 15.0769L18.7531 15.0671L18.7282 15.0577L18.7032 15.0485L18.6783 15.0396L18.6532 15.031L18.6282 15.0226L18.6032 15.0146L18.5781 15.0067L18.553 14.9992L18.528 14.992L18.5028 14.985L18.4778 14.9784L18.4527 14.972L18.4276 14.9658L18.4024 14.96L18.3774 14.9544L18.3523 14.9491L18.3272 14.9441L18.3023 14.9393L18.2773 14.9348L18.2522 14.9306L18.2274 14.9266L18.2023 14.923L18.1776 14.9195L18.1526 14.9163L18.1278 14.9134L18.1032 14.9108L18.0784 14.9085L18.0537 14.9063L18.0291 14.9045L18.0045 14.9029L17.98 14.9015L17.9555 14.9005L17.9312 14.8997L17.9068 14.899L17.8826 14.8987L17.8584 14.8986L17.8343 14.8989L17.8102 14.8993L17.7863 14.8999L17.7624 14.9009L17.7387 14.902L17.7148 14.9034L17.6913 14.905L17.6678 14.9069L17.6444 14.909L17.6211 14.9114L17.5977 14.9139L17.5747 14.9167L17.5516 14.9198L17.5288 14.923L17.5059 14.9266L17.4832 14.9302L17.4606 14.9342L17.4383 14.9383L17.4158 14.9427L17.3936 14.9473L17.3715 14.9521L17.3496 14.9571Z" fill="white"/>
</svg>
