<svg width="35" height="32" viewBox="0 0 35 32" fill="none" xmlns="http://www.w3.org/2000/svg">
<path d="M23.6019 26.4845L2.1893 11.714C0.0193917 10.2173 0.757017 7.10088 3.46284 6.36802L26.2206 0.191307C26.7027 0.0173566 27.2193 -0.0391112 27.7276 0.0265948C28.2358 0.0923008 28.7211 0.278283 29.1432 0.569108C29.5651 0.859932 29.9117 1.24721 30.154 1.6988C30.3963 2.15038 30.5275 2.65326 30.5366 3.16568L29.1878 24.1116C29.0279 26.5978 25.7718 27.9812 23.6019 26.4845Z" fill="white"/>
<path d="M16.811 30.1304L4.19614 5.46055C3.90778 4.89618 3.78089 4.26312 3.82946 3.63121C3.87802 2.9993 4.10017 2.39308 4.47138 1.8794C4.8426 1.36572 5.34847 0.96454 5.93322 0.720098C6.51796 0.475655 7.15884 0.397452 7.7852 0.494119L31.1637 4.10227C31.7018 4.18535 32.2127 4.395 32.6542 4.71398C33.0956 5.03297 33.455 5.45218 33.7029 5.93714C33.9506 6.4221 34.0799 6.95895 34.0798 7.50358C34.0797 8.04819 33.9503 8.58502 33.7024 9.0699L22.9328 30.1316C22.6436 30.6943 22.2049 31.1665 21.6648 31.4961C21.1247 31.8257 20.5043 32 19.8715 31.9999C19.2388 31.9997 18.6184 31.8252 18.0784 31.4955C17.5385 31.1656 17.1 30.6933 16.811 30.1304Z" fill="white"/>
<path d="M24.5 8.72693L20.0112 8L14.5 9.57011L16.6998 14.0856L21.851 17.8153C21.9647 17.8966 22.0897 17.959 22.2216 18L24.1782 13.9852L24.5 8.72693Z" fill="white"/>
</svg>
