<svg width="22" height="32" viewBox="0 0 22 32" fill="none" xmlns="http://www.w3.org/2000/svg">
<path d="M10.2919 19.9817V28.1025C10.2919 28.4138 10.1682 28.7124 9.94806 28.9324C9.72803 29.1526 9.42948 29.2762 9.11813 29.2762C8.80689 29.2762 8.50834 29.1526 8.2882 28.9324C8.06805 28.7124 7.94438 28.4138 7.94438 28.1025V19.993C8.27124 20.2317 8.66301 20.3649 9.06758 20.3749C9.50855 20.3874 9.94065 20.2487 10.2919 19.9817ZM20.2884 17.6343C19.9905 17.6343 19.7047 17.7526 19.4941 17.9632C19.2835 18.1738 19.1652 18.4596 19.1652 18.7575V20.1727C19.1652 20.484 19.2888 20.7826 19.509 21.0026C19.729 21.2228 20.0276 21.3464 20.3389 21.3464C20.6503 21.3464 20.9488 21.2228 21.1688 21.0026C21.389 20.7826 21.5127 20.484 21.5127 20.1727V18.8136C21.5214 18.6526 21.4954 18.4915 21.4363 18.3414C21.3772 18.1914 21.2866 18.0557 21.1703 17.9438C21.0542 17.8319 20.9152 17.7464 20.7631 17.6929C20.6109 17.6395 20.449 17.6195 20.2884 17.6343ZM5.39472 23.0593C4.99056 23.0472 4.5993 22.9142 4.27152 22.6774V30.8206C4.27152 31.1335 4.39576 31.4335 4.61694 31.6546C4.83811 31.8758 5.13809 32 5.45088 32C5.76367 32 6.06364 31.8758 6.28481 31.6546C6.50599 31.4335 6.63024 31.1335 6.63024 30.8206V22.7336C6.26346 22.9707 5.8307 23.0848 5.39472 23.0593ZM16.6267 15.1969C16.4745 15.1893 16.3225 15.2127 16.1796 15.2658C16.0368 15.3188 15.9063 15.4003 15.7959 15.5053C15.6856 15.6105 15.5979 15.7368 15.5379 15.8769C15.478 16.017 15.4471 16.1678 15.4474 16.3201V22.5763C15.4474 22.8892 15.5716 23.1892 15.7928 23.4103C16.014 23.6315 16.3139 23.7557 16.6267 23.7557C16.9395 23.7557 17.2395 23.6315 17.4607 23.4103C17.6819 23.1892 17.8061 22.8892 17.8061 22.5763V16.3987C17.8151 16.2367 17.7888 16.0746 17.729 15.9236C17.6693 15.7727 17.5776 15.6364 17.4601 15.5243C17.3427 15.4122 17.2024 15.3269 17.0488 15.2743C16.8953 15.2216 16.7321 15.2029 16.5706 15.2194L16.6267 15.1969ZM12.8977 17.6006C12.4746 17.5976 12.0628 17.4643 11.7183 17.2187V25.3843C11.7183 25.6972 11.8426 25.9972 12.0637 26.2183C12.285 26.4395 12.5849 26.5637 12.8977 26.5637C13.2105 26.5637 13.5104 26.4395 13.7317 26.2183C13.9528 25.9972 14.0771 25.6972 14.0771 25.3843V17.2299C13.7208 17.4953 13.2858 17.6337 12.8415 17.623L12.8977 17.6006ZM2.84505 23.8568V1.04458C2.8421 0.766506 2.72955 0.500847 2.53187 0.305264C2.33418 0.109681 2.06732 -1.12311e-05 1.78924 8.625e-10H1.54214C1.26406 -1.12311e-05 0.997194 0.109681 0.79951 0.305264C0.601827 0.500847 0.489282 0.766506 0.486328 1.04458V23.8568C0.486328 24.1368 0.59757 24.4054 0.795568 24.6034C0.993566 24.8014 1.26212 24.9126 1.54214 24.9126H1.78924C2.06927 24.9126 2.33781 24.8014 2.53581 24.6034C2.73382 24.4054 2.84505 24.1368 2.84505 23.8568ZM5.51827 22.1945H5.27117C4.99115 22.1945 4.72259 22.0833 4.5246 21.8852C4.3266 21.6872 4.21536 21.4187 4.21536 21.1386V3.76272C4.21832 3.48466 4.33085 3.21898 4.52854 3.02341C4.72622 2.82783 4.99308 2.71814 5.27117 2.71815H5.51827C5.79635 2.71814 6.06321 2.82783 6.2609 3.02341C6.45858 3.21898 6.57112 3.48466 6.57408 3.76272V21.1611C6.57408 21.4411 6.46284 21.7097 6.26484 21.9077C6.06684 22.1057 5.79828 22.2169 5.51827 22.2169V22.1945ZM9.23606 19.5212H8.97773C8.70075 19.5212 8.435 19.4112 8.23911 19.2153C8.04323 19.0194 7.93315 18.7538 7.93315 18.4767V6.45841C7.93169 6.32029 7.95764 6.18325 8.00942 6.05521C8.0612 5.92718 8.13791 5.8107 8.23507 5.71251C8.33222 5.61432 8.44792 5.53637 8.5754 5.48318C8.70288 5.42998 8.83958 5.40259 8.97773 5.4026H9.23606C9.51417 5.40556 9.77981 5.5181 9.97536 5.71578C10.171 5.91346 10.2806 6.18032 10.2806 6.45841V18.4767C10.2806 18.7538 10.1706 19.0194 9.97468 19.2153C9.7788 19.4112 9.51316 19.5212 9.23606 19.5212ZM12.9539 16.7694H12.718C12.4399 16.7694 12.173 16.6598 11.9753 16.4641C11.7776 16.2686 11.6651 16.0029 11.6622 15.7248V9.25518C11.653 9.11096 11.6734 8.9664 11.7224 8.83038C11.7712 8.69448 11.8476 8.56991 11.9466 8.46467C12.0455 8.35931 12.165 8.27552 12.2978 8.21824C12.4304 8.16107 12.5734 8.13164 12.718 8.13198H12.9651C13.2451 8.13198 13.5137 8.24317 13.7117 8.44119C13.9097 8.63921 14.0209 8.90777 14.0209 9.18779V15.7024C14.0224 15.842 13.9962 15.9805 13.9437 16.1098C13.8914 16.2392 13.8139 16.357 13.7156 16.4562C13.6174 16.5554 13.5006 16.6342 13.3717 16.688C13.2429 16.7418 13.1047 16.7694 12.9651 16.7694H12.9539ZM16.6829 14.3545H16.4358C16.1558 14.3545 15.8872 14.2433 15.6892 14.0453C15.4912 13.8473 15.38 13.5787 15.38 13.2987V11.6251C15.3829 11.347 15.4954 11.0814 15.6931 10.8858C15.8908 10.6902 16.1577 10.5806 16.4358 10.5806H16.6829C16.961 10.5806 17.2279 10.6902 17.4255 10.8858C17.6232 11.0814 17.7358 11.347 17.7387 11.6251V13.2987C17.7387 13.5768 17.6291 13.8437 17.4334 14.0414C17.2379 14.239 16.9722 14.3516 16.6941 14.3545H16.6829Z" fill="white"/>
</svg>
