<svg width="25" height="25" viewBox="0 0 25 25" fill="none" xmlns="http://www.w3.org/2000/svg">
<path d="M11.3192 17.2299C11.188 17.2302 11.0579 17.2045 10.9366 17.1544C10.8153 17.1043 10.7051 17.0307 10.6122 16.9379L6.37024 12.6949C6.27467 12.6027 6.19841 12.4924 6.14592 12.3705C6.09342 12.2485 6.06574 12.1173 6.0645 11.9845C6.06325 11.8517 6.08846 11.72 6.13865 11.5971C6.18885 11.4742 6.26302 11.3625 6.35685 11.2685C6.45067 11.1746 6.56227 11.1002 6.68513 11.0499C6.80799 10.9995 6.93965 10.9741 7.07243 10.9752C7.20521 10.9762 7.33645 11.0037 7.45849 11.056C7.58053 11.1083 7.69093 11.1845 7.78324 11.2799L11.3182 14.8149L17.6832 8.45189C17.8707 8.26425 18.1251 8.15879 18.3904 8.15869C18.6557 8.1586 18.9101 8.26389 19.0977 8.45139C19.2854 8.6389 19.3908 8.89327 19.3909 9.15854C19.391 9.42381 19.2857 9.67825 19.0982 9.86589L12.0262 16.9379C11.9334 17.0307 11.8232 17.1043 11.7019 17.1544C11.5805 17.2045 11.4505 17.2302 11.3192 17.2299Z" fill="#25A249"/>
</svg>
