<svg width="14" height="10" viewBox="0 0 14 10" fill="none" xmlns="http://www.w3.org/2000/svg">
<path d="M5.48599 9.23002C5.35472 9.23028 5.2247 9.20463 5.10337 9.15452C4.98204 9.10441 4.87181 9.03083 4.77899 8.93802L0.536988 4.69502C0.441415 4.60284 0.365157 4.49255 0.312663 4.37058C0.26017 4.24861 0.232492 4.11741 0.231245 3.98464C0.229999 3.85186 0.255208 3.72016 0.305401 3.59723C0.355595 3.4743 0.429769 3.3626 0.523594 3.26864C0.61742 3.17468 0.729018 3.10035 0.851878 3.04998C0.974737 2.99961 1.1064 2.97422 1.23918 2.97528C1.37196 2.97634 1.50319 3.00383 1.62523 3.05615C1.74727 3.10847 1.85767 3.18457 1.94999 3.28002L5.48499 6.81502L11.85 0.452016C12.0375 0.264375 12.2919 0.158907 12.5571 0.158814C12.8224 0.15872 13.0768 0.264008 13.2645 0.451516C13.4521 0.639024 13.5576 0.893392 13.5577 1.15866C13.5578 1.42393 13.4525 1.67838 13.265 1.86602L6.19299 8.93802C6.10017 9.03083 5.98993 9.10441 5.86861 9.15452C5.74728 9.20463 5.61725 9.23028 5.48599 9.23002Z" fill="#25A249"/>
</svg>
