<svg width="24" height="24" viewBox="0 0 24 24" fill="none" xmlns="http://www.w3.org/2000/svg">
<path d="M12.0707 13.3139L17.0207 8.36388C17.1129 8.26837 17.2232 8.19219 17.3453 8.13978C17.4673 8.08737 17.5985 8.05979 17.7313 8.05863C17.864 8.05748 17.9957 8.08278 18.1186 8.13306C18.2415 8.18334 18.3532 8.25759 18.4471 8.35149C18.5409 8.44538 18.6152 8.55703 18.6655 8.67993C18.7158 8.80282 18.7411 8.9345 18.7399 9.06728C18.7388 9.20006 18.7112 9.33128 18.6588 9.45329C18.6063 9.57529 18.5302 9.68564 18.4347 9.77788L12.7777 15.4349C12.5901 15.6224 12.3358 15.7277 12.0707 15.7277C11.8055 15.7277 11.5512 15.6224 11.3637 15.4349L5.70666 9.77788C5.61115 9.68564 5.53496 9.57529 5.48255 9.45329C5.43014 9.33128 5.40256 9.20006 5.4014 9.06728C5.40025 8.9345 5.42555 8.80282 5.47583 8.67993C5.52611 8.55703 5.60037 8.44538 5.69426 8.35149C5.78815 8.25759 5.89981 8.18334 6.0227 8.13306C6.1456 8.08278 6.27728 8.05748 6.41006 8.05863C6.54284 8.05979 6.67406 8.08737 6.79606 8.13978C6.91806 8.19219 7.02841 8.26837 7.12066 8.36388L12.0707 13.3139Z" fill="#21272A"/>
</svg>
