<svg width="14" height="14" viewBox="0 0 14 14" fill="none" xmlns="http://www.w3.org/2000/svg">
<path d="M10.586 5.65698L6.636 1.70698C6.45384 1.51838 6.35305 1.26578 6.35533 1.00358C6.3576 0.741382 6.46277 0.490569 6.64818 0.305161C6.83359 0.119753 7.0844 0.0145843 7.3466 0.0123059C7.6088 0.0100274 7.8614 0.110822 8.05 0.29298L13.707 5.94998C13.8002 6.04263 13.8741 6.15279 13.9246 6.27413C13.9751 6.39546 14.001 6.52557 14.001 6.65698C14.001 6.78839 13.9751 6.9185 13.9246 7.03983C13.8741 7.16117 13.8002 7.27133 13.707 7.36398L8.05 13.021C7.95775 13.1165 7.84741 13.1927 7.7254 13.2451C7.6034 13.2975 7.47218 13.3251 7.3394 13.3262C7.20662 13.3274 7.07494 13.3021 6.95205 13.2518C6.82915 13.2015 6.7175 13.1273 6.62361 13.0334C6.52971 12.9395 6.45546 12.8278 6.40518 12.7049C6.3549 12.582 6.3296 12.4504 6.33075 12.3176C6.3319 12.1848 6.35949 12.0536 6.4119 11.9316C6.46431 11.8096 6.54049 11.6992 6.636 11.607L10.586 7.65698H1C0.734784 7.65698 0.48043 7.55162 0.292893 7.36409C0.105357 7.17655 0 6.9222 0 6.65698C0 6.39176 0.105357 6.13741 0.292893 5.94987C0.48043 5.76234 0.734784 5.65698 1 5.65698H10.586Z" fill="#458FF6"/>
</svg>
