<svg width="9" height="14" viewBox="0 0 9 14" fill="none" xmlns="http://www.w3.org/2000/svg">
<path d="M2.75656 7L7.70656 11.95C7.80207 12.0422 7.87825 12.1526 7.93066 12.2746C7.98307 12.3966 8.01066 12.5278 8.01181 12.6606C8.01296 12.7934 7.98766 12.9251 7.93738 13.048C7.8871 13.1708 7.81285 13.2825 7.71896 13.3764C7.62506 13.4703 7.51341 13.5445 7.39051 13.5948C7.26762 13.6451 7.13594 13.6704 7.00316 13.6692C6.87038 13.6681 6.73916 13.6405 6.61716 13.5881C6.49515 13.5357 6.38481 13.4595 6.29256 13.364L0.63556 7.707C0.448089 7.51947 0.342773 7.26516 0.342773 7C0.342773 6.73483 0.448089 6.48053 0.63556 6.293L6.29256 0.635997C6.48116 0.453839 6.73376 0.353045 6.99596 0.355323C7.25816 0.357602 7.50897 0.462771 7.69438 0.648179C7.87979 0.833587 7.98496 1.0844 7.98723 1.3466C7.98951 1.60879 7.88872 1.8614 7.70656 2.05L2.75656 7Z" fill="#21272A"/>
</svg>
