<svg width="49" height="48" viewBox="0 0 49 48" fill="none" xmlns="http://www.w3.org/2000/svg">
<rect x="0.595703" width="48" height="48" fill="#DDE1E6"/>
<path d="M21.5957 29H17.5957C17.0653 29 16.5566 28.7893 16.1815 28.4142C15.8064 28.0391 15.5957 27.5304 15.5957 27V16C15.5957 15.4696 15.8064 14.9609 16.1815 14.5858C16.5566 14.2107 17.0653 14 17.5957 14H25.5957C26.1261 14 26.6348 14.2107 27.0099 14.5858C27.385 14.9609 27.5957 15.4696 27.5957 16V19H30.5957L33.5957 22V32C33.5957 32.5304 33.385 33.0391 33.0099 33.4142C32.6348 33.7893 32.1261 34 31.5957 34H23.5957C23.0653 34 22.5566 33.7893 22.1815 33.4142C21.8064 33.0391 21.5957 32.5304 21.5957 32V29ZM21.5957 27V21C21.5957 20.4696 21.8064 19.9609 22.1815 19.5858C22.5566 19.2107 23.0653 19 23.5957 19H25.5957V16H17.5957V27H21.5957ZM29.7677 21H23.5957V32H31.5957V22.828L29.7677 21Z" fill="#697077"/>
</svg>
