<svg width="49" height="48" viewBox="0 0 49 48" fill="none" xmlns="http://www.w3.org/2000/svg">
<rect x="0.595703" width="48" height="48" fill="#DDE1E6"/>
<path d="M18.1297 24.57C18.2526 24.5175 18.3849 24.4903 18.5185 24.4898C18.6522 24.4893 18.7846 24.5156 18.9079 24.5672C19.0313 24.6188 19.143 24.6945 19.2365 24.79C19.3301 24.8855 19.4035 24.9988 19.4525 25.1231C19.5015 25.2475 19.5251 25.3804 19.5219 25.514C19.5186 25.6477 19.4886 25.7793 19.4336 25.9011C19.3786 26.023 19.2998 26.1325 19.2017 26.2234C19.1037 26.3142 18.9884 26.3845 18.8627 26.43C18.1942 26.6934 17.6205 27.1519 17.2162 27.7458C16.8119 28.3397 16.5957 29.0415 16.5957 29.76V31.5C16.5957 31.7652 16.7011 32.0196 16.8886 32.2071C17.0761 32.3946 17.3305 32.5 17.5957 32.5H25.5957C25.8609 32.5 26.1153 32.3946 26.3028 32.2071C26.4903 32.0196 26.5957 31.7652 26.5957 31.5V29.853C26.5958 29.1115 26.3706 28.3874 25.9498 27.7768C25.5291 27.1662 24.9327 26.6979 24.2397 26.434C24.1132 26.3901 23.9969 26.3213 23.8975 26.2316C23.7981 26.1419 23.7178 26.0332 23.6612 25.9119C23.6047 25.7905 23.573 25.6591 23.5682 25.5253C23.5634 25.3916 23.5854 25.2582 23.6331 25.1331C23.6808 25.008 23.7531 24.8938 23.8457 24.7972C23.9384 24.7006 24.0495 24.6235 24.1725 24.5706C24.2954 24.5177 24.4278 24.4901 24.5616 24.4893C24.6955 24.4885 24.8281 24.5146 24.9517 24.566C26.0233 24.9742 26.9456 25.6983 27.5963 26.6425C28.2471 27.5867 28.5956 28.7063 28.5957 29.853V31.5C28.5957 32.2956 28.2796 33.0587 27.717 33.6213C27.1544 34.1839 26.3914 34.5 25.5957 34.5H17.5957C16.8001 34.5 16.037 34.1839 15.4744 33.6213C14.9118 33.0587 14.5957 32.2956 14.5957 31.5V29.76C14.5958 28.6402 14.933 27.5463 15.5633 26.6206C16.1935 25.695 17.0878 24.9805 18.1297 24.57ZM21.5957 14.5C22.6566 14.5 23.674 14.9214 24.4241 15.6716C25.1743 16.4217 25.5957 17.4391 25.5957 18.5V20.5C25.5957 21.5609 25.1743 22.5783 24.4241 23.3284C23.674 24.0786 22.6566 24.5 21.5957 24.5C20.5348 24.5 19.5174 24.0786 18.7673 23.3284C18.0171 22.5783 17.5957 21.5609 17.5957 20.5V18.5C17.5957 17.4391 18.0171 16.4217 18.7673 15.6716C19.5174 14.9214 20.5348 14.5 21.5957 14.5ZM21.5957 16.5C21.0653 16.5 20.5566 16.7107 20.1815 17.0858C19.8064 17.4609 19.5957 17.9696 19.5957 18.5V20.5C19.5957 21.0304 19.8064 21.5391 20.1815 21.9142C20.5566 22.2893 21.0653 22.5 21.5957 22.5C22.1261 22.5 22.6348 22.2893 23.0099 21.9142C23.385 21.5391 23.5957 21.0304 23.5957 20.5V18.5C23.5957 17.9696 23.385 17.4609 23.0099 17.0858C22.6348 16.7107 22.1261 16.5 21.5957 16.5ZM30.5957 33.5C30.3305 33.5 30.0761 33.3946 29.8886 33.2071C29.7011 33.0196 29.5957 32.7652 29.5957 32.5C29.5957 32.2348 29.7011 31.9804 29.8886 31.7929C30.0761 31.6054 30.3305 31.5 30.5957 31.5H31.5957C31.8609 31.5 32.1153 31.3946 32.3028 31.2071C32.4903 31.0196 32.5957 30.7652 32.5957 30.5V28.662C32.5957 27.9512 32.372 27.2583 31.9563 26.6817C31.5406 26.105 30.9541 25.6738 30.2797 25.449C30.1551 25.4075 30.0398 25.3419 29.9406 25.2558C29.8413 25.1698 29.76 25.0651 29.7012 24.9476C29.6424 24.8301 29.6074 24.7022 29.598 24.5712C29.5887 24.4402 29.6052 24.3086 29.6467 24.184C29.6882 24.0594 29.7538 23.9441 29.8399 23.8449C29.9259 23.7456 30.0306 23.6643 30.1481 23.6055C30.2656 23.5467 30.3935 23.5117 30.5245 23.5023C30.6555 23.493 30.7871 23.5095 30.9117 23.551C31.9845 23.9085 32.9176 24.5945 33.5788 25.5118C34.24 26.4291 34.5958 27.5312 34.5957 28.662V30.5C34.5957 31.2956 34.2796 32.0587 33.717 32.6213C33.1544 33.1839 32.3914 33.5 31.5957 33.5H30.5957ZM27.5957 15.5C27.3305 15.5 27.0761 15.3946 26.8886 15.2071C26.7011 15.0196 26.5957 14.7652 26.5957 14.5C26.5957 14.2348 26.7011 13.9804 26.8886 13.7929C27.0761 13.6054 27.3305 13.5 27.5957 13.5C28.6566 13.5 29.674 13.9214 30.4241 14.6716C31.1743 15.4217 31.5957 16.4391 31.5957 17.5V19.5C31.5957 20.5609 31.1743 21.5783 30.4241 22.3284C29.674 23.0786 28.6566 23.5 27.5957 23.5C27.3305 23.5 27.0761 23.3946 26.8886 23.2071C26.7011 23.0196 26.5957 22.7652 26.5957 22.5C26.5957 22.2348 26.7011 21.9804 26.8886 21.7929C27.0761 21.6054 27.3305 21.5 27.5957 21.5C28.1261 21.5 28.6348 21.2893 29.0099 20.9142C29.385 20.5391 29.5957 20.0304 29.5957 19.5V17.5C29.5957 16.9696 29.385 16.4609 29.0099 16.0858C28.6348 15.7107 28.1261 15.5 27.5957 15.5Z" fill="#697077"/>
</svg>
