<svg width="49" height="48" viewBox="0 0 49 48" fill="none" xmlns="http://www.w3.org/2000/svg">
<rect x="0.191406" width="48" height="48" fill="#DDE1E6"/>
<path d="M18.4495 20.884L24.1615 30.977L29.7795 21.147C28.4495 21.042 27.0675 20.694 25.5375 20.155C25.1425 20.015 24.9395 19.984 24.7575 20.007C24.6035 20.027 23.0345 20.576 22.1145 20.809C20.9535 21.103 19.7305 21.126 18.4495 20.884ZM17.0395 18.394C18.7415 19.064 20.2635 19.214 21.6235 18.87C22.3615 18.683 24.1015 18.074 24.5065 18.023C25.0355 17.956 25.5365 18.033 26.2025 18.268C27.9765 18.894 29.4985 19.224 30.9055 19.177L31.7925 17.625C29.3915 16.5482 26.7889 15.9943 24.1575 16C21.5504 15.9945 18.9714 16.5383 16.5885 17.596L17.0395 18.393V18.394ZM14.7335 16.268C17.6485 14.7698 20.8801 13.9921 24.1575 14C27.5195 14 30.7635 14.8 33.6535 16.306C33.7729 16.3682 33.8784 16.4539 33.9639 16.5578C34.0493 16.6618 34.1129 16.782 34.1508 16.9111C34.1887 17.0402 34.2002 17.1757 34.1845 17.3094C34.1688 17.443 34.1263 17.5722 34.0595 17.689L25.0255 33.496C24.9378 33.6492 24.8111 33.7765 24.6582 33.8649C24.5054 33.9533 24.3319 33.9996 24.1553 33.9992C23.9788 33.9988 23.8055 33.9516 23.6531 33.8626C23.5006 33.7735 23.3745 33.6456 23.2875 33.492L14.3215 17.65C14.2554 17.5329 14.2136 17.4037 14.1986 17.2701C14.1836 17.1365 14.1957 17.0012 14.2342 16.8724C14.2726 16.7436 14.3367 16.6239 14.4225 16.5203C14.5083 16.4168 14.6141 16.3317 14.7335 16.27V16.268ZM22.1915 24C21.9263 24 21.6719 23.8946 21.4844 23.7071C21.2969 23.5196 21.1915 23.2652 21.1915 23C21.1915 22.7348 21.2969 22.4804 21.4844 22.2929C21.6719 22.1054 21.9263 22 22.1915 22C22.4567 22 22.7111 22.1054 22.8986 22.2929C23.0861 22.4804 23.1915 22.7348 23.1915 23C23.1915 23.2652 23.0861 23.5196 22.8986 23.7071C22.7111 23.8946 22.4567 24 22.1915 24ZM25.1915 27C24.9263 27 24.6719 26.8946 24.4844 26.7071C24.2969 26.5196 24.1915 26.2652 24.1915 26C24.1915 25.7348 24.2969 25.4804 24.4844 25.2929C24.6719 25.1054 24.9263 25 25.1915 25C25.4567 25 25.7111 25.1054 25.8986 25.2929C26.0861 25.4804 26.1915 25.7348 26.1915 26C26.1915 26.2652 26.0861 26.5196 25.8986 26.7071C25.7111 26.8946 25.4567 27 25.1915 27Z" fill="#697077"/>
</svg>
