<svg width="49" height="48" viewBox="0 0 49 48" fill="none" xmlns="http://www.w3.org/2000/svg">
<rect x="0.191406" width="48" height="48" fill="#DDE1E6"/>
<path d="M24.1914 34C18.6684 34 14.1914 29.523 14.1914 24C14.1914 18.477 18.6684 14 24.1914 14C29.7144 14 34.1914 18.477 34.1914 24C34.1914 29.523 29.7144 34 24.1914 34ZM24.1914 32C26.3131 32 28.348 31.1571 29.8483 29.6569C31.3486 28.1566 32.1914 26.1217 32.1914 24C32.1914 21.8783 31.3486 19.8434 29.8483 18.3431C28.348 16.8429 26.3131 16 24.1914 16C22.0697 16 20.0348 16.8429 18.5346 18.3431C17.0343 19.8434 16.1914 21.8783 16.1914 24C16.1914 26.1217 17.0343 28.1566 18.5346 29.6569C20.0348 31.1571 22.0697 32 24.1914 32ZM20.2714 27.394C20.2197 27.2732 20.1922 27.1434 20.1907 27.0119C20.1891 26.8805 20.2134 26.7501 20.2623 26.6281C20.3111 26.506 20.3835 26.3948 20.4753 26.3008C20.5671 26.2068 20.6766 26.1317 20.7974 26.08C20.9182 26.0283 21.048 26.0008 21.1795 25.9993C21.3109 25.9977 21.4413 26.022 21.5633 26.0709C21.6854 26.1197 21.7966 26.1921 21.8906 26.2839C21.9846 26.3757 22.0597 26.4852 22.1114 26.606C22.2862 27.0127 22.5764 27.3592 22.9461 27.6027C23.3158 27.8462 23.7487 27.976 24.1914 27.976C24.6341 27.976 25.067 27.8462 25.4367 27.6027C25.8064 27.3592 26.0966 27.0127 26.2714 26.606C26.3231 26.4852 26.3982 26.3757 26.4922 26.2839C26.5863 26.1921 26.6975 26.1197 26.8195 26.0709C26.9415 26.022 27.0719 25.9977 27.2033 25.9993C27.3348 26.0008 27.4646 26.0283 27.5854 26.08C27.7062 26.1317 27.8157 26.2068 27.9075 26.3008C27.9993 26.3948 28.0717 26.506 28.1205 26.6281C28.1694 26.7501 28.1937 26.8805 28.1922 27.0119C28.1906 27.1434 28.1631 27.2732 28.1114 27.394C27.7829 28.1615 27.2363 28.8156 26.5395 29.2753C25.8427 29.7351 25.0262 29.9801 24.1914 29.9801C23.3566 29.9801 22.5401 29.7351 21.8433 29.2753C21.1465 28.8156 20.5999 28.1615 20.2714 27.394ZM21.1914 20C21.4566 20 21.711 20.1054 21.8985 20.2929C22.086 20.4804 22.1914 20.7348 22.1914 21V23C22.1914 23.2652 22.086 23.5196 21.8985 23.7071C21.711 23.8946 21.4566 24 21.1914 24C20.9262 24 20.6718 23.8946 20.4843 23.7071C20.2968 23.5196 20.1914 23.2652 20.1914 23V21C20.1914 20.7348 20.2968 20.4804 20.4843 20.2929C20.6718 20.1054 20.9262 20 21.1914 20ZM27.1914 20C27.4566 20 27.711 20.1054 27.8985 20.2929C28.086 20.4804 28.1914 20.7348 28.1914 21V23C28.1914 23.2652 28.086 23.5196 27.8985 23.7071C27.711 23.8946 27.4566 24 27.1914 24C26.9262 24 26.6718 23.8946 26.4843 23.7071C26.2968 23.5196 26.1914 23.2652 26.1914 23V21C26.1914 20.7348 26.2968 20.4804 26.4843 20.2929C26.6718 20.1054 26.9262 20 27.1914 20Z" fill="#697077"/>
</svg>
