<?xml version="1.0" standalone="no"?>
<!DOCTYPE svg PUBLIC "-//W3C//DTD SVG 20010904//EN"
 "http://www.w3.org/TR/2001/REC-SVG-20010904/DTD/svg10.dtd">
<svg version="1.0" xmlns="http://www.w3.org/2000/svg"
 width="512.000000pt" height="512.000000pt" viewBox="0 0 512.000000 512.000000"
 preserveAspectRatio="xMidYMid meet">
<metadata>
Created by potrace 1.14, written by Peter Selinger 2001-2017
</metadata>
<g transform="translate(0.000000,512.000000) scale(0.100000,-0.100000)"
fill="#000000" stroke="none">
<path d="M2290 5109 c-327 -40 -610 -124 -885 -263 -545 -276 -974 -736 -1209
-1299 -226 -539 -259 -1165 -90 -1724 176 -582 552 -1082 1066 -1417 696 -453
1604 -534 2375 -210 310 129 582 313 823 554 402 402 644 890 732 1475 20 139
17 560 -6 705 -108 687 -460 1275 -1011 1687 -326 244 -730 412 -1150 479
-119 18 -533 27 -645 13z m1140 -2179 l0 -220 -300 0 -300 0 0 -915 0 -915
-270 0 -270 0 0 915 0 915 -302 2 -303 3 -3 218 -2 217 875 0 875 0 0 -220z"/>
</g>
</svg>
