<svg width="128" height="128" viewBox="0 0 128 128" fill="none" xmlns="http://www.w3.org/2000/svg">
<path fill-rule="evenodd" clip-rule="evenodd" d="M12 64C12 35.2909 35.2909 12 64 12C92.7091 12 116 35.2909 116 64C116 92.7091 92.7091 116 64 116C35.2909 116 12 92.7091 12 64ZM64 20C39.7091 20 20 39.7091 20 64C20 88.2909 39.7091 108 64 108C88.2909 108 108 88.2909 108 64C108 39.7091 88.2909 20 64 20Z" fill="#25A249"/>
<path fill-rule="evenodd" clip-rule="evenodd" d="M90.5728 40.9373C92.2644 42.3582 92.4838 44.8813 91.0629 46.5729L57.4629 86.5729C56.7182 87.4594 55.6259 87.9797 54.4683 87.9995C53.3107 88.0193 52.2014 87.5365 51.4269 86.6759L37.0269 70.676C35.549 69.0339 35.6821 66.5048 37.3242 65.0269C38.9662 63.5491 41.4954 63.6822 42.9732 65.3242L54.2959 77.905L84.9372 41.4273C86.3581 39.7358 88.8813 39.5164 90.5728 40.9373Z" fill="#25A249"/>
</svg>
