<svg width="132" height="104" viewBox="0 0 132 104" fill="none" xmlns="http://www.w3.org/2000/svg">
<g opacity="0.26">
<mask id="mask0_14_2267" style="mask-type:alpha" maskUnits="userSpaceOnUse" x="0" y="0" width="11" height="10">
<path d="M5.22838 9.37094C8.11594 9.37094 10.4568 7.27314 10.4568 4.68544C10.4568 2.09774 8.11594 0 5.22838 0C2.34082 0 0 2.09774 0 4.68544C0 7.27314 2.34082 9.37094 5.22838 9.37094Z" fill="url(#paint0_linear_14_2267)"/>
</mask>
<g mask="url(#mask0_14_2267)">
<path d="M5.22838 9.37094C8.11594 9.37094 10.4568 7.27314 10.4568 4.68544C10.4568 2.09774 8.11594 0 5.22838 0C2.34082 0 0 2.09774 0 4.68544C0 7.27314 2.34082 9.37094 5.22838 9.37094Z" fill="url(#paint1_linear_14_2267)"/>
</g>
<mask id="mask1_14_2267" style="mask-type:alpha" maskUnits="userSpaceOnUse" x="30" y="0" width="11" height="10">
<path d="M35.5096 9.37094C38.3972 9.37094 40.738 7.27314 40.738 4.68544C40.738 2.09774 38.3972 0 35.5096 0C32.6221 0 30.2812 2.09774 30.2812 4.68544C30.2812 7.27314 32.6221 9.37094 35.5096 9.37094Z" fill="url(#paint2_linear_14_2267)"/>
</mask>
<g mask="url(#mask1_14_2267)">
<path d="M35.5096 9.37094C38.3972 9.37094 40.738 7.27314 40.738 4.68544C40.738 2.09774 38.3972 0 35.5096 0C32.6221 0 30.2812 2.09774 30.2812 4.68544C30.2812 7.27314 32.6221 9.37094 35.5096 9.37094Z" fill="url(#paint3_linear_14_2267)"/>
</g>
<mask id="mask2_14_2267" style="mask-type:alpha" maskUnits="userSpaceOnUse" x="60" y="0" width="12" height="10">
<path d="M65.7909 9.37094C68.6784 9.37094 71.0193 7.27314 71.0193 4.68544C71.0193 2.09774 68.6784 0 65.7909 0C62.9033 0 60.5625 2.09774 60.5625 4.68544C60.5625 7.27314 62.9033 9.37094 65.7909 9.37094Z" fill="url(#paint4_linear_14_2267)"/>
</mask>
<g mask="url(#mask2_14_2267)">
<path d="M65.7909 9.37094C68.6784 9.37094 71.0193 7.27314 71.0193 4.68544C71.0193 2.09774 68.6784 0 65.7909 0C62.9033 0 60.5625 2.09774 60.5625 4.68544C60.5625 7.27314 62.9033 9.37094 65.7909 9.37094Z" fill="url(#paint5_linear_14_2267)"/>
</g>
<mask id="mask3_14_2267" style="mask-type:alpha" maskUnits="userSpaceOnUse" x="90" y="0" width="12" height="10">
<path d="M96.0712 9.37094C98.9587 9.37094 101.3 7.27314 101.3 4.68544C101.3 2.09774 98.9587 0 96.0712 0C93.1836 0 90.8428 2.09774 90.8428 4.68544C90.8428 7.27314 93.1836 9.37094 96.0712 9.37094Z" fill="url(#paint6_linear_14_2267)"/>
</mask>
<g mask="url(#mask3_14_2267)">
<path d="M96.0712 9.37094C98.9587 9.37094 101.3 7.27314 101.3 4.68544C101.3 2.09774 98.9587 0 96.0712 0C93.1836 0 90.8428 2.09774 90.8428 4.68544C90.8428 7.27314 93.1836 9.37094 96.0712 9.37094Z" fill="url(#paint7_linear_14_2267)"/>
</g>
<mask id="mask4_14_2267" style="mask-type:alpha" maskUnits="userSpaceOnUse" x="121" y="0" width="11" height="10">
<path d="M126.352 9.37094C129.24 9.37094 131.581 7.27314 131.581 4.68544C131.581 2.09774 129.24 0 126.352 0C123.465 0 121.124 2.09774 121.124 4.68544C121.124 7.27314 123.465 9.37094 126.352 9.37094Z" fill="url(#paint8_linear_14_2267)"/>
</mask>
<g mask="url(#mask4_14_2267)">
<path d="M126.352 9.37094C129.24 9.37094 131.581 7.27314 131.581 4.68544C131.581 2.09774 129.24 0 126.352 0C123.465 0 121.124 2.09774 121.124 4.68544C121.124 7.27314 123.465 9.37094 126.352 9.37094Z" fill="url(#paint9_linear_14_2267)"/>
</g>
<mask id="mask5_14_2267" style="mask-type:alpha" maskUnits="userSpaceOnUse" x="0" y="23" width="11" height="10">
<path d="M5.22838 32.8961C8.11594 32.8961 10.4568 30.7983 10.4568 28.2106C10.4568 25.6229 8.11594 23.5252 5.22838 23.5252C2.34082 23.5252 0 25.6229 0 28.2106C0 30.7983 2.34082 32.8961 5.22838 32.8961Z" fill="url(#paint10_linear_14_2267)"/>
</mask>
<g mask="url(#mask5_14_2267)">
<path d="M5.22838 32.8961C8.11594 32.8961 10.4568 30.7983 10.4568 28.2106C10.4568 25.6229 8.11594 23.5252 5.22838 23.5252C2.34082 23.5252 0 25.6229 0 28.2106C0 30.7983 2.34082 32.8961 5.22838 32.8961Z" fill="url(#paint11_linear_14_2267)"/>
</g>
<mask id="mask6_14_2267" style="mask-type:alpha" maskUnits="userSpaceOnUse" x="30" y="23" width="11" height="10">
<path d="M35.5096 32.8961C38.3972 32.8961 40.738 30.7983 40.738 28.2106C40.738 25.6229 38.3972 23.5252 35.5096 23.5252C32.6221 23.5252 30.2812 25.6229 30.2812 28.2106C30.2812 30.7983 32.6221 32.8961 35.5096 32.8961Z" fill="url(#paint12_linear_14_2267)"/>
</mask>
<g mask="url(#mask6_14_2267)">
<path d="M35.5096 32.8961C38.3972 32.8961 40.738 30.7983 40.738 28.2106C40.738 25.6229 38.3972 23.5252 35.5096 23.5252C32.6221 23.5252 30.2812 25.6229 30.2812 28.2106C30.2812 30.7983 32.6221 32.8961 35.5096 32.8961Z" fill="url(#paint13_linear_14_2267)"/>
</g>
<mask id="mask7_14_2267" style="mask-type:alpha" maskUnits="userSpaceOnUse" x="60" y="23" width="12" height="10">
<path d="M65.7909 32.8961C68.6784 32.8961 71.0193 30.7983 71.0193 28.2106C71.0193 25.6229 68.6784 23.5252 65.7909 23.5252C62.9033 23.5252 60.5625 25.6229 60.5625 28.2106C60.5625 30.7983 62.9033 32.8961 65.7909 32.8961Z" fill="url(#paint14_linear_14_2267)"/>
</mask>
<g mask="url(#mask7_14_2267)">
<path d="M65.7909 32.8961C68.6784 32.8961 71.0193 30.7983 71.0193 28.2106C71.0193 25.6229 68.6784 23.5252 65.7909 23.5252C62.9033 23.5252 60.5625 25.6229 60.5625 28.2106C60.5625 30.7983 62.9033 32.8961 65.7909 32.8961Z" fill="url(#paint15_linear_14_2267)"/>
</g>
<mask id="mask8_14_2267" style="mask-type:alpha" maskUnits="userSpaceOnUse" x="90" y="23" width="12" height="10">
<path d="M96.0712 32.8961C98.9587 32.8961 101.3 30.7983 101.3 28.2106C101.3 25.6229 98.9587 23.5252 96.0712 23.5252C93.1836 23.5252 90.8428 25.6229 90.8428 28.2106C90.8428 30.7983 93.1836 32.8961 96.0712 32.8961Z" fill="url(#paint16_linear_14_2267)"/>
</mask>
<g mask="url(#mask8_14_2267)">
<path d="M96.0712 32.8961C98.9587 32.8961 101.3 30.7983 101.3 28.2106C101.3 25.6229 98.9587 23.5252 96.0712 23.5252C93.1836 23.5252 90.8428 25.6229 90.8428 28.2106C90.8428 30.7983 93.1836 32.8961 96.0712 32.8961Z" fill="url(#paint17_linear_14_2267)"/>
</g>
<mask id="mask9_14_2267" style="mask-type:alpha" maskUnits="userSpaceOnUse" x="121" y="23" width="11" height="10">
<path d="M126.352 32.8961C129.24 32.8961 131.581 30.7983 131.581 28.2106C131.581 25.6229 129.24 23.5252 126.352 23.5252C123.465 23.5252 121.124 25.6229 121.124 28.2106C121.124 30.7983 123.465 32.8961 126.352 32.8961Z" fill="url(#paint18_linear_14_2267)"/>
</mask>
<g mask="url(#mask9_14_2267)">
<path d="M126.352 32.8961C129.24 32.8961 131.581 30.7983 131.581 28.2106C131.581 25.6229 129.24 23.5252 126.352 23.5252C123.465 23.5252 121.124 25.6229 121.124 28.2106C121.124 30.7983 123.465 32.8961 126.352 32.8961Z" fill="url(#paint19_linear_14_2267)"/>
</g>
<mask id="mask10_14_2267" style="mask-type:alpha" maskUnits="userSpaceOnUse" x="0" y="47" width="11" height="10">
<path d="M5.22838 56.3722C8.11594 56.3722 10.4568 54.2744 10.4568 51.6867C10.4568 49.099 8.11594 47.0012 5.22838 47.0012C2.34082 47.0012 0 49.099 0 51.6867C0 54.2744 2.34082 56.3722 5.22838 56.3722Z" fill="url(#paint20_linear_14_2267)"/>
</mask>
<g mask="url(#mask10_14_2267)">
<path d="M5.22838 56.3722C8.11594 56.3722 10.4568 54.2744 10.4568 51.6867C10.4568 49.099 8.11594 47.0012 5.22838 47.0012C2.34082 47.0012 0 49.099 0 51.6867C0 54.2744 2.34082 56.3722 5.22838 56.3722Z" fill="url(#paint21_linear_14_2267)"/>
</g>
<mask id="mask11_14_2267" style="mask-type:alpha" maskUnits="userSpaceOnUse" x="30" y="47" width="11" height="10">
<path d="M35.5096 56.3722C38.3972 56.3722 40.738 54.2744 40.738 51.6867C40.738 49.099 38.3972 47.0012 35.5096 47.0012C32.6221 47.0012 30.2812 49.099 30.2812 51.6867C30.2812 54.2744 32.6221 56.3722 35.5096 56.3722Z" fill="url(#paint22_linear_14_2267)"/>
</mask>
<g mask="url(#mask11_14_2267)">
<path d="M35.5096 56.3722C38.3972 56.3722 40.738 54.2744 40.738 51.6867C40.738 49.099 38.3972 47.0012 35.5096 47.0012C32.6221 47.0012 30.2812 49.099 30.2812 51.6867C30.2812 54.2744 32.6221 56.3722 35.5096 56.3722Z" fill="url(#paint23_linear_14_2267)"/>
</g>
<mask id="mask12_14_2267" style="mask-type:alpha" maskUnits="userSpaceOnUse" x="60" y="47" width="12" height="10">
<path d="M65.7909 56.3722C68.6784 56.3722 71.0193 54.2744 71.0193 51.6867C71.0193 49.099 68.6784 47.0012 65.7909 47.0012C62.9033 47.0012 60.5625 49.099 60.5625 51.6867C60.5625 54.2744 62.9033 56.3722 65.7909 56.3722Z" fill="url(#paint24_linear_14_2267)"/>
</mask>
<g mask="url(#mask12_14_2267)">
<path d="M65.7909 56.3722C68.6784 56.3722 71.0193 54.2744 71.0193 51.6867C71.0193 49.099 68.6784 47.0012 65.7909 47.0012C62.9033 47.0012 60.5625 49.099 60.5625 51.6867C60.5625 54.2744 62.9033 56.3722 65.7909 56.3722Z" fill="url(#paint25_linear_14_2267)"/>
</g>
<mask id="mask13_14_2267" style="mask-type:alpha" maskUnits="userSpaceOnUse" x="90" y="47" width="12" height="10">
<path d="M96.0712 56.3722C98.9587 56.3722 101.3 54.2744 101.3 51.6867C101.3 49.099 98.9587 47.0012 96.0712 47.0012C93.1836 47.0012 90.8428 49.099 90.8428 51.6867C90.8428 54.2744 93.1836 56.3722 96.0712 56.3722Z" fill="url(#paint26_linear_14_2267)"/>
</mask>
<g mask="url(#mask13_14_2267)">
<path d="M96.0712 56.3722C98.9587 56.3722 101.3 54.2744 101.3 51.6867C101.3 49.099 98.9587 47.0012 96.0712 47.0012C93.1836 47.0012 90.8428 49.099 90.8428 51.6867C90.8428 54.2744 93.1836 56.3722 96.0712 56.3722Z" fill="url(#paint27_linear_14_2267)"/>
</g>
<mask id="mask14_14_2267" style="mask-type:alpha" maskUnits="userSpaceOnUse" x="121" y="47" width="11" height="10">
<path d="M126.352 56.3722C129.24 56.3722 131.581 54.2744 131.581 51.6867C131.581 49.099 129.24 47.0012 126.352 47.0012C123.465 47.0012 121.124 49.099 121.124 51.6867C121.124 54.2744 123.465 56.3722 126.352 56.3722Z" fill="url(#paint28_linear_14_2267)"/>
</mask>
<g mask="url(#mask14_14_2267)">
<path d="M126.352 56.3722C129.24 56.3722 131.581 54.2744 131.581 51.6867C131.581 49.099 129.24 47.0012 126.352 47.0012C123.465 47.0012 121.124 49.099 121.124 51.6867C121.124 54.2744 123.465 56.3722 126.352 56.3722Z" fill="url(#paint29_linear_14_2267)"/>
</g>
<mask id="mask15_14_2267" style="mask-type:alpha" maskUnits="userSpaceOnUse" x="0" y="70" width="11" height="10">
<path d="M5.22838 79.8971C8.11594 79.8971 10.4568 77.7993 10.4568 75.2116C10.4568 72.6239 8.11594 70.5261 5.22838 70.5261C2.34082 70.5261 0 72.6239 0 75.2116C0 77.7993 2.34082 79.8971 5.22838 79.8971Z" fill="url(#paint30_linear_14_2267)"/>
</mask>
<g mask="url(#mask15_14_2267)">
<path d="M5.22838 79.8971C8.11594 79.8971 10.4568 77.7993 10.4568 75.2116C10.4568 72.6239 8.11594 70.5261 5.22838 70.5261C2.34082 70.5261 0 72.6239 0 75.2116C0 77.7993 2.34082 79.8971 5.22838 79.8971Z" fill="url(#paint31_linear_14_2267)"/>
</g>
<mask id="mask16_14_2267" style="mask-type:alpha" maskUnits="userSpaceOnUse" x="30" y="70" width="11" height="10">
<path d="M35.5096 79.8971C38.3972 79.8971 40.738 77.7993 40.738 75.2116C40.738 72.6239 38.3972 70.5261 35.5096 70.5261C32.6221 70.5261 30.2812 72.6239 30.2812 75.2116C30.2812 77.7993 32.6221 79.8971 35.5096 79.8971Z" fill="url(#paint32_linear_14_2267)"/>
</mask>
<g mask="url(#mask16_14_2267)">
<path d="M35.5096 79.8971C38.3972 79.8971 40.738 77.7993 40.738 75.2116C40.738 72.6239 38.3972 70.5261 35.5096 70.5261C32.6221 70.5261 30.2812 72.6239 30.2812 75.2116C30.2812 77.7993 32.6221 79.8971 35.5096 79.8971Z" fill="url(#paint33_linear_14_2267)"/>
</g>
<mask id="mask17_14_2267" style="mask-type:alpha" maskUnits="userSpaceOnUse" x="60" y="70" width="12" height="10">
<path d="M65.7909 79.8971C68.6784 79.8971 71.0193 77.7993 71.0193 75.2116C71.0193 72.6239 68.6784 70.5261 65.7909 70.5261C62.9033 70.5261 60.5625 72.6239 60.5625 75.2116C60.5625 77.7993 62.9033 79.8971 65.7909 79.8971Z" fill="url(#paint34_linear_14_2267)"/>
</mask>
<g mask="url(#mask17_14_2267)">
<path d="M65.7909 79.8971C68.6784 79.8971 71.0193 77.7993 71.0193 75.2116C71.0193 72.6239 68.6784 70.5261 65.7909 70.5261C62.9033 70.5261 60.5625 72.6239 60.5625 75.2116C60.5625 77.7993 62.9033 79.8971 65.7909 79.8971Z" fill="url(#paint35_linear_14_2267)"/>
</g>
<mask id="mask18_14_2267" style="mask-type:alpha" maskUnits="userSpaceOnUse" x="90" y="70" width="12" height="10">
<path d="M96.0712 79.8971C98.9587 79.8971 101.3 77.7993 101.3 75.2116C101.3 72.6239 98.9587 70.5261 96.0712 70.5261C93.1836 70.5261 90.8428 72.6239 90.8428 75.2116C90.8428 77.7993 93.1836 79.8971 96.0712 79.8971Z" fill="url(#paint36_linear_14_2267)"/>
</mask>
<g mask="url(#mask18_14_2267)">
<path d="M96.0712 79.8971C98.9587 79.8971 101.3 77.7993 101.3 75.2116C101.3 72.6239 98.9587 70.5261 96.0712 70.5261C93.1836 70.5261 90.8428 72.6239 90.8428 75.2116C90.8428 77.7993 93.1836 79.8971 96.0712 79.8971Z" fill="url(#paint37_linear_14_2267)"/>
</g>
<mask id="mask19_14_2267" style="mask-type:alpha" maskUnits="userSpaceOnUse" x="121" y="70" width="11" height="10">
<path d="M126.352 79.8971C129.24 79.8971 131.581 77.7993 131.581 75.2116C131.581 72.6239 129.24 70.5261 126.352 70.5261C123.465 70.5261 121.124 72.6239 121.124 75.2116C121.124 77.7993 123.465 79.8971 126.352 79.8971Z" fill="url(#paint38_linear_14_2267)"/>
</mask>
<g mask="url(#mask19_14_2267)">
<path d="M126.352 79.8971C129.24 79.8971 131.581 77.7993 131.581 75.2116C131.581 72.6239 129.24 70.5261 126.352 70.5261C123.465 70.5261 121.124 72.6239 121.124 75.2116C121.124 77.7993 123.465 79.8971 126.352 79.8971Z" fill="url(#paint39_linear_14_2267)"/>
</g>
<mask id="mask20_14_2267" style="mask-type:alpha" maskUnits="userSpaceOnUse" x="0" y="94" width="11" height="10">
<path d="M5.22838 103.373C8.11594 103.373 10.4568 101.275 10.4568 98.6877C10.4568 96.1 8.11594 94.0022 5.22838 94.0022C2.34082 94.0022 0 96.1 0 98.6877C0 101.275 2.34082 103.373 5.22838 103.373Z" fill="url(#paint40_linear_14_2267)"/>
</mask>
<g mask="url(#mask20_14_2267)">
<path d="M5.22838 103.373C8.11594 103.373 10.4568 101.275 10.4568 98.6877C10.4568 96.1 8.11594 94.0022 5.22838 94.0022C2.34082 94.0022 0 96.1 0 98.6877C0 101.275 2.34082 103.373 5.22838 103.373Z" fill="url(#paint41_linear_14_2267)"/>
</g>
<mask id="mask21_14_2267" style="mask-type:alpha" maskUnits="userSpaceOnUse" x="30" y="94" width="11" height="10">
<path d="M35.5096 103.373C38.3972 103.373 40.738 101.275 40.738 98.6877C40.738 96.1 38.3972 94.0022 35.5096 94.0022C32.6221 94.0022 30.2812 96.1 30.2812 98.6877C30.2812 101.275 32.6221 103.373 35.5096 103.373Z" fill="url(#paint42_linear_14_2267)"/>
</mask>
<g mask="url(#mask21_14_2267)">
<path d="M35.5096 103.373C38.3972 103.373 40.738 101.275 40.738 98.6877C40.738 96.1 38.3972 94.0022 35.5096 94.0022C32.6221 94.0022 30.2812 96.1 30.2812 98.6877C30.2812 101.275 32.6221 103.373 35.5096 103.373Z" fill="url(#paint43_linear_14_2267)"/>
</g>
<mask id="mask22_14_2267" style="mask-type:alpha" maskUnits="userSpaceOnUse" x="60" y="94" width="12" height="10">
<path d="M65.7909 103.373C68.6784 103.373 71.0193 101.275 71.0193 98.6877C71.0193 96.1 68.6784 94.0022 65.7909 94.0022C62.9033 94.0022 60.5625 96.1 60.5625 98.6877C60.5625 101.275 62.9033 103.373 65.7909 103.373Z" fill="url(#paint44_linear_14_2267)"/>
</mask>
<g mask="url(#mask22_14_2267)">
<path d="M65.7909 103.373C68.6784 103.373 71.0193 101.275 71.0193 98.6877C71.0193 96.1 68.6784 94.0022 65.7909 94.0022C62.9033 94.0022 60.5625 96.1 60.5625 98.6877C60.5625 101.275 62.9033 103.373 65.7909 103.373Z" fill="url(#paint45_linear_14_2267)"/>
</g>
<mask id="mask23_14_2267" style="mask-type:alpha" maskUnits="userSpaceOnUse" x="90" y="94" width="12" height="10">
<path d="M96.0712 103.373C98.9587 103.373 101.3 101.275 101.3 98.6877C101.3 96.1 98.9587 94.0022 96.0712 94.0022C93.1836 94.0022 90.8428 96.1 90.8428 98.6877C90.8428 101.275 93.1836 103.373 96.0712 103.373Z" fill="url(#paint46_linear_14_2267)"/>
</mask>
<g mask="url(#mask23_14_2267)">
<path d="M96.0712 103.373C98.9587 103.373 101.3 101.275 101.3 98.6877C101.3 96.1 98.9587 94.0022 96.0712 94.0022C93.1836 94.0022 90.8428 96.1 90.8428 98.6877C90.8428 101.275 93.1836 103.373 96.0712 103.373Z" fill="url(#paint47_linear_14_2267)"/>
</g>
<mask id="mask24_14_2267" style="mask-type:alpha" maskUnits="userSpaceOnUse" x="121" y="94" width="11" height="10">
<path d="M126.352 103.373C129.24 103.373 131.581 101.275 131.581 98.6877C131.581 96.1 129.24 94.0022 126.352 94.0022C123.465 94.0022 121.124 96.1 121.124 98.6877C121.124 101.275 123.465 103.373 126.352 103.373Z" fill="url(#paint48_linear_14_2267)"/>
</mask>
<g mask="url(#mask24_14_2267)">
<path d="M126.352 103.373C129.24 103.373 131.581 101.275 131.581 98.6877C131.581 96.1 129.24 94.0022 126.352 94.0022C123.465 94.0022 121.124 96.1 121.124 98.6877C121.124 101.275 123.465 103.373 126.352 103.373Z" fill="url(#paint49_linear_14_2267)"/>
</g>
</g>
<defs>
<linearGradient id="paint0_linear_14_2267" x1="54.996" y1="117.876" x2="-4.21657" y2="-49.8501" gradientUnits="userSpaceOnUse">
<stop stop-color="white"/>
<stop offset="1" stop-color="white"/>
</linearGradient>
<linearGradient id="paint1_linear_14_2267" x1="54.996" y1="117.876" x2="-4.21657" y2="-49.8501" gradientUnits="userSpaceOnUse">
<stop stop-color="white"/>
<stop offset="1" stop-color="white"/>
</linearGradient>
<linearGradient id="paint2_linear_14_2267" x1="85.2773" y1="117.876" x2="26.0648" y2="-49.8502" gradientUnits="userSpaceOnUse">
<stop stop-color="white"/>
<stop offset="1" stop-color="white"/>
</linearGradient>
<linearGradient id="paint3_linear_14_2267" x1="85.2773" y1="117.876" x2="26.0648" y2="-49.8502" gradientUnits="userSpaceOnUse">
<stop stop-color="white"/>
<stop offset="1" stop-color="white"/>
</linearGradient>
<linearGradient id="paint4_linear_14_2267" x1="115.559" y1="117.876" x2="56.3461" y2="-49.8502" gradientUnits="userSpaceOnUse">
<stop stop-color="white"/>
<stop offset="1" stop-color="white"/>
</linearGradient>
<linearGradient id="paint5_linear_14_2267" x1="115.559" y1="117.876" x2="56.3461" y2="-49.8502" gradientUnits="userSpaceOnUse">
<stop stop-color="white"/>
<stop offset="1" stop-color="white"/>
</linearGradient>
<linearGradient id="paint6_linear_14_2267" x1="145.839" y1="117.876" x2="86.6263" y2="-49.8502" gradientUnits="userSpaceOnUse">
<stop stop-color="white"/>
<stop offset="1" stop-color="white"/>
</linearGradient>
<linearGradient id="paint7_linear_14_2267" x1="145.839" y1="117.876" x2="86.6263" y2="-49.8502" gradientUnits="userSpaceOnUse">
<stop stop-color="white"/>
<stop offset="1" stop-color="white"/>
</linearGradient>
<linearGradient id="paint8_linear_14_2267" x1="176.12" y1="117.876" x2="116.908" y2="-49.8502" gradientUnits="userSpaceOnUse">
<stop stop-color="white"/>
<stop offset="1" stop-color="white"/>
</linearGradient>
<linearGradient id="paint9_linear_14_2267" x1="176.12" y1="117.876" x2="116.908" y2="-49.8502" gradientUnits="userSpaceOnUse">
<stop stop-color="white"/>
<stop offset="1" stop-color="white"/>
</linearGradient>
<linearGradient id="paint10_linear_14_2267" x1="54.996" y1="141.4" x2="-4.21553" y2="-26.3248" gradientUnits="userSpaceOnUse">
<stop stop-color="white"/>
<stop offset="1" stop-color="white"/>
</linearGradient>
<linearGradient id="paint11_linear_14_2267" x1="54.996" y1="141.4" x2="-4.21553" y2="-26.3248" gradientUnits="userSpaceOnUse">
<stop stop-color="white"/>
<stop offset="1" stop-color="white"/>
</linearGradient>
<linearGradient id="paint12_linear_14_2267" x1="85.2773" y1="141.4" x2="26.0658" y2="-26.3249" gradientUnits="userSpaceOnUse">
<stop stop-color="white"/>
<stop offset="1" stop-color="white"/>
</linearGradient>
<linearGradient id="paint13_linear_14_2267" x1="85.2773" y1="141.4" x2="26.0658" y2="-26.3249" gradientUnits="userSpaceOnUse">
<stop stop-color="white"/>
<stop offset="1" stop-color="white"/>
</linearGradient>
<linearGradient id="paint14_linear_14_2267" x1="115.559" y1="141.4" x2="56.3471" y2="-26.3249" gradientUnits="userSpaceOnUse">
<stop stop-color="white"/>
<stop offset="1" stop-color="white"/>
</linearGradient>
<linearGradient id="paint15_linear_14_2267" x1="115.559" y1="141.4" x2="56.3471" y2="-26.3249" gradientUnits="userSpaceOnUse">
<stop stop-color="white"/>
<stop offset="1" stop-color="white"/>
</linearGradient>
<linearGradient id="paint16_linear_14_2267" x1="145.839" y1="141.4" x2="86.6274" y2="-26.3249" gradientUnits="userSpaceOnUse">
<stop stop-color="white"/>
<stop offset="1" stop-color="white"/>
</linearGradient>
<linearGradient id="paint17_linear_14_2267" x1="145.839" y1="141.4" x2="86.6274" y2="-26.3249" gradientUnits="userSpaceOnUse">
<stop stop-color="white"/>
<stop offset="1" stop-color="white"/>
</linearGradient>
<linearGradient id="paint18_linear_14_2267" x1="176.12" y1="141.4" x2="116.909" y2="-26.3249" gradientUnits="userSpaceOnUse">
<stop stop-color="white"/>
<stop offset="1" stop-color="white"/>
</linearGradient>
<linearGradient id="paint19_linear_14_2267" x1="176.12" y1="141.4" x2="116.909" y2="-26.3249" gradientUnits="userSpaceOnUse">
<stop stop-color="white"/>
<stop offset="1" stop-color="white"/>
</linearGradient>
<linearGradient id="paint20_linear_14_2267" x1="54.996" y1="164.877" x2="-4.21657" y2="-2.84892" gradientUnits="userSpaceOnUse">
<stop stop-color="white"/>
<stop offset="1" stop-color="white"/>
</linearGradient>
<linearGradient id="paint21_linear_14_2267" x1="54.996" y1="164.877" x2="-4.21657" y2="-2.84892" gradientUnits="userSpaceOnUse">
<stop stop-color="white"/>
<stop offset="1" stop-color="white"/>
</linearGradient>
<linearGradient id="paint22_linear_14_2267" x1="85.2773" y1="164.877" x2="26.0648" y2="-2.84896" gradientUnits="userSpaceOnUse">
<stop stop-color="white"/>
<stop offset="1" stop-color="white"/>
</linearGradient>
<linearGradient id="paint23_linear_14_2267" x1="85.2773" y1="164.877" x2="26.0648" y2="-2.84896" gradientUnits="userSpaceOnUse">
<stop stop-color="white"/>
<stop offset="1" stop-color="white"/>
</linearGradient>
<linearGradient id="paint24_linear_14_2267" x1="115.559" y1="164.877" x2="56.3461" y2="-2.84896" gradientUnits="userSpaceOnUse">
<stop stop-color="white"/>
<stop offset="1" stop-color="white"/>
</linearGradient>
<linearGradient id="paint25_linear_14_2267" x1="115.559" y1="164.877" x2="56.3461" y2="-2.84896" gradientUnits="userSpaceOnUse">
<stop stop-color="white"/>
<stop offset="1" stop-color="white"/>
</linearGradient>
<linearGradient id="paint26_linear_14_2267" x1="145.839" y1="164.877" x2="86.6263" y2="-2.84896" gradientUnits="userSpaceOnUse">
<stop stop-color="white"/>
<stop offset="1" stop-color="white"/>
</linearGradient>
<linearGradient id="paint27_linear_14_2267" x1="145.839" y1="164.877" x2="86.6263" y2="-2.84896" gradientUnits="userSpaceOnUse">
<stop stop-color="white"/>
<stop offset="1" stop-color="white"/>
</linearGradient>
<linearGradient id="paint28_linear_14_2267" x1="176.12" y1="164.877" x2="116.908" y2="-2.84896" gradientUnits="userSpaceOnUse">
<stop stop-color="white"/>
<stop offset="1" stop-color="white"/>
</linearGradient>
<linearGradient id="paint29_linear_14_2267" x1="176.12" y1="164.877" x2="116.908" y2="-2.84896" gradientUnits="userSpaceOnUse">
<stop stop-color="white"/>
<stop offset="1" stop-color="white"/>
</linearGradient>
<linearGradient id="paint30_linear_14_2267" x1="54.996" y1="188.402" x2="-4.21657" y2="20.676" gradientUnits="userSpaceOnUse">
<stop stop-color="white"/>
<stop offset="1" stop-color="white"/>
</linearGradient>
<linearGradient id="paint31_linear_14_2267" x1="54.996" y1="188.402" x2="-4.21657" y2="20.676" gradientUnits="userSpaceOnUse">
<stop stop-color="white"/>
<stop offset="1" stop-color="white"/>
</linearGradient>
<linearGradient id="paint32_linear_14_2267" x1="85.2773" y1="188.402" x2="26.0648" y2="20.6759" gradientUnits="userSpaceOnUse">
<stop stop-color="white"/>
<stop offset="1" stop-color="white"/>
</linearGradient>
<linearGradient id="paint33_linear_14_2267" x1="85.2773" y1="188.402" x2="26.0648" y2="20.6759" gradientUnits="userSpaceOnUse">
<stop stop-color="white"/>
<stop offset="1" stop-color="white"/>
</linearGradient>
<linearGradient id="paint34_linear_14_2267" x1="115.559" y1="188.402" x2="56.3461" y2="20.6759" gradientUnits="userSpaceOnUse">
<stop stop-color="white"/>
<stop offset="1" stop-color="white"/>
</linearGradient>
<linearGradient id="paint35_linear_14_2267" x1="115.559" y1="188.402" x2="56.3461" y2="20.6759" gradientUnits="userSpaceOnUse">
<stop stop-color="white"/>
<stop offset="1" stop-color="white"/>
</linearGradient>
<linearGradient id="paint36_linear_14_2267" x1="145.839" y1="188.402" x2="86.6263" y2="20.6759" gradientUnits="userSpaceOnUse">
<stop stop-color="white"/>
<stop offset="1" stop-color="white"/>
</linearGradient>
<linearGradient id="paint37_linear_14_2267" x1="145.839" y1="188.402" x2="86.6263" y2="20.6759" gradientUnits="userSpaceOnUse">
<stop stop-color="white"/>
<stop offset="1" stop-color="white"/>
</linearGradient>
<linearGradient id="paint38_linear_14_2267" x1="176.12" y1="188.402" x2="116.908" y2="20.6759" gradientUnits="userSpaceOnUse">
<stop stop-color="white"/>
<stop offset="1" stop-color="white"/>
</linearGradient>
<linearGradient id="paint39_linear_14_2267" x1="176.12" y1="188.402" x2="116.908" y2="20.6759" gradientUnits="userSpaceOnUse">
<stop stop-color="white"/>
<stop offset="1" stop-color="white"/>
</linearGradient>
<linearGradient id="paint40_linear_14_2267" x1="54.996" y1="211.878" x2="-4.21657" y2="44.1521" gradientUnits="userSpaceOnUse">
<stop stop-color="white"/>
<stop offset="1" stop-color="white"/>
</linearGradient>
<linearGradient id="paint41_linear_14_2267" x1="54.996" y1="211.878" x2="-4.21657" y2="44.1521" gradientUnits="userSpaceOnUse">
<stop stop-color="white"/>
<stop offset="1" stop-color="white"/>
</linearGradient>
<linearGradient id="paint42_linear_14_2267" x1="85.2773" y1="211.878" x2="26.0648" y2="44.152" gradientUnits="userSpaceOnUse">
<stop stop-color="white"/>
<stop offset="1" stop-color="white"/>
</linearGradient>
<linearGradient id="paint43_linear_14_2267" x1="85.2773" y1="211.878" x2="26.0648" y2="44.152" gradientUnits="userSpaceOnUse">
<stop stop-color="white"/>
<stop offset="1" stop-color="white"/>
</linearGradient>
<linearGradient id="paint44_linear_14_2267" x1="115.559" y1="211.878" x2="56.3461" y2="44.152" gradientUnits="userSpaceOnUse">
<stop stop-color="white"/>
<stop offset="1" stop-color="white"/>
</linearGradient>
<linearGradient id="paint45_linear_14_2267" x1="115.559" y1="211.878" x2="56.3461" y2="44.152" gradientUnits="userSpaceOnUse">
<stop stop-color="white"/>
<stop offset="1" stop-color="white"/>
</linearGradient>
<linearGradient id="paint46_linear_14_2267" x1="145.839" y1="211.878" x2="86.6263" y2="44.152" gradientUnits="userSpaceOnUse">
<stop stop-color="white"/>
<stop offset="1" stop-color="white"/>
</linearGradient>
<linearGradient id="paint47_linear_14_2267" x1="145.839" y1="211.878" x2="86.6263" y2="44.152" gradientUnits="userSpaceOnUse">
<stop stop-color="white"/>
<stop offset="1" stop-color="white"/>
</linearGradient>
<linearGradient id="paint48_linear_14_2267" x1="176.12" y1="211.878" x2="116.908" y2="44.152" gradientUnits="userSpaceOnUse">
<stop stop-color="white"/>
<stop offset="1" stop-color="white"/>
</linearGradient>
<linearGradient id="paint49_linear_14_2267" x1="176.12" y1="211.878" x2="116.908" y2="44.152" gradientUnits="userSpaceOnUse">
<stop stop-color="white"/>
<stop offset="1" stop-color="white"/>
</linearGradient>
</defs>
</svg>
