<svg width="15" height="15" viewBox="0 0 15 15" fill="none" xmlns="http://www.w3.org/2000/svg">
<path d="M8.40039 6.40002V1.40002C8.40039 1.13481 8.29503 0.880454 8.1075 0.692918C7.91996 0.505381 7.66561 0.400024 7.40039 0.400024C7.13517 0.400024 6.88082 0.505381 6.69328 0.692918C6.50575 0.880454 6.40039 1.13481 6.40039 1.40002V6.40002H1.40039C1.13517 6.40002 0.88082 6.50538 0.693284 6.69292C0.505748 6.88045 0.400391 7.13481 0.400391 7.40002C0.400391 7.66524 0.505748 7.9196 0.693284 8.10713C0.88082 8.29467 1.13517 8.40002 1.40039 8.40002H6.40039V13.4C6.40039 13.6652 6.50575 13.9196 6.69328 14.1071C6.88082 14.2947 7.13517 14.4 7.40039 14.4C7.66561 14.4 7.91996 14.2947 8.1075 14.1071C8.29503 13.9196 8.40039 13.6652 8.40039 13.4V8.40002H13.4004C13.6656 8.40002 13.92 8.29467 14.1075 8.10713C14.295 7.9196 14.4004 7.66524 14.4004 7.40002C14.4004 7.13481 14.295 6.88045 14.1075 6.69292C13.92 6.50538 13.6656 6.40002 13.4004 6.40002H8.40039Z" fill="#21272A"/>
</svg>
