<svg width="100" height="27" viewBox="0 0 100 27" fill="none" xmlns="http://www.w3.org/2000/svg">
<path d="M14.8692 12.8999C14.8801 12.0432 15.1028 11.2033 15.5169 10.4583C15.9309 9.71325 16.5227 9.08727 17.2373 8.6386C16.7833 7.97647 16.1845 7.43156 15.4883 7.04716C14.7921 6.66275 14.0177 6.44944 13.2267 6.42417C11.5393 6.24327 9.90343 7.45543 9.04356 7.45543C8.16705 7.45543 6.84315 6.44213 5.41752 6.47208C4.49538 6.50251 3.59669 6.77638 2.809 7.26702C2.02131 7.75765 1.37149 8.44831 0.922857 9.2717C-1.02054 12.7082 0.429058 17.7587 2.29067 20.5365C3.22208 21.8967 4.31063 23.4161 5.73497 23.3622C7.12877 23.3031 7.64933 22.4544 9.33177 22.4544C10.9986 22.4544 11.487 23.3622 12.9402 23.3279C14.4358 23.3031 15.3781 21.9617 16.2769 20.5886C16.9461 19.6194 17.461 18.5482 17.8027 17.4147C16.9338 17.0394 16.1923 16.4111 15.6706 15.6082C15.149 14.8054 14.8703 13.8634 14.8692 12.8999V12.8999Z" fill="white"/>
<path d="M12.1246 4.59708C12.9401 3.59724 13.3419 2.31213 13.2446 1.01465C11.9987 1.14829 10.8479 1.75644 10.0214 2.71791C9.61731 3.18761 9.30782 3.73405 9.11062 4.32599C8.91342 4.91793 8.83238 5.54376 8.87214 6.16771C9.49529 6.17426 10.1118 6.03631 10.6752 5.76425C11.2386 5.49219 11.7342 5.09311 12.1246 4.59708Z" fill="white"/>
<path d="M32.4875 19.918H27.7311L26.5888 23.3628H24.5742L29.0794 10.6182H31.1725L35.6777 23.3628H33.6288L32.4875 19.918ZM28.2237 18.3285H31.9939L30.1353 12.7379H30.0833L28.2237 18.3285Z" fill="white"/>
<path d="M45.4077 18.717C45.4077 21.6045 43.8945 23.4597 41.611 23.4597C41.0326 23.4906 40.4573 23.3545 39.951 23.067C39.4448 22.7795 39.0281 22.3522 38.7485 21.834H38.7053V26.4363H36.8379V14.0706H38.6455V15.6161H38.6798C38.9722 15.1004 39.396 14.6753 39.9061 14.3861C40.4162 14.0968 40.9935 13.9542 41.5767 13.9734C43.8856 13.9734 45.4077 15.8376 45.4077 18.717ZM43.4883 18.717C43.4883 16.8358 42.5364 15.599 41.084 15.599C39.6572 15.599 38.6975 16.8619 38.6975 18.717C38.6975 20.5892 39.6572 21.843 41.084 21.843C42.5364 21.843 43.4883 20.6153 43.4883 18.717Z" fill="white"/>
<path d="M55.4204 18.717C55.4204 21.6045 53.9072 23.4597 51.6237 23.4597C51.0453 23.4906 50.47 23.3545 49.9637 23.067C49.4575 22.7795 49.0407 22.3522 48.7612 21.834H48.718V26.4363H46.8506V14.0706H48.6582V15.6161H48.6925C48.9849 15.1004 49.4086 14.6753 49.9187 14.3861C50.4288 14.0968 51.0062 13.9542 51.5893 13.9734C53.8984 13.9734 55.4204 15.8376 55.4204 18.717ZM53.5009 18.717C53.5009 16.8358 52.5491 15.599 51.0967 15.599C49.6699 15.599 48.7102 16.8619 48.7102 18.717C48.7102 20.5892 49.6699 21.843 51.0967 21.843C52.5491 21.843 53.501 20.6153 53.501 18.717H53.5009Z" fill="white"/>
<path d="M62.0386 19.8119C62.1769 21.0757 63.3791 21.9056 65.0218 21.9056C66.5958 21.9056 67.7282 21.0757 67.7282 19.9361C67.7282 18.9469 67.0452 18.3546 65.428 17.9487L63.8108 17.5508C61.5195 16.9855 60.4557 15.8911 60.4557 14.1151C60.4557 11.9161 62.332 10.4058 64.9962 10.4058C67.633 10.4058 69.4406 11.9161 69.5014 14.1151H67.6163C67.5035 12.8432 66.4741 12.0755 64.9697 12.0755C63.4654 12.0755 62.436 12.8523 62.436 13.9828C62.436 14.8838 63.0935 15.414 64.7018 15.8199L66.0766 16.1646C68.6369 16.783 69.7006 17.8334 69.7006 19.6976C69.7006 22.0819 67.841 23.5753 64.8834 23.5753C62.1161 23.5753 60.2477 22.117 60.127 19.8118L62.0386 19.8119Z" fill="white"/>
<path d="M73.7313 11.8721V14.071H75.4613V15.5814H73.7313V20.7039C73.7313 21.4997 74.0777 21.8705 74.8382 21.8705C75.0436 21.8668 75.2486 21.8521 75.4525 21.8264V23.3277C75.1106 23.393 74.763 23.4225 74.4153 23.4159C72.5734 23.4159 71.855 22.7093 71.855 20.9073V15.5814H70.5322V14.071H71.855V11.8721H73.7313Z" fill="white"/>
<path d="M76.4629 18.7177C76.4629 15.7942 78.1488 13.957 80.7777 13.957C83.4155 13.957 85.0935 15.7941 85.0935 18.7177C85.0935 21.6493 83.4243 23.4784 80.7777 23.4784C78.1321 23.4784 76.4629 21.6493 76.4629 18.7177ZM83.1907 18.7177C83.1907 16.7122 82.2909 15.5286 80.7777 15.5286C79.2645 15.5286 78.3656 16.7212 78.3656 18.7177C78.3656 20.7312 79.2645 21.9059 80.7777 21.9059C82.2909 21.9059 83.1907 20.7312 83.1907 18.7177H83.1907Z" fill="white"/>
<path d="M86.6328 14.0705H88.4139V15.6521H88.4571C88.5776 15.1581 88.8609 14.7216 89.2594 14.4159C89.658 14.1102 90.1474 13.9539 90.6454 13.9733C90.8606 13.9725 91.0752 13.9964 91.2852 14.0445V15.8285C91.0136 15.7437 90.7301 15.7047 90.4462 15.7132C90.1749 15.702 89.9044 15.7508 89.6534 15.8564C89.4023 15.962 89.1766 16.1218 88.9917 16.3249C88.8069 16.528 88.6672 16.7696 88.5824 17.033C88.4975 17.2964 88.4695 17.5755 88.5002 17.851V23.3624H86.6328L86.6328 14.0705Z" fill="white"/>
<path d="M99.8952 20.634C99.644 22.3208 98.0356 23.4784 95.9778 23.4784C93.3312 23.4784 91.6885 21.6673 91.6885 18.7618C91.6885 15.8473 93.34 13.957 95.8993 13.957C98.4163 13.957 99.9992 15.723 99.9992 18.5403V19.1938H93.5736V19.309C93.5439 19.651 93.5858 19.9955 93.6966 20.3196C93.8073 20.6438 93.9842 20.9402 94.2157 21.1891C94.4472 21.438 94.7279 21.6338 95.0391 21.7634C95.3504 21.893 95.6851 21.9536 96.021 21.9409C96.4623 21.9832 96.9051 21.8788 97.2837 21.6433C97.6622 21.4078 97.9562 21.0538 98.122 20.634L99.8952 20.634ZM93.5824 17.8608H98.1308C98.1475 17.5533 98.1019 17.2456 97.9967 16.957C97.8915 16.6684 97.7291 16.4051 97.5195 16.1837C97.31 15.9622 97.0579 15.7874 96.7791 15.6702C96.5003 15.553 96.2007 15.4959 95.8993 15.5025C95.5952 15.5006 95.2937 15.5603 95.0123 15.6781C94.7309 15.7958 94.4751 15.9694 94.2597 16.1886C94.0443 16.4079 93.8736 16.6685 93.7573 16.9555C93.6411 17.2425 93.5816 17.5502 93.5824 17.8608V17.8608Z" fill="white"/>
<path d="M26.9568 0.737906C27.3483 0.709211 27.7411 0.769619 28.107 0.914772C28.4729 1.05992 28.8027 1.2862 29.0726 1.57729C29.3425 1.86837 29.5457 2.21701 29.6677 2.59804C29.7897 2.97908 29.8274 3.38302 29.778 3.78072C29.778 5.73711 28.7428 6.86168 26.9568 6.86168H24.791V0.737906H26.9568ZM25.7223 5.99565H26.8527C27.1325 6.01273 27.4125 5.96588 27.6723 5.85851C27.9321 5.75115 28.1651 5.58596 28.3546 5.37499C28.544 5.16402 28.6849 4.91257 28.7672 4.63894C28.8494 4.36531 28.8709 4.07638 28.8301 3.7932C28.868 3.51114 28.8443 3.22401 28.7608 2.95239C28.6773 2.68076 28.5359 2.43137 28.347 2.22207C28.158 2.01278 27.926 1.84877 27.6677 1.74179C27.4094 1.63481 27.1311 1.58752 26.8527 1.60329H25.7223V5.99565Z" fill="white"/>
<path d="M30.8304 4.54919C30.802 4.24549 30.836 3.93907 30.9303 3.64958C31.0246 3.3601 31.1771 3.09393 31.378 2.86817C31.5789 2.6424 31.8238 2.46201 32.097 2.33857C32.3701 2.21513 32.6655 2.15137 32.9643 2.15137C33.263 2.15137 33.5584 2.21513 33.8316 2.33857C34.1047 2.46201 34.3496 2.6424 34.5506 2.86817C34.7515 3.09393 34.904 3.3601 34.9983 3.64958C35.0926 3.93907 35.1266 4.24549 35.0981 4.54919C35.1271 4.85321 35.0935 5.16005 34.9995 5.45001C34.9054 5.73996 34.753 6.00662 34.552 6.23283C34.3511 6.45904 34.106 6.63981 33.8325 6.76351C33.5591 6.88721 33.2633 6.95112 32.9643 6.95112C32.6652 6.95112 32.3694 6.88721 32.096 6.76351C31.8225 6.63981 31.5775 6.45904 31.3765 6.23283C31.1755 6.00662 31.0231 5.73996 30.9291 5.45001C30.835 5.16005 30.8014 4.85321 30.8304 4.54919V4.54919ZM34.1796 4.54919C34.1796 3.54745 33.739 2.96164 32.9657 2.96164C32.1895 2.96164 31.7529 3.54745 31.7529 4.54921C31.7529 5.55897 32.1896 6.14027 32.9657 6.14027C33.739 6.14026 34.1796 5.55495 34.1796 4.54919H34.1796Z" fill="white"/>
<path d="M40.7704 6.86208H39.8441L38.9089 3.45845H38.8382L37.907 6.86208H36.9894L35.7422 2.24072H36.6479L37.4585 5.76709H37.5252L38.4555 2.24072H39.3122L40.2425 5.76709H40.3131L41.1198 2.24072H42.0128L40.7704 6.86208Z" fill="white"/>
<path d="M43.0615 2.24024H43.9212V2.97438H43.9879C44.1011 2.71071 44.292 2.48967 44.5341 2.34208C44.7761 2.19449 45.0572 2.12771 45.3382 2.15103C45.5583 2.13413 45.7794 2.16803 45.985 2.25023C46.1906 2.33244 46.3754 2.46083 46.5258 2.62591C46.6763 2.79098 46.7884 2.9885 46.8539 3.20384C46.9194 3.41918 46.9366 3.64681 46.9043 3.86988V6.86155H46.0113V4.09891C46.0113 3.35625 45.6954 2.98692 45.0349 2.98692C44.8855 2.9798 44.7362 3.00579 44.5975 3.06309C44.4588 3.12039 44.3338 3.20764 44.2312 3.31888C44.1286 3.43012 44.0507 3.5627 44.003 3.70754C43.9552 3.85238 43.9387 4.00606 43.9545 4.15804V6.8616H43.0615L43.0615 2.24024Z" fill="white"/>
<path d="M48.3271 0.436523H49.2201V6.86193H48.3271V0.436523Z" fill="white"/>
<path d="M50.4622 4.54928C50.4338 4.24556 50.4678 3.93912 50.5621 3.64962C50.6565 3.36012 50.809 3.09395 51.0099 2.86818C51.2109 2.6424 51.4558 2.46201 51.729 2.33857C52.0022 2.21513 52.2976 2.15137 52.5963 2.15137C52.8951 2.15137 53.1905 2.21513 53.4637 2.33857C53.7369 2.46201 53.9818 2.6424 54.1827 2.86818C54.3837 3.09395 54.5362 3.36012 54.6305 3.64962C54.7248 3.93912 54.7588 4.24556 54.7304 4.54928C54.7594 4.85331 54.7257 5.16015 54.6317 5.45011C54.5376 5.74006 54.3851 6.00671 54.1842 6.23291C53.9832 6.45912 53.7381 6.63988 53.4646 6.76358C53.1912 6.88728 52.8954 6.95118 52.5963 6.95118C52.2972 6.95118 52.0015 6.88728 51.728 6.76358C51.4546 6.63988 51.2095 6.45912 51.0085 6.23291C50.8075 6.00671 50.6551 5.74006 50.561 5.45011C50.4669 5.16015 50.4333 4.85331 50.4622 4.54928V4.54928ZM53.8114 4.54928C53.8114 3.54754 53.3708 2.96173 52.5975 2.96173C51.8213 2.96173 51.3847 3.54754 51.3847 4.54929C51.3847 5.55906 51.8214 6.14036 52.5975 6.14036C53.3708 6.14035 53.8114 5.55504 53.8114 4.54928H53.8114Z" fill="white"/>
<path d="M55.6699 5.55499C55.6699 4.72312 56.2764 4.24355 57.3529 4.1754L58.5785 4.10324V3.70435C58.5785 3.21625 58.2625 2.94063 57.6522 2.94063C57.1537 2.94063 56.8082 3.12755 56.7091 3.45429H55.8446C55.9359 2.66051 56.6669 2.15137 57.6934 2.15137C58.8278 2.15137 59.4676 2.72815 59.4676 3.70435V6.86193H58.608V6.21247H58.5373C58.3939 6.44543 58.1925 6.63535 57.9537 6.76283C57.715 6.89031 57.4473 6.95078 57.1782 6.93807C56.9882 6.95825 56.7963 6.93755 56.6146 6.87731C56.433 6.81706 56.2657 6.71861 56.1236 6.58831C55.9815 6.458 55.8677 6.29872 55.7896 6.12074C55.7114 5.94277 55.6707 5.75004 55.6699 5.55499V5.55499ZM58.5785 5.1601V4.77374L57.4736 4.8459C56.8504 4.88849 56.5678 5.10498 56.5678 5.51239C56.5678 5.92832 56.9211 6.17036 57.4069 6.17036C57.5492 6.18508 57.693 6.1704 57.8296 6.1272C57.9663 6.08401 58.0931 6.01317 58.2024 5.91891C58.3117 5.82466 58.4013 5.70891 58.466 5.57855C58.5306 5.44819 58.5689 5.30588 58.5785 5.1601V5.1601Z" fill="white"/>
<path d="M60.6406 4.54926C60.6406 3.08899 61.3756 2.16391 62.5189 2.16391C62.8016 2.1506 63.0823 2.21978 63.328 2.36335C63.5737 2.50693 63.7743 2.71897 63.9064 2.97469H63.9732V0.436523H64.8661V6.86193H64.0104V6.13179H63.9398C63.7975 6.38579 63.5899 6.59519 63.3394 6.73731C63.089 6.87944 62.8052 6.94887 62.5189 6.93809C61.3678 6.93814 60.6406 6.01304 60.6406 4.54926ZM61.5631 4.54926C61.5631 5.52946 62.0155 6.11929 62.7721 6.11929C63.5247 6.11929 63.9899 5.52095 63.9899 4.55327C63.9899 3.59011 63.5198 2.98325 62.7721 2.98325C62.0204 2.98325 61.5631 3.57708 61.5631 4.54926H61.5631Z" fill="white"/>
<path d="M68.5619 4.54919C68.5334 4.24549 68.5674 3.93907 68.6617 3.64958C68.756 3.3601 68.9085 3.09393 69.1094 2.86817C69.3103 2.6424 69.5552 2.46201 69.8284 2.33857C70.1016 2.21513 70.397 2.15137 70.6957 2.15137C70.9944 2.15137 71.2898 2.21513 71.563 2.33857C71.8362 2.46201 72.0811 2.6424 72.282 2.86817C72.4829 3.09393 72.6354 3.3601 72.7297 3.64958C72.824 3.93907 72.858 4.24549 72.8296 4.54919C72.8586 4.85321 72.8249 5.16005 72.7309 5.45001C72.6368 5.73996 72.4844 6.00662 72.2835 6.23283C72.0825 6.45904 71.8374 6.63981 71.564 6.76351C71.2905 6.88721 70.9948 6.95112 70.6957 6.95112C70.3966 6.95112 70.1009 6.88721 69.8274 6.76351C69.554 6.63981 69.3089 6.45904 69.1079 6.23283C68.907 6.00662 68.7546 5.73996 68.6605 5.45001C68.5665 5.16005 68.5329 4.85321 68.5619 4.54919V4.54919ZM71.9111 4.54919C71.9111 3.54745 71.4704 2.96164 70.6972 2.96164C69.921 2.96164 69.4843 3.54745 69.4843 4.54921C69.4843 5.55897 69.921 6.14027 70.6972 6.14027C71.4705 6.14026 71.9111 5.55495 71.9111 4.54919Z" fill="white"/>
<path d="M74.0283 2.24024H74.8879V2.97438H74.9547C75.0679 2.71071 75.2588 2.48967 75.5009 2.34208C75.7429 2.19449 76.024 2.12771 76.305 2.15103C76.5251 2.13413 76.7462 2.16803 76.9518 2.25023C77.1574 2.33244 77.3422 2.46083 77.4926 2.62591C77.6431 2.79098 77.7552 2.9885 77.8207 3.20384C77.8862 3.41918 77.9034 3.64681 77.8711 3.86988V6.86155H76.9781V4.09891C76.9781 3.35625 76.6622 2.98692 76.0017 2.98692C75.8523 2.9798 75.703 3.00579 75.5643 3.06309C75.4256 3.12039 75.3006 3.20764 75.198 3.31888C75.0954 3.43012 75.0175 3.5627 74.9698 3.70754C74.922 3.85238 74.9055 4.00606 74.9213 4.15804V6.8616H74.0283V2.24024Z" fill="white"/>
<path d="M82.916 1.08984V2.26147H83.8963V3.0297H82.916V5.40602C82.916 5.89011 83.1113 6.10208 83.5558 6.10208C83.6696 6.10171 83.7833 6.09468 83.8963 6.08103V6.84073C83.736 6.87003 83.5735 6.88562 83.4106 6.88734C82.4175 6.88734 82.022 6.53053 82.022 5.63954V3.02966H81.3037V2.26143H82.022V1.08984H82.916Z" fill="white"/>
<path d="M85.1172 0.436523H86.0023V2.98324H86.073C86.1917 2.7171 86.3879 2.49481 86.6347 2.34667C86.8816 2.19852 87.1672 2.13173 87.4527 2.15538C87.6717 2.14321 87.8906 2.18056 88.0939 2.26476C88.2971 2.34896 88.4797 2.47793 88.6286 2.64249C88.7774 2.80704 88.8888 3.00312 88.9549 3.21673C89.021 3.43034 89.0402 3.65621 89.011 3.87824V6.86194H88.1171V4.10324C88.1171 3.36508 87.7805 2.99124 87.1495 2.99124C86.996 2.97839 86.8417 2.99994 86.6972 3.05439C86.5527 3.10884 86.4216 3.19487 86.3131 3.30647C86.2046 3.41806 86.1213 3.55253 86.0689 3.70046C86.0166 3.84839 85.9966 4.0062 86.0102 4.16287V6.86192H85.1172L85.1172 0.436523Z" fill="white"/>
<path d="M94.2176 5.6142C94.0963 6.03657 93.8334 6.40192 93.475 6.64633C93.1166 6.89074 92.6854 6.99866 92.2569 6.9512C91.9588 6.95924 91.6626 6.90092 91.3888 6.7803C91.1149 6.65968 90.8701 6.47965 90.6712 6.25269C90.4723 6.02574 90.3242 5.7573 90.2371 5.46602C90.15 5.17473 90.126 4.86757 90.1668 4.56586C90.1271 4.26322 90.1515 3.9554 90.2384 3.66324C90.3253 3.37108 90.4727 3.1014 90.6705 2.87246C90.8683 2.64352 91.112 2.46066 91.385 2.33627C91.658 2.21187 91.9541 2.14884 92.253 2.15144C93.512 2.15144 94.2716 3.02996 94.2716 4.48115V4.79939H91.0764V4.8505C91.0624 5.0201 91.0833 5.1908 91.1377 5.35167C91.1921 5.51255 91.2788 5.66003 91.3922 5.78468C91.5057 5.90933 91.6434 6.00839 91.7965 6.07551C91.9497 6.14263 92.1148 6.17632 92.2815 6.17443C92.4951 6.20062 92.7115 6.16134 92.9032 6.06158C93.0949 5.96181 93.2532 5.80608 93.358 5.61417L94.2176 5.6142ZM91.0764 4.12487H93.3619C93.3731 3.96976 93.3525 3.81397 93.3013 3.6675C93.2501 3.52103 93.1694 3.38712 93.0646 3.27437C92.9597 3.16162 92.8328 3.07254 92.6922 3.01283C92.5516 2.95312 92.4003 2.92412 92.2481 2.92769C92.0936 2.92571 91.9404 2.95532 91.7973 3.01479C91.6542 3.07426 91.5243 3.16238 91.4151 3.27395C91.3059 3.38552 91.2197 3.51829 91.1615 3.66443C91.1034 3.81057 91.0744 3.96713 91.0764 4.12487H91.0764Z" fill="white"/>
</svg>
