<svg width="116" height="30" viewBox="0 0 116 30" fill="none" xmlns="http://www.w3.org/2000/svg">
<path d="M10.8176 15.7041L16.3361 10.0778L4.31761 2.9914C3.86608 2.71775 3.35059 2.57314 2.82531 2.57275C2.19169 2.57461 1.57618 2.78838 1.07321 3.18126C0.570254 3.57415 0.20764 4.12444 0.0410156 4.74769V4.74769L10.8176 15.7041Z" fill="#34A853"/>
<path d="M0.0711355 4.7583C0.0181706 4.99949 -0.00537669 5.24642 0.00102772 5.49349V25.9154C0.00277568 26.1706 0.0364323 26.4245 0.101183 26.671L11.1182 15.439L0.0711355 4.7583Z" fill="#4285F4"/>
<path d="M21.5248 13.1517L16.3368 10.0884L10.5078 15.3879L16.3568 21.3613L21.5148 18.298C21.9733 18.0476 22.3566 17.6751 22.6238 17.2202C22.891 16.7652 23.0321 16.2449 23.0321 15.7146C23.0321 15.1843 22.891 14.664 22.6238 14.2091C22.3566 13.7541 21.9733 13.3816 21.5148 13.1312L21.5248 13.1517Z" fill="#FBBC04"/>
<path d="M10.7377 15.1118L0.0712891 26.6502C0.187812 27.0866 0.401173 27.4899 0.69489 27.8289C0.988607 28.1678 1.35482 28.4334 1.76524 28.6052C2.17566 28.7769 2.61931 28.8501 3.06191 28.8192C3.50451 28.7883 3.93421 28.6541 4.31784 28.4269V28.4269L16.3364 21.3609L10.7377 15.1118Z" fill="#EA4335"/>
<path d="M58.231 17.4913C57.3872 17.4933 56.5629 17.7504 55.8624 18.23C55.1618 18.7097 54.6165 19.3903 54.2954 20.186C53.9743 20.9816 53.8919 21.8564 54.0584 22.6998C54.225 23.5432 54.6331 24.3173 55.2312 24.9242C55.8293 25.5311 56.5905 25.9435 57.4185 26.1094C58.2466 26.2753 59.1042 26.1871 59.8831 25.856C60.6619 25.5249 61.327 24.9658 61.7942 24.2493C62.2613 23.5329 62.5096 22.6913 62.5077 21.8309C62.5158 21.257 62.4106 20.6873 62.1983 20.1557C61.9861 19.6241 61.671 19.1414 61.272 18.7365C60.873 18.3316 60.3981 18.0127 59.8757 17.7988C59.3532 17.5848 58.7939 17.4803 58.231 17.4913V17.4913ZM58.231 24.4654C57.7138 24.5022 57.1977 24.3796 56.7497 24.1135C56.3018 23.8473 55.9427 23.4499 55.7192 22.973C55.4957 22.496 55.4181 21.9615 55.4965 21.439C55.5749 20.9165 55.8057 20.4301 56.1588 20.043C56.512 19.656 56.9711 19.3862 57.4767 19.2688C57.9822 19.1513 58.5107 19.1916 58.9934 19.3845C59.4762 19.5773 59.8909 19.9137 60.1836 20.35C60.4763 20.7863 60.6335 21.3023 60.6348 21.8309C60.6509 22.1659 60.6011 22.5007 60.4883 22.8157C60.3754 23.1307 60.2019 23.4195 59.9779 23.665C59.7539 23.9105 59.4839 24.1079 59.1839 24.2453C58.8839 24.3828 58.5599 24.4576 58.231 24.4654ZM48.8967 17.4913C48.0528 17.4933 47.2285 17.7504 46.528 18.23C45.8274 18.7097 45.2821 19.3903 44.961 20.186C44.64 20.9816 44.5575 21.8564 44.724 22.6998C44.8906 23.5432 45.2987 24.3173 45.8968 24.9242C46.4949 25.5311 47.2561 25.9435 48.0841 26.1094C48.9122 26.2753 49.7698 26.1871 50.5487 25.856C51.3275 25.5249 51.9926 24.9658 52.4598 24.2493C52.9269 23.5329 53.1752 22.6913 53.1732 21.8309C53.1814 21.257 53.0762 20.6873 52.8639 20.1557C52.6517 19.6241 52.3366 19.1414 51.9376 18.7365C51.5386 18.3316 51.0637 18.0127 50.5413 17.7988C50.0189 17.5848 49.4595 17.4803 48.8967 17.4913V17.4913ZM48.8967 24.4654C48.3794 24.5022 47.8633 24.3796 47.4153 24.1135C46.9674 23.8473 46.6083 23.4499 46.3848 22.973C46.1613 22.496 46.0837 21.9615 46.1621 21.439C46.2405 20.9165 46.4713 20.4301 46.8244 20.043C47.1776 19.656 47.6367 19.3862 48.1423 19.2688C48.6478 19.1513 49.1763 19.1916 49.659 19.3845C50.1418 19.5773 50.5565 19.9137 50.8492 20.35C51.1419 20.7863 51.2991 21.3023 51.3004 21.8309C51.3165 22.1659 51.2667 22.5007 51.1539 22.8157C51.041 23.1307 50.8675 23.4195 50.6435 23.665C50.4195 23.9105 50.1495 24.1079 49.8495 24.2453C49.5495 24.3828 49.2255 24.4576 48.8967 24.4654ZM37.7995 18.8289V20.6669H42.1262C42.0584 21.5326 41.7054 22.3494 41.1247 22.9848C40.6907 23.4356 40.1686 23.7885 39.5924 24.0207C39.0162 24.2529 38.3986 24.3591 37.7795 24.3326C36.5045 24.3326 35.2817 23.8162 34.3801 22.8971C33.4786 21.9779 32.9721 20.7313 32.9721 19.4314C32.9721 18.1315 33.4786 16.8848 34.3801 15.9656C35.2817 15.0465 36.5045 14.5301 37.7795 14.5301C39.0018 14.5116 40.1821 14.9848 41.0646 15.8473L42.3365 14.5505C41.7396 13.9486 41.0308 13.4742 40.2518 13.1551C39.4727 12.8359 38.639 12.6786 37.7995 12.6921C36.9092 12.6568 36.0209 12.8051 35.1881 13.1281C34.3553 13.4511 33.595 13.9422 32.9528 14.572C32.3106 15.2017 31.7997 15.9572 31.4507 16.793C31.1018 17.6289 30.9219 18.528 30.9219 19.4365C30.9219 20.3449 31.1018 21.244 31.4507 22.0799C31.7997 22.9158 32.3106 23.6712 32.9528 24.301C33.595 24.9307 34.3553 25.4218 35.1881 25.7448C36.0209 26.0679 36.9092 26.2161 37.7995 26.1808C38.6563 26.2157 39.5106 26.0654 40.3063 25.7399C41.102 25.4143 41.8212 24.9208 42.4167 24.2918C43.4684 23.1139 44.0288 21.5646 43.9791 19.9725C43.9827 19.5893 43.9525 19.2066 43.8889 18.8289H37.7995ZM83.1795 20.2584C82.9183 19.475 82.4299 18.7909 81.7789 18.2968C81.1279 17.8026 80.345 17.5217 79.5339 17.4913C78.9861 17.4902 78.4438 17.6037 77.9407 17.8247C77.4376 18.0457 76.9843 18.3696 76.6088 18.7764C76.2333 19.1831 75.9436 19.664 75.7577 20.1894C75.5718 20.7148 75.4935 21.2735 75.5277 21.8309C75.5192 22.763 75.8066 23.673 76.3471 24.4248C76.8876 25.1766 77.6522 25.73 78.5266 26.0023C79.401 26.2745 80.3384 26.2511 81.1987 25.9354C82.059 25.6198 82.796 25.0289 83.2997 24.2509L81.8475 23.2298C81.631 23.5977 81.3239 23.9015 80.9567 24.1111C80.5896 24.3206 80.175 24.4287 79.7542 24.4245C79.3202 24.4428 78.8908 24.3268 78.5226 24.0917C78.1543 23.8566 77.8645 23.5134 77.6911 23.1073L83.3899 20.7077L83.1795 20.2584ZM77.3706 21.7084C77.3503 21.3912 77.3922 21.0731 77.494 20.7727C77.5958 20.4723 77.7554 20.1956 77.9634 19.9588C78.1714 19.722 78.4236 19.5299 78.7053 19.3938C78.987 19.2576 79.2926 19.1801 79.604 19.1659C79.9267 19.1458 80.2481 19.2232 80.5278 19.3885C80.8075 19.5538 81.0331 19.7996 81.1764 20.0951L77.3706 21.7084ZM72.7434 25.9153H74.6163V13.1516H72.7434V25.9153ZM69.6787 18.4613H69.6086C69.3288 18.1365 68.9835 17.877 68.5963 17.7008C68.2091 17.5246 67.7892 17.4357 67.3651 17.4402C66.2706 17.4943 65.2385 17.9757 64.4827 18.7846C63.7268 19.5935 63.3052 20.6678 63.3052 21.785C63.3052 22.9022 63.7268 23.9765 64.4827 24.7854C65.2385 25.5943 66.2706 26.0756 67.3651 26.1298C67.7898 26.1384 68.211 26.0514 68.5988 25.8749C68.9866 25.6984 69.3314 25.4367 69.6086 25.1087H69.6787V25.7315C69.6787 27.3959 68.8074 28.2843 67.4052 28.2843C66.9368 28.2738 66.482 28.1216 66.0986 27.8471C65.7152 27.5726 65.4205 27.1881 65.2519 26.7424L63.6294 27.4265C63.9293 28.1947 64.4509 28.8519 65.1251 29.3113C65.7993 29.7708 66.5943 30.0108 67.4052 29.9997C69.5986 29.9997 71.4114 28.6825 71.4114 25.4763V17.7465H69.6787V18.4613ZM67.5254 24.4654C66.8692 24.4237 66.2532 24.1285 65.803 23.64C65.3528 23.1515 65.1022 22.5064 65.1022 21.836C65.1022 21.1657 65.3528 20.5206 65.803 20.0321C66.2532 19.5436 66.8692 19.2484 67.5254 19.2067C67.8461 19.2208 68.1608 19.3006 68.4507 19.4412C68.7406 19.5818 68.9997 19.7805 69.2128 20.0253C69.4258 20.2701 69.5884 20.5562 69.6908 20.8664C69.7932 21.1766 69.8334 21.5046 69.8089 21.8309C69.8362 22.1584 69.7981 22.4881 69.6969 22.8001C69.5957 23.1121 69.4334 23.4 69.22 23.6462C69.0065 23.8925 68.7463 24.0921 68.455 24.2328C68.1637 24.3736 67.8475 24.4527 67.5254 24.4654V24.4654ZM91.9531 13.1516H87.4661V25.9153H89.339V21.0753H91.9531C92.4868 21.1144 93.0228 21.041 93.5275 20.8596C94.0322 20.6782 94.4949 20.3928 94.8866 20.021C95.2783 19.6493 95.5908 19.1993 95.8044 18.6991C96.018 18.1988 96.1282 17.6591 96.1282 17.1135C96.1282 16.5679 96.018 16.0281 95.8044 15.5279C95.5908 15.0276 95.2783 14.5776 94.8866 14.2059C94.4949 13.8342 94.0322 13.5487 93.5275 13.3673C93.0228 13.186 92.4868 13.1125 91.9531 13.1516V13.1516ZM91.9531 19.2782H89.339V14.9283H91.9931C92.2746 14.9283 92.5533 14.9848 92.8133 15.0947C93.0734 15.2045 93.3096 15.3654 93.5087 15.5683C93.7077 15.7712 93.8656 16.0121 93.9733 16.2772C94.081 16.5424 94.1364 16.8265 94.1364 17.1135C94.1364 17.4004 94.081 17.6846 93.9733 17.9497C93.8656 18.2148 93.7077 18.4557 93.5087 18.6586C93.3096 18.8615 93.0734 19.0225 92.8133 19.1323C92.5533 19.2421 92.2746 19.2986 91.9931 19.2986L91.9531 19.2782ZM103.511 17.4504C102.829 17.4076 102.149 17.5694 101.557 17.9161C100.964 18.2627 100.484 18.7789 100.176 19.4007L101.828 20.1053C101.995 19.7983 102.246 19.5473 102.55 19.3824C102.854 19.2175 103.198 19.1458 103.541 19.1761C103.779 19.1478 104.02 19.168 104.25 19.2356C104.48 19.3033 104.694 19.4169 104.881 19.5699C105.067 19.723 105.222 19.9123 105.336 20.127C105.45 20.3416 105.52 20.5772 105.544 20.82V20.9426C104.942 20.6198 104.271 20.4516 103.591 20.4525C101.808 20.4525 99.9855 21.4736 99.9855 23.332C100.003 23.727 100.098 24.1143 100.266 24.471C100.433 24.8277 100.669 25.1465 100.96 25.4085C101.25 25.6704 101.589 25.8701 101.957 25.9958C102.325 26.1214 102.714 26.1705 103.1 26.14C103.57 26.1665 104.039 26.0651 104.458 25.8462C104.876 25.6273 105.231 25.2987 105.484 24.8942H105.544V25.9153H107.347V21.0038C107.347 18.7676 105.684 17.4709 103.551 17.4709L103.511 17.4504ZM103.281 24.4449C102.67 24.4449 101.818 24.1284 101.818 23.3626C101.818 22.3415 102.88 21.9943 103.821 21.9943C104.416 21.9793 105.004 22.1275 105.524 22.4232C105.461 22.9777 105.203 23.4902 104.798 23.8657C104.393 24.2412 103.868 24.4542 103.321 24.4654L103.281 24.4449ZM113.917 17.7465L111.774 23.2809H111.714L109.49 17.7465H107.487L110.822 25.4865L108.919 29.7853H110.872L116 17.7465H113.917ZM97.091 25.9153H98.9539V13.1516H97.091V25.9153Z" fill="white"/>
<path d="M34.4236 5.86568H36.5145V8.76677C36.2008 8.87315 35.8775 8.95226 35.5447 9.00409C35.2147 9.05592 34.845 9.08184 34.4359 9.08184C33.8139 9.08184 33.2888 8.95772 32.8605 8.70948C32.435 8.46125 32.1117 8.10799 31.8908 7.64971C31.6698 7.1887 31.5593 6.64176 31.5593 6.0089C31.5593 5.38967 31.6807 4.84955 31.9235 4.38854C32.169 3.92754 32.5223 3.57019 32.9833 3.31649C33.447 3.06007 34.0035 2.93187 34.6527 2.93187C34.9855 2.93187 35.3006 2.96324 35.5979 3.02598C35.898 3.08599 36.1762 3.17192 36.4327 3.28376L36.1667 3.88935C35.9457 3.79387 35.7016 3.71203 35.4343 3.64384C35.1697 3.57564 34.8955 3.54154 34.6118 3.54154C34.1235 3.54154 33.7048 3.64247 33.3556 3.84434C33.0092 4.0462 32.7432 4.33126 32.5577 4.69952C32.375 5.06778 32.2836 5.50424 32.2836 6.0089C32.2836 6.5081 32.364 6.94319 32.525 7.31418C32.6859 7.68244 32.9369 7.96887 33.2779 8.17346C33.6189 8.37805 34.0581 8.48034 34.5954 8.48034C34.8655 8.48034 35.0974 8.46534 35.291 8.43533C35.4847 8.4026 35.6607 8.36441 35.8189 8.32076V6.48764H34.4236V5.86568ZM41.2937 9H37.963V3.01779H41.2937V3.63156H38.6586V5.56698H41.1423V6.17257H38.6586V8.38623H41.2937V9ZM44.4567 9H43.757V3.63156H41.8747V3.01779H46.3307V3.63156H44.4567V9ZM49.4118 9V3.01779H50.1074V9H49.4118ZM53.5896 9H52.8899V3.63156H51.0076V3.01779H55.4636V3.63156H53.5896V9ZM63.7331 6.00071C63.7331 6.46172 63.6745 6.88181 63.5572 7.26099C63.4399 7.63743 63.2653 7.96205 63.0334 8.23483C62.8043 8.50489 62.5192 8.71357 62.1782 8.86088C61.8373 9.00818 61.4417 9.08184 60.9916 9.08184C60.5279 9.08184 60.1228 9.00818 59.7764 8.86088C59.4326 8.71357 59.1462 8.50353 58.9171 8.23074C58.6907 7.95796 58.5202 7.63198 58.4056 7.2528C58.2938 6.87363 58.2378 6.45354 58.2378 5.99253C58.2378 5.38149 58.3388 4.84546 58.5406 4.38445C58.7425 3.92344 59.048 3.56473 59.4572 3.30831C59.8691 3.05189 60.3847 2.92368 61.0039 2.92368C61.5958 2.92368 62.0937 3.05053 62.4974 3.30422C62.9039 3.55791 63.2107 3.91526 63.4181 4.37627C63.6281 4.83455 63.7331 5.37603 63.7331 6.00071ZM58.9703 6.00071C58.9703 6.5081 59.0426 6.94728 59.1871 7.31827C59.3317 7.68926 59.5527 7.97569 59.85 8.17755C60.1501 8.37941 60.5306 8.48034 60.9916 8.48034C61.4554 8.48034 61.8345 8.37941 62.1291 8.17755C62.4265 7.97569 62.6461 7.68926 62.7879 7.31827C62.9298 6.94728 63.0007 6.5081 63.0007 6.00071C63.0007 5.22873 62.8384 4.62587 62.5138 4.19214C62.1919 3.75568 61.6886 3.53745 61.0039 3.53745C60.5402 3.53745 60.1583 3.63702 59.8582 3.83615C59.5581 4.03529 59.3344 4.31898 59.1871 4.68725C59.0426 5.05278 58.9703 5.4906 58.9703 6.00071ZM69.744 9H68.942L65.6808 3.97527H65.6481C65.6563 4.10894 65.6658 4.2617 65.6767 4.43355C65.6876 4.60268 65.6958 4.78409 65.7013 4.97776C65.7095 5.16871 65.7136 5.36376 65.7136 5.56289V9H65.0671V3.01779H65.865L69.1138 8.02615H69.1425C69.137 7.93068 69.1302 7.79565 69.122 7.62106C69.1138 7.44375 69.1057 7.25417 69.0975 7.0523C69.092 6.84771 69.0893 6.65813 69.0893 6.48354V3.01779H69.744V9Z" fill="white"/>
<path d="M34.4236 5.86568V5.76568H34.3236V5.86568H34.4236ZM36.5145 5.86568H36.6145V5.76568H36.5145V5.86568ZM36.5145 8.76677L36.5466 8.86147L36.6145 8.83845V8.76677H36.5145ZM35.5447 9.00409L35.5293 8.90528L35.5292 8.9053L35.5447 9.00409ZM32.8605 8.70948L32.8101 8.79586L32.8104 8.796L32.8605 8.70948ZM31.8908 7.64971L31.8006 7.69293L31.8007 7.69314L31.8908 7.64971ZM31.9235 4.38854L31.8352 4.34154L31.835 4.34195L31.9235 4.38854ZM32.9833 3.31649L33.0315 3.4041L33.0317 3.40401L32.9833 3.31649ZM35.5979 3.02598L35.5773 3.12383L35.5783 3.12403L35.5979 3.02598ZM36.4327 3.28376L36.5242 3.32397L36.5645 3.23218L36.4726 3.1921L36.4327 3.28376ZM36.1667 3.88935L36.127 3.98114L36.2183 4.02057L36.2582 3.92956L36.1667 3.88935ZM35.4343 3.64384L35.4093 3.74067L35.4095 3.74073L35.4343 3.64384ZM33.3556 3.84434L33.3056 3.75776L33.3053 3.75793L33.3556 3.84434ZM32.5577 4.69952L32.4684 4.65453L32.4681 4.65507L32.5577 4.69952ZM32.525 7.31418L32.4333 7.35398L32.4334 7.35423L32.525 7.31418ZM33.2779 8.17346L33.2264 8.25921L33.2779 8.17346ZM35.291 8.43533L35.3064 8.53416L35.3077 8.53393L35.291 8.43533ZM35.8189 8.32076L35.8455 8.41716L35.9189 8.39691V8.32076H35.8189ZM35.8189 6.48764H35.9189V6.38764H35.8189V6.48764ZM34.4236 6.48764H34.3236V6.58764H34.4236V6.48764ZM34.4236 5.96568H36.5145V5.76568H34.4236V5.96568ZM36.4145 5.86568V8.76677H36.6145V5.86568H36.4145ZM36.4824 8.67207C36.1742 8.77657 35.8566 8.85432 35.5293 8.90528L35.5601 9.1029C35.8985 9.0502 36.2274 8.96973 36.5466 8.86147L36.4824 8.67207ZM35.5292 8.9053C35.2053 8.95617 34.841 8.98184 34.4359 8.98184V9.18184C34.8491 9.18184 35.2241 9.15567 35.5602 9.10288L35.5292 8.9053ZM34.4359 8.98184C33.8271 8.98184 33.3203 8.86037 32.9107 8.62296L32.8104 8.796C33.2573 9.05506 33.8008 9.18184 34.4359 9.18184V8.98184ZM32.9109 8.6231C32.5032 8.38525 32.1934 8.04723 31.9808 7.60628L31.8007 7.69314C32.03 8.16875 32.3668 8.53724 32.8101 8.79586L32.9109 8.6231ZM31.9809 7.60649C31.7678 7.16179 31.6593 6.63028 31.6593 6.0089H31.4593C31.4593 6.65324 31.5718 7.21561 31.8006 7.69293L31.9809 7.60649ZM31.6593 6.0089C31.6593 5.40286 31.7781 4.87931 32.012 4.43514L31.835 4.34195C31.5834 4.8198 31.4593 5.37648 31.4593 6.0089H31.6593ZM32.0118 4.43555C32.2481 3.99181 32.5873 3.64851 33.0315 3.4041L32.9351 3.22888C32.4572 3.49186 32.0899 3.86326 31.8352 4.34154L32.0118 4.43555ZM33.0317 3.40401C33.4776 3.15743 34.0166 3.03187 34.6527 3.03187V2.83187C33.9903 2.83187 33.4164 2.96272 32.9349 3.22898L33.0317 3.40401ZM34.6527 3.03187C34.9792 3.03187 35.2873 3.06264 35.5773 3.12382L35.6186 2.92813C35.3138 2.86383 34.9918 2.83187 34.6527 2.83187V3.03187ZM35.5783 3.12403C35.872 3.18278 36.1434 3.26668 36.3927 3.37542L36.4726 3.1921C36.2091 3.07715 35.924 2.9892 35.6175 2.92792L35.5783 3.12403ZM36.3411 3.24355L36.0751 3.84913L36.2582 3.92956L36.5242 3.32397L36.3411 3.24355ZM36.2064 3.79755C35.9799 3.69971 35.7307 3.61626 35.459 3.54694L35.4095 3.74073C35.6725 3.80781 35.9115 3.88804 36.127 3.98114L36.2064 3.79755ZM35.4592 3.547C35.1862 3.47663 34.9036 3.44154 34.6118 3.44154V3.64154C34.8874 3.64154 35.1532 3.67466 35.4093 3.74067L35.4592 3.547ZM34.6118 3.44154C34.1096 3.44154 33.6729 3.54542 33.3056 3.75776L33.4057 3.93091C33.7367 3.73952 34.1374 3.64154 34.6118 3.64154V3.44154ZM33.3053 3.75793C32.9416 3.96983 32.6624 4.26951 32.4684 4.65454L32.647 4.74451C32.8241 4.39301 33.0767 4.12257 33.406 3.93074L33.3053 3.75793ZM32.4681 4.65507C32.2771 5.03993 32.1836 5.49226 32.1836 6.0089H32.3836C32.3836 5.51622 32.4728 5.09564 32.6473 4.74398L32.4681 4.65507ZM32.1836 6.0089C32.1836 6.51867 32.2657 6.96785 32.4333 7.35398L32.6167 7.27438C32.4624 6.91853 32.3836 6.49752 32.3836 6.0089H32.1836ZM32.4334 7.35423C32.6025 7.74131 32.8674 8.0438 33.2264 8.25921L33.3293 8.08771C33.0064 7.89393 32.7693 7.62357 32.6166 7.27413L32.4334 7.35423ZM33.2264 8.25921C33.5875 8.47585 34.0461 8.58034 34.5954 8.58034V8.38034C34.07 8.38034 33.6502 8.28025 33.3293 8.08771L33.2264 8.25921ZM34.5954 8.58034C34.8689 8.58034 35.1061 8.56518 35.3064 8.53415L35.2757 8.33651C35.0886 8.3655 34.8621 8.38034 34.5954 8.38034V8.58034ZM35.3077 8.53393C35.5041 8.50074 35.6834 8.46186 35.8455 8.41716L35.7923 8.22436C35.6379 8.26695 35.4653 8.30446 35.2744 8.33673L35.3077 8.53393ZM35.9189 8.32076V6.48764H35.7189V8.32076H35.9189ZM35.8189 6.38764H34.4236V6.58764H35.8189V6.38764ZM34.5236 6.48764V5.86568H34.3236V6.48764H34.5236ZM41.2937 9V9.1H41.3937V9H41.2937ZM37.963 9H37.863V9.1H37.963V9ZM37.963 3.01779V2.91779H37.863V3.01779H37.963ZM41.2937 3.01779H41.3937V2.91779H41.2937V3.01779ZM41.2937 3.63156V3.73156H41.3937V3.63156H41.2937ZM38.6586 3.63156V3.53156H38.5586V3.63156H38.6586ZM38.6586 5.56698H38.5586V5.66698H38.6586V5.56698ZM41.1423 5.56698H41.2423V5.46698H41.1423V5.56698ZM41.1423 6.17257V6.27257H41.2423V6.17257H41.1423ZM38.6586 6.17257V6.07257H38.5586V6.17257H38.6586ZM38.6586 8.38623H38.5586V8.48623H38.6586V8.38623ZM41.2937 8.38623H41.3937V8.28623H41.2937V8.38623ZM41.2937 8.9H37.963V9.1H41.2937V8.9ZM38.063 9V3.01779H37.863V9H38.063ZM37.963 3.11779H41.2937V2.91779H37.963V3.11779ZM41.1937 3.01779V3.63156H41.3937V3.01779H41.1937ZM41.2937 3.53156H38.6586V3.73156H41.2937V3.53156ZM38.5586 3.63156V5.56698H38.7586V3.63156H38.5586ZM38.6586 5.66698H41.1423V5.46698H38.6586V5.66698ZM41.0423 5.56698V6.17257H41.2423V5.56698H41.0423ZM41.1423 6.07257H38.6586V6.27257H41.1423V6.07257ZM38.5586 6.17257V8.38623H38.7586V6.17257H38.5586ZM38.6586 8.48623H41.2937V8.28623H38.6586V8.48623ZM41.1937 8.38623V9H41.3937V8.38623H41.1937ZM44.4567 9V9.1H44.5567V9H44.4567ZM43.757 9H43.657V9.1H43.757V9ZM43.757 3.63156H43.857V3.53156H43.757V3.63156ZM41.8747 3.63156H41.7747V3.73156H41.8747V3.63156ZM41.8747 3.01779V2.91779H41.7747V3.01779H41.8747ZM46.3307 3.01779H46.4307V2.91779H46.3307V3.01779ZM46.3307 3.63156V3.73156H46.4307V3.63156H46.3307ZM44.4567 3.63156V3.53156H44.3567V3.63156H44.4567ZM44.4567 8.9H43.757V9.1H44.4567V8.9ZM43.857 9V3.63156H43.657V9H43.857ZM43.757 3.53156H41.8747V3.73156H43.757V3.53156ZM41.9747 3.63156V3.01779H41.7747V3.63156H41.9747ZM41.8747 3.11779H46.3307V2.91779H41.8747V3.11779ZM46.2307 3.01779V3.63156H46.4307V3.01779H46.2307ZM46.3307 3.53156H44.4567V3.73156H46.3307V3.53156ZM44.3567 3.63156V9H44.5567V3.63156H44.3567ZM49.4118 9H49.3118V9.1H49.4118V9ZM49.4118 3.01779V2.91779H49.3118V3.01779H49.4118ZM50.1074 3.01779H50.2074V2.91779H50.1074V3.01779ZM50.1074 9V9.1H50.2074V9H50.1074ZM49.5118 9V3.01779H49.3118V9H49.5118ZM49.4118 3.11779H50.1074V2.91779H49.4118V3.11779ZM50.0074 3.01779V9H50.2074V3.01779H50.0074ZM50.1074 8.9H49.4118V9.1H50.1074V8.9ZM53.5896 9V9.1H53.6896V9H53.5896ZM52.8899 9H52.7899V9.1H52.8899V9ZM52.8899 3.63156H52.9899V3.53156H52.8899V3.63156ZM51.0076 3.63156H50.9076V3.73156H51.0076V3.63156ZM51.0076 3.01779V2.91779H50.9076V3.01779H51.0076ZM55.4636 3.01779H55.5636V2.91779H55.4636V3.01779ZM55.4636 3.63156V3.73156H55.5636V3.63156H55.4636ZM53.5896 3.63156V3.53156H53.4896V3.63156H53.5896ZM53.5896 8.9H52.8899V9.1H53.5896V8.9ZM52.9899 9V3.63156H52.7899V9H52.9899ZM52.8899 3.53156H51.0076V3.73156H52.8899V3.53156ZM51.1076 3.63156V3.01779H50.9076V3.63156H51.1076ZM51.0076 3.11779H55.4636V2.91779H51.0076V3.11779ZM55.3636 3.01779V3.63156H55.5636V3.01779H55.3636ZM55.4636 3.53156H53.5896V3.73156H55.4636V3.53156ZM53.4896 3.63156V9H53.6896V3.63156H53.4896ZM63.5572 7.26099L63.6527 7.29074L63.6527 7.29054L63.5572 7.26099ZM63.0334 8.23483L62.9572 8.17007L62.9572 8.17014L63.0334 8.23483ZM62.1782 8.86088L62.2179 8.95268L62.1782 8.86088ZM59.7764 8.86088L59.737 8.95279L59.7372 8.95291L59.7764 8.86088ZM58.9171 8.23074L58.8401 8.29461L58.8405 8.29506L58.9171 8.23074ZM58.4056 7.2528L58.3097 7.28109L58.3099 7.28173L58.4056 7.2528ZM59.4572 3.30831L59.4043 3.22342L59.4041 3.22357L59.4572 3.30831ZM62.4974 3.30422L62.4442 3.38889L62.4445 3.38905L62.4974 3.30422ZM63.4181 4.37627L63.3269 4.41728L63.3272 4.41793L63.4181 4.37627ZM59.85 8.17755L59.7938 8.26028L59.7942 8.26052L59.85 8.17755ZM62.1291 8.17755L62.073 8.09481L62.0726 8.09506L62.1291 8.17755ZM62.5138 4.19214L62.4333 4.25149L62.4337 4.25206L62.5138 4.19214ZM59.8582 3.83615L59.8029 3.75283L59.8582 3.83615ZM59.1871 4.68725L59.0943 4.65011L59.0941 4.65047L59.1871 4.68725ZM63.6331 6.00071C63.6331 6.45328 63.5755 6.86323 63.4616 7.23143L63.6527 7.29054C63.7734 6.90039 63.8331 6.47016 63.8331 6.00071H63.6331ZM63.4617 7.23124C63.348 7.59614 63.1795 7.90853 62.9572 8.17007L63.1096 8.2996C63.3511 8.01556 63.5318 7.67872 63.6527 7.29074L63.4617 7.23124ZM62.9572 8.17014C62.7385 8.42789 62.4662 8.62757 62.1386 8.76908L62.2179 8.95268C62.5723 8.79958 62.8701 8.58189 63.1097 8.29953L62.9572 8.17014ZM62.1386 8.76908C61.8125 8.90996 61.4309 8.98184 60.9916 8.98184V9.18184C61.4525 9.18184 61.862 9.10641 62.2179 8.95268L62.1386 8.76908ZM60.9916 8.98184C60.5383 8.98184 60.147 8.90983 59.8155 8.76885L59.7372 8.95291C60.0986 9.10654 60.5175 9.18184 60.9916 9.18184V8.98184ZM59.8158 8.76896C59.4857 8.62751 59.2122 8.42663 58.9937 8.16642L58.8405 8.29506C59.0802 8.58043 59.3796 8.79964 59.737 8.95279L59.8158 8.76896ZM58.994 8.16688C58.7771 7.90551 58.6125 7.59177 58.5013 7.22388L58.3099 7.28173C58.4279 7.67218 58.6042 8.0104 58.8401 8.29461L58.994 8.16688ZM58.5015 7.22451C58.3928 6.8559 58.3378 6.44551 58.3378 5.99253H58.1378C58.1378 6.46157 58.1947 6.89136 58.3097 7.28109L58.5015 7.22451ZM58.3378 5.99253C58.3378 5.3924 58.437 4.87052 58.6322 4.42456L58.449 4.34434C58.2406 4.8204 58.1378 5.37057 58.1378 5.99253H58.3378ZM58.6322 4.42456C58.8264 3.98114 59.1189 3.63833 59.5103 3.39305L59.4041 3.22357C58.9771 3.49113 58.6586 3.86575 58.449 4.34434L58.6322 4.42456ZM59.51 3.3932C59.9023 3.14904 60.3983 3.02368 61.0039 3.02368V2.82368C60.3711 2.82368 59.836 2.95474 59.4043 3.22342L59.51 3.3932ZM61.0039 3.02368C61.5816 3.02368 62.0599 3.14738 62.4442 3.38889L62.5506 3.21955C62.1275 2.95367 61.6101 2.82368 61.0039 2.82368V3.02368ZM62.4445 3.38905C62.8331 3.63166 63.1272 3.9733 63.3269 4.41728L63.5093 4.33526C63.2943 3.85722 62.9746 3.48416 62.5504 3.21939L62.4445 3.38905ZM63.3272 4.41793C63.53 4.86041 63.6331 5.38706 63.6331 6.00071H63.8331C63.8331 5.365 63.7263 4.80869 63.509 4.3346L63.3272 4.41793ZM58.8703 6.00071C58.8703 6.51726 58.9438 6.96933 59.094 7.35458L59.2803 7.28196C59.1413 6.92524 59.0703 6.49893 59.0703 6.00071H58.8703ZM59.094 7.35458C59.2451 7.74231 59.478 8.04583 59.7938 8.26028L59.9062 8.09481C59.6274 7.90554 59.4184 7.63621 59.2803 7.28196L59.094 7.35458ZM59.7942 8.26052C60.1148 8.47617 60.5162 8.58034 60.9916 8.58034V8.38034C60.5451 8.38034 60.1854 8.28265 59.9058 8.09458L59.7942 8.26052ZM60.9916 8.58034C61.4696 8.58034 61.8701 8.47627 62.1857 8.26004L62.0726 8.09506C61.799 8.28255 61.4412 8.38034 60.9916 8.38034V8.58034ZM62.1853 8.26028C62.5013 8.04573 62.733 7.74199 62.8813 7.35399L62.6945 7.28256C62.5592 7.63653 62.3516 7.90565 62.073 8.09481L62.1853 8.26028ZM62.8813 7.35399C63.0286 6.96892 63.1007 6.51707 63.1007 6.00071H62.9007C62.9007 6.49912 62.831 6.92565 62.6945 7.28256L62.8813 7.35399ZM63.1007 6.00071C63.1007 5.21602 62.9359 4.58922 62.5938 4.13222L62.4337 4.25206C62.7409 4.66252 62.9007 5.24143 62.9007 6.00071H63.1007ZM62.5943 4.13278C62.2486 3.66414 61.7111 3.43745 61.0039 3.43745V3.63745C61.6661 3.63745 62.1351 3.84722 62.4333 4.25149L62.5943 4.13278ZM61.0039 3.43745C60.5261 3.43745 60.1235 3.54008 59.8029 3.75283L59.9135 3.91947C60.193 3.73395 60.5542 3.63745 61.0039 3.63745V3.43745ZM59.8029 3.75283C59.4842 3.96432 59.2483 4.26499 59.0943 4.65011L59.28 4.72439C59.4206 4.37298 59.632 4.10625 59.9135 3.91947L59.8029 3.75283ZM59.0941 4.65047C58.9438 5.03062 58.8703 5.48158 58.8703 6.00071H59.0703C59.0703 5.49963 59.1413 5.07494 59.2801 4.72403L59.0941 4.65047ZM69.744 9V9.1H69.844V9H69.744ZM68.942 9L68.8581 9.05444L68.8877 9.1H68.942V9ZM65.6808 3.97527L65.7647 3.92083L65.7351 3.87527H65.6808V3.97527ZM65.6481 3.97527V3.87527H65.5418L65.5483 3.98138L65.6481 3.97527ZM65.6767 4.43355L65.5769 4.43989L65.5769 4.43999L65.6767 4.43355ZM65.7013 4.97776L65.6013 4.98058L65.6014 4.98205L65.7013 4.97776ZM65.7136 9V9.1H65.8136V9H65.7136ZM65.0671 9H64.9671V9.1H65.0671V9ZM65.0671 3.01779V2.91779H64.9671V3.01779H65.0671ZM65.865 3.01779L65.9488 2.96337L65.9193 2.91779H65.865V3.01779ZM69.1138 8.02615L69.0299 8.08057L69.0595 8.12615H69.1138V8.02615ZM69.1425 8.02615V8.12615H69.2484L69.2423 8.02045L69.1425 8.02615ZM69.122 7.62106L69.0221 7.62567L69.0221 7.62575L69.122 7.62106ZM69.0975 7.0523L68.9975 7.05497L68.9976 7.05636L69.0975 7.0523ZM69.0893 3.01779V2.91779H68.9893V3.01779H69.0893ZM69.744 3.01779H69.844V2.91779H69.744V3.01779ZM69.744 8.9H68.942V9.1H69.744V8.9ZM69.0259 8.94556L65.7647 3.92083L65.5969 4.02971L68.8581 9.05444L69.0259 8.94556ZM65.6808 3.87527H65.6481V4.07527H65.6808V3.87527ZM65.5483 3.98138C65.5565 4.11514 65.566 4.26798 65.5769 4.43989L65.7765 4.42722C65.7656 4.25542 65.7561 4.10273 65.7479 3.96916L65.5483 3.98138ZM65.5769 4.43999C65.5878 4.60776 65.5959 4.78794 65.6013 4.98058L65.8012 4.97495C65.7958 4.78023 65.7875 4.59761 65.7765 4.42712L65.5769 4.43999ZM65.6014 4.98205C65.6095 5.17151 65.6136 5.36512 65.6136 5.56289H65.8136C65.8136 5.36239 65.8094 5.16592 65.8012 4.97348L65.6014 4.98205ZM65.6136 5.56289V9H65.8136V5.56289H65.6136ZM65.7136 8.9H65.0671V9.1H65.7136V8.9ZM65.1671 9V3.01779H64.9671V9H65.1671ZM65.0671 3.11779H65.865V2.91779H65.0671V3.11779ZM65.7811 3.07221L69.0299 8.08057L69.1977 7.97173L65.9488 2.96337L65.7811 3.07221ZM69.1138 8.12615H69.1425V7.92615H69.1138V8.12615ZM69.2423 8.02045C69.2369 7.92548 69.2301 7.79085 69.2219 7.61638L69.0221 7.62575C69.0303 7.80044 69.0372 7.93587 69.0426 8.03186L69.2423 8.02045ZM69.2219 7.61645C69.2137 7.43935 69.2056 7.24995 69.1974 7.04825L68.9976 7.05636C69.0057 7.25838 69.0139 7.44815 69.0221 7.62567L69.2219 7.61645ZM69.1974 7.04964C69.192 6.84579 69.1893 6.6571 69.1893 6.48354H68.9893C68.9893 6.65915 68.992 6.84964 68.9975 7.05497L69.1974 7.04964ZM69.1893 6.48354V3.01779H68.9893V6.48354H69.1893ZM69.0893 3.11779H69.744V2.91779H69.0893V3.11779ZM69.644 3.01779V9H69.844V3.01779H69.644Z" fill="white"/>
</svg>
